<svg xmlns="http://www.w3.org/2000/svg" viewBox="0 0 376.55 113.92"><defs><style>.cls-1{fill:#d0a75d;}.cls-2{fill:#d8bf79;}</style></defs><title>Bread</title><g id="Layer_2" data-name="Layer 2"><g id="Page_4" data-name="Page 4"><g id="Items"><g id="Bread"><g id="Bread_2" data-name="Bread 2"><path class="cls-1" d="M372.24,31.54c4,10,1,23-17,37s-64,24-119,33-68-7-70-21c-2,28,41,34,110,21S391.24,56.54,372.24,31.54Z"/><path class="cls-2" d="M372.24,31.54c-9.46-11.7-25.14-17.8-46.83-19.2.09.13,12.82,18.25,7.83,34.2,0,0-6-22-20.82-34.49A258,258,0,0,0,286.09,14c.09.09,23.14,23.64,16.15,50.59-1-12-12-31-30.34-48.62-3.16.49-6.37,1-9.66,1.62-5.9,1.05-11.6,2.33-17.09,3.78,3.93,2.81,26.09,26.25,22.09,54.22-2-12-17-35-34-50.69a171.85,171.85,0,0,0-27.07,11.56c.24.22,19.09,17.27,22.07,40.13-2-8-16-22-30.55-35.18-19,12-30.37,26.32-31.45,39.18,2,14,15,30,70,21s101-19,119-33S376.24,41.54,372.24,31.54Z"/><path class="cls-1" d="M228.24,76.54c-3-22.86-21.83-39.91-22.07-40.13q-4.46,2.4-8.48,5C212.25,54.54,226.24,68.54,228.24,76.54Z"/><path class="cls-1" d="M267.24,75.54c4-28-18.16-51.41-22.09-54.22-4.09,1.08-8.07,2.26-11.91,3.53C250.25,40.54,265.24,63.54,267.24,75.54Z"/><path class="cls-1" d="M302.24,64.54c7-26.95-16.06-50.5-16.15-50.59q-6.85.81-14.19,2C290.25,33.54,301.24,52.54,302.24,64.54Z"/><path class="cls-1" d="M333.24,46.54c5-15.95-7.74-34.07-7.83-34.2q-6.18-.39-13-.29C327.25,24.54,333.24,46.54,333.24,46.54Z"/></g><g id="Bread_1" data-name="Bread 1"><path class="cls-2" d="M10.45,42.31c-23.84,23.41-2.93,52.53,23.12,62.05s66.49,18.64,102.71-8c39.38-28.95,31.11-62.31-1.78-80.21C130.55,6.51,104.8,0,99,2.54c-10.63-6-33.14.21-34.93,2.4-8.26-2.21-31.37,8.07-30,12C20.46,21.24,10.16,39.32,10.45,42.31Z"/><path class="cls-1" d="M147.49,36a61.84,61.84,0,0,0-26.33.32,133.27,133.27,0,0,0-34-15.8,87.83,87.83,0,0,1,25.58-6.44A105.82,105.82,0,0,1,147.49,36c-6.58-9.21-17.28-16.73-29.11-22.21A74.1,74.1,0,0,1,134,15.21a53.54,53.54,0,0,0-20.44-3.49A115.39,115.39,0,0,0,87.06,4.39q5.66-1,12-1.85a66.25,66.25,0,0,0-21.47,1A43.27,43.27,0,0,0,64.09,4.94l5.86.4a111.08,111.08,0,0,0-22.81,9.34,47.53,47.53,0,0,0-13.72,2.46,75.64,75.64,0,0,1,9.86-.27A96.81,96.81,0,0,0,19,37.09c-4.47,1.09-7.52,2.91-8.58,5.22a51.75,51.75,0,0,1,5.83-1.75A65.36,65.36,0,0,0,6.13,59.81c4.73-6.42,9.06-13.32,14.52-20.08,6.85-1,16.58-1.06,28.73,2.65A197.24,197.24,0,0,0,20.81,76.46,203.1,203.1,0,0,1,51.55,43.07C60.36,46,70.37,51,81.41,58.86,69.9,69.74,61.22,82.5,56.58,93.08A119.17,119.17,0,0,1,83.79,60.59,214.77,214.77,0,0,1,115.6,90.35a112.69,112.69,0,0,0-28-32.72A107,107,0,0,1,123.45,40.1c8.88,5.74,16.69,12.72,22.48,21.18C141.06,53,134,45.68,125.67,39.5A124.72,124.72,0,0,1,147.49,36ZM78.6,6.12a139.22,139.22,0,0,1,28.69,6A81,81,0,0,0,82.8,19.25,124.1,124.1,0,0,0,52.92,14.6,132.23,132.23,0,0,1,78.6,6.12ZM23.54,36.3A83.69,83.69,0,0,1,47.87,17.09a184.21,184.21,0,0,1,30.06,4.57A128.14,128.14,0,0,0,52.56,39.49C41.37,36.22,31.16,35.42,23.54,36.3ZM85,55.64A104,104,0,0,0,55,40.23a135.06,135.06,0,0,1,27.27-17.5A150.38,150.38,0,0,1,118.39,37C105.92,40.42,94.58,47.31,85,55.64Z"/></g></g></g></g></g></svg>