<svg xmlns="http://www.w3.org/2000/svg" viewBox="0 0 143 222.56"><defs><style>.cls-1{fill:#87914c;}.cls-2{fill:#56631e;}.cls-3{fill:#896942;}</style></defs><title>Cactus 1</title><g id="Layer_2" data-name="Layer 2"><g id="Page_1" data-name="Page 1"><g id="Cactus"><g id="Layer_14" data-name="Layer 14"><path class="cls-1" d="M54,20.23v10s9,136,9,186h6s-7.83-170.42-13.75-204A24.68,24.68,0,0,0,54,20.23Z"/><path class="cls-2" d="M55.25,12.26c5.92,33.55,13.75,204,13.75,204h9C76.06,179.39,67.54,10.94,67,.72A17.52,17.52,0,0,0,55.25,12.26Z"/><path class="cls-1" d="M67,.72c.52,10.22,9,178.67,11,215.51h4s-3-79-12.88-216A16.79,16.79,0,0,0,67,.72Z"/><path class="cls-2" d="M69.12.24c9.88,137,12.88,216,12.88,216h8V146.51S83,45.23,79.33,1.57A17.76,17.76,0,0,0,69.12.24Z"/><path class="cls-2" d="M90,65.73V20.23c0-7.63-2.88-13.1-7-16.42h0S88,45.23,90,65.73Z"/><path class="cls-1" d="M90,97.23V65.73c-2-20.5-7-61.92-7-61.92h0a17.13,17.13,0,0,0-3.66-2.24C83,45.23,90,146.51,90,146.51V123.23h0v-26Z"/><path class="cls-2" d="M130.79,42.72h0c-3.69.91-6.79,3.48-6.79,7.51,0,45.86,0,47.91-34,48v7.65C123,106.23,130.79,105.21,130.79,42.72Z"/><path class="cls-1" d="M134.25,42.37a13,13,0,0,0-3.46.35h0c0,62.49-7.79,63.51-40.79,63.16v3.85C134,109.73,132,101.23,134.25,42.37Z"/><path class="cls-2" d="M90,120.23v3c35.52-.13,47.31-2.2,51.17-27.78C134.73,116.12,114.71,119.35,90,120.23Z"/><path class="cls-2" d="M143,63q.06-6,.05-12.76c0-5.21-4.26-7.72-8.75-7.86C132,101.23,134,109.73,90,109.73v6.75C122,114.23,135.9,117.74,143,63Z"/><path class="cls-1" d="M90,116.48v3.75c24.71-.88,44.73-4.11,51.17-24.78C142.4,87.27,142.82,76.69,143,63,135.9,117.74,122,114.23,90,116.48Z"/><path class="cls-2" d="M59.89,130.21c-2.6-50.33-5.89-100-5.89-100v91c-33,0-32,5-32-71a7.73,7.73,0,0,0-3.8-6.83h0C18.2,128.2,17.13,129.79,59.89,130.21Z"/><path class="cls-1" d="M62,136.23v-6l-2.11,0,.3,5.95Z"/><path class="cls-1" d="M60.19,136.16l-.3-5.95c-42.76-.42-41.69-2-41.69-86.81h0a10.67,10.67,0,0,0-2.18-1C16,127.24,9.26,134.08,60.19,136.16Z"/><path class="cls-2" d="M63,216.23c0-17-1-43.89-2.41-72C8,143.12,8,136.42,2.21,45A7.31,7.31,0,0,0,0,50.23c0,96,6,96,54,96v70Z"/><path class="cls-2" d="M60.34,139.14l-.15-3C9.26,134.08,16,127.24,16,42.36a15.16,15.16,0,0,0-9.44,0C10.12,148.06,19.56,137.06,60.34,139.14Z"/><path class="cls-1" d="M62,144.23v-5l-1.66-.09c.08,1.69.17,3.38.25,5.07Z"/><path class="cls-1" d="M60.59,144.21c-.08-1.69-.17-3.38-.25-5.07-40.78-2.08-50.22,8.92-53.76-96.77A10.85,10.85,0,0,0,2.21,45C8,136.42,8,143.12,60.59,144.21Z"/></g><g id="Grass"><path class="cls-3" d="M96,205.23c-3,1-5,2-6,5-1-6,1-8,1-8a28,28,0,0,0-5,8,20.69,20.69,0,0,0-2-8c0,3-2,10-2,10,0-3-2-7-2-7,0,2-2,7-2,7a19.57,19.57,0,0,1-1-10h0a28.29,28.29,0,0,0-3,6c0-5-2-7-2-7h0a53.84,53.84,0,0,1-1,8c-2-6-6-8-6-8h0a81.44,81.44,0,0,1,2,9h0a17.16,17.16,0,0,1-4-6,35.36,35.36,0,0,0,1,6,30.79,30.79,0,0,0-6-6h0a32.24,32.24,0,0,0,2,6c-3-2-3-4-3-4h0c-1,1-1,5-1,5-1-6-4-8-4-8,1,3,1,9,1,9-1-2-2-4-4-5,.5,2.5,2.2,6.79,2,8a7.81,7.81,0,0,0-4-4c-.16.56,1.13,5.35,1,6-1,5,52,8,52,2-.11-.22-1-2,1-7-2,1-3,2-4,5-.6-2,.48-6.42,1-9-2,1-3,3-4,6C94,214.23,93,208.23,96,205.23Z"/></g></g></g></g></svg>