<svg xmlns="http://www.w3.org/2000/svg" viewBox="0 0 126.15 224.46"><defs><style>.cls-1{fill:#87914c;}.cls-2{fill:#56631e;}.cls-3{fill:#896942;}</style></defs><title>Cactus 2</title><g id="Layer_2" data-name="Layer 2"><g id="Page_2" data-name="Page 2"><g id="Cactus"><path class="cls-1" d="M49.69,2.66c0,.95-2,177.57-2,213.47H52V1.47A16.93,16.93,0,0,0,49.69,2.66Z"/><path class="cls-2" d="M8.15,125.13l.17-.35c-3.71.85-7.17,4.37-7.17,11.35,0,32-2.54,38.07,40.73,38.07H42c.1,24.55.2,41.93.2,41.93h5.5c0-8.65.11-25.45.29-46h-.79C12.15,168.13,8.15,165.33,8.15,125.13Z"/><path class="cls-1" d="M50.15,164.13H48q0,3-.06,6h2.21Z"/><path class="cls-1" d="M47.15,164.13c-33,0-35-1-37-39v-.56a8.16,8.16,0,0,0-1.83.21l-.17.35c0,40.2,4,43,39,45h.79q0-3,.06-6Z"/><path class="cls-2" d="M7.15,33.41h0c-3.4.67-6.56,3.43-7,8.72-1,70,2.11,69.5,41.55,69.5l0,0c0,15.75.08,31.61.14,46.05-21.73,0-24.73-.5-24.73-26.5,0-4.12-3.36-6.56-7-6.56v.56c2,38,4,39,37,39H48c.16-18,.36-38.41.57-58.5C3.11,105.62,7.15,96.1,7.15,33.41Z"/><path class="cls-2" d="M48.63,100h0c.52-50.18,1.06-96.82,1.06-97.3a16.07,16.07,0,0,0-7.54,13.47c-.4,8.75-.48,42.15-.44,79.22-27.54,0-25.56-2.5-25.56-55.22,0-4.11-3.13-6.54-6.62-6.84h0C9.53,100.45,9.15,100.13,48.63,100Z"/><path class="cls-1" d="M50.15,103.13,48.63,100l-.06,5.67h.06Z"/><path class="cls-1" d="M48.63,100c-39.48.17-39.1.49-39.1-66.67h0a8.66,8.66,0,0,0-2.38.12h0c0,62.69-4,72.21,41.42,72.22l.06-5.67Z"/><path class="cls-1" d="M70.19,3.36c-1,157.77-1.54,212.77-1.54,212.77h4V5.43A18.48,18.48,0,0,0,70.19,3.36Z"/><path class="cls-2" d="M63.92.56,62.4,216.13h6.25s.5-55,1.54-212.77A18.48,18.48,0,0,0,63.92.56Z"/><path class="cls-2" d="M61.08.08A19,19,0,0,0,52,1.47V216.13H57.9L61.08.08Z"/><path class="cls-1" d="M61.08.08h0L57.9,216.13h4.5L63.92.56A19.82,19.82,0,0,0,61.08.08Z"/><path class="cls-2" d="M119.15,54.75h0c0,127.38-4,127.2-46.5,127.2v34.18h5.5V187.32c48,1.51,48-3.19,48-122.19A10.55,10.55,0,0,0,119.15,54.75Z"/><path class="cls-2" d="M115.45,54.17h0c-3.87.15-7.3,2.72-7.3,8,0,105-2,105.25-30,105.25V19.13c-.24-6-2.38-10.54-5.5-13.7V175.52C111.15,173.13,114.15,182.13,115.45,54.17Z"/><path class="cls-1" d="M70.15,179.13l2.5,2.82v-6.43Z"/><path class="cls-1" d="M119.15,54.75h0a10,10,0,0,0-3.7-.58h0c-1.3,128-4.3,119-42.8,121.35V182C115.15,182,119.15,182.13,119.15,54.75Z"/><path class="cls-3" d="M82.15,207.13c-3,1-5,2-6,5-1-6,1-8,1-8a28,28,0,0,0-5,8,20.69,20.69,0,0,0-2-8c0,3-2,10-2,10,0-3-2-7-2-7,0,2-2,7-2,7a19.57,19.57,0,0,1-1-10h0a28.29,28.29,0,0,0-3,6c0-5-2-7-2-7h0a53.84,53.84,0,0,1-1,8c-2-6-6-8-6-8h0a81.44,81.44,0,0,1,2,9h0a17.16,17.16,0,0,1-4-6,35.36,35.36,0,0,0,1,6,30.79,30.79,0,0,0-6-6h0a32.24,32.24,0,0,0,2,6c-3-2-3-4-3-4h0c-1,1-1,5-1,5-1-6-4-8-4-8,1,3,1,9,1,9-1-2-2-4-4-5,.49,2.49,2.2,6.78,2,8a7.81,7.81,0,0,0-4-4c-.17.55,1.13,5.34,1,6-1,5,52,8,52,2-.12-.23-1-2,1-7-2,1-3,2-4,5-.6-2,.48-6.42,1-9-2,1-3,3-4,6C80.15,216.13,79.15,210.13,82.15,207.13Z"/></g></g></g></svg>