<svg xmlns="http://www.w3.org/2000/svg" viewBox="0 0 223.92 215.63"><defs><style>.cls-1{fill:#fcef00;}.cls-2{fill:#68bdb0;}.cls-3{fill:#2fa493;}.cls-4{fill:#ca6cc3;}.cls-5{fill:#ad1ca3;}.cls-6{fill:#579dc4;}.cls-7{fill:#1b7aaf;}</style></defs><title>Candles</title><g id="Layer_2" data-name="Layer 2"><g id="Page_4" data-name="Page 4"><g id="Items"><g id="Candles"><g id="Candle_1" data-name="Candle 1"><path class="cls-1" d="M40.37,79.36c-2.4,12.8-14.4,25.6-25.6,8s8.8-44,12.8-44.8C33.17,65.76,42,69.76,40.37,79.36Z"/><path d="M24.73,99.48A46.47,46.47,0,0,1,26,87.36c.8-1.6,2.4-.8,1.6.8s-1.21,10-1,11.79S24.73,99.48,24.73,99.48Z"/><path class="cls-2" d="M43.57,110.56c1.6-8.8-5.6-7.2-9.6-6.4s-15.2-4-20.8-3.2-4.8,7.2-4.8,7.2c2.07,17.21,4.12,30.26-.43,33.57h0a207.86,207.86,0,0,1,3.63,22.42s1.6,12.8-6.4,8v35.2c5.6,9.6,36,11.2,41.6-.8v-74.4C43.57,132.16,42,119.36,43.57,110.56Z"/><path class="cls-3" d="M11.57,164.16a207.86,207.86,0,0,0-3.63-22.42h0a4.56,4.56,0,0,1-2.77.83s-7.2,23.2,0,29.6C13.17,177,11.57,164.16,11.57,164.16Z"/><path class="cls-3" d="M46.77,101c-2.4-4-12.8,1.6-22.4-1.6s-19.2-.8-20.8,2.4c-1.5,3-7.24,30.75,0,39.39a7.41,7.41,0,0,0,1.56,1.41,4.56,4.56,0,0,0,2.77-.83c4.55-3.31,2.5-16.36.43-33.57,0,0-.8-6.4,4.8-7.2s16.8,4,20.8,3.2,11.2-2.4,9.6,6.4,0,21.6,3.2,21.6C54.77,132.16,49.17,105,46.77,101Z"/></g><g id="Candle_2" data-name="Candle 2"><path class="cls-1" d="M134.1,46c-3,16-18,32-32,10s11-55,16-56C125.1,29,136.1,34,134.1,46Z"/><path d="M114.55,71.14A58,58,0,0,1,116.1,56c1-2,3-1,2,1s-1.52,12.46-1.26,14.73S114.55,71.14,114.55,71.14Z"/><path class="cls-4" d="M138.1,85c2-11-7-9-12-8s-19-5-26-4-6,9-6,9c2.58,21.51,5.15,37.82-.55,42h0s3.54,16,4.54,28c0,0,2,16-8,10v44c7,12,45,14,52-1V112C138.1,112,136.1,96,138.1,85Z"/><path class="cls-5" d="M98.1,152c-1-12-4.54-28-4.54-28h0a5.7,5.7,0,0,1-3.45,1s-9,29,0,37C100.1,168,98.1,152,98.1,152Z"/><path class="cls-5" d="M142.1,73c-3-5-16,2-28-2s-24-1-26,3c-1.88,3.76-9.06,38.43.05,49.23A9.31,9.31,0,0,0,90.1,125a5.7,5.7,0,0,0,3.45-1c5.7-4.15,3.13-20.46.55-42,0,0-1-8,6-9s21,5,26,4,14-3,12,8,0,27,4,27C152.1,112,145.1,78,142.1,73Z"/></g><g id="Candle_3" data-name="Candle 3"><path class="cls-1" d="M183.55,79.36c2.4,12.8,14.4,25.6,25.6,8s-8.8-44-12.8-44.8C190.75,65.76,182,69.76,183.55,79.36Z"/><path d="M199.19,99.48A46.47,46.47,0,0,0,198,87.36c-.8-1.6-2.4-.8-1.6.8s1.21,10,1,11.79S199.19,99.48,199.19,99.48Z"/><path class="cls-6" d="M180.35,110.56c-1.6-8.8,5.6-7.2,9.6-6.4s15.2-4,20.8-3.2,4.8,7.2,4.8,7.2c-2.06,17.21-4.12,30.26.44,33.57h0a207.86,207.86,0,0,0-3.63,22.42s-1.6,12.8,6.4,8v35.2c-5.6,9.6-36,11.2-41.6-.8v-74.4C180.35,132.16,182,119.36,180.35,110.56Z"/><path class="cls-7" d="M212.35,164.16A207.86,207.86,0,0,1,216,141.74h0a4.52,4.52,0,0,0,2.76.83s7.2,23.2,0,29.6C210.75,177,212.35,164.16,212.35,164.16Z"/><path class="cls-7" d="M177.15,101c2.4-4,12.8,1.6,22.4-1.6s19.2-.8,20.8,2.4c1.51,3,7.25,30.75,0,39.39a7.41,7.41,0,0,1-1.56,1.41,4.52,4.52,0,0,1-2.76-.83c-4.56-3.31-2.5-16.36-.44-33.57,0,0,.8-6.4-4.8-7.2s-16.8,4-20.8,3.2-11.2-2.4-9.6,6.4,0,21.6-3.2,21.6C169.15,132.16,174.75,105,177.15,101Z"/></g></g></g></g></g></svg>