<svg xmlns="http://www.w3.org/2000/svg" viewBox="0 0 107 193.42"><defs><style>.cls-1{fill:#b6a86d;}.cls-2{fill:none;stroke:#a5944c;stroke-miterlimit:10;}</style></defs><title>Cross</title><g id="Layer_2" data-name="Layer 2"><g id="Page_4" data-name="Page 4"><g id="Items"><g id="Cross"><path class="cls-1" d="M107,75.45V56.24H61.73V0H45.27V56.24H0V75.45H45.27v89a30.17,30.17,0,0,0-22,29H83.68a30.17,30.17,0,0,0-22-29v-89Z"/><line class="cls-2" x1="57.5" y1="165.96" x2="57.5" y2="106.96"/><line class="cls-2" x1="49.5" y1="148.96" x2="49.5" y2="96.96"/><line class="cls-2" x1="53.5" y1="157.96" x2="53.5" y2="101.96"/><line class="cls-2" x1="49" y1="5.46" x2="49" y2="26.46"/><line class="cls-2" x1="53" y1="10.46" x2="53" y2="30.46"/><line class="cls-2" x1="57" y1="15.46" x2="57" y2="33.46"/><line class="cls-2" x1="84" y1="60.46" x2="100" y2="60.46"/><line class="cls-2" x1="92" y1="64.46" x2="100" y2="64.46"/><line class="cls-2" x1="5" y1="72.46" x2="24" y2="72.46"/><line class="cls-2" x1="5" y1="68.46" x2="14" y2="68.46"/><path class="cls-2" d="M37,174.46c-5,4-7,13-7,15"/><path class="cls-2" d="M37,179.46c-2,3-4,6-4,10"/></g></g></g></g></svg>