<svg xmlns="http://www.w3.org/2000/svg" viewBox="0 0 656.1 410"><defs><style>.cls-1{fill:#f8dba3;}.cls-2{fill:#d95734;}.cls-3{fill:#b2482d;}.cls-4{fill:none;stroke:#d2b78c;stroke-miterlimit:10;stroke-width:2px;}.cls-5{fill:#593d26;}.cls-6{opacity:0.7;}</style></defs><title>House</title><g id="Layer_2" data-name="Layer 2"><g id="Page_2" data-name="Page 2"><g id="House"><rect class="cls-1" x="18.1" y="150" width="638" height="260"/><polygon class="cls-2" points="9.1 150 656.1 150 656.1 0 49.35 0 9.1 150"/><rect class="cls-3" x="323.1" width="6" height="163"/><polygon class="cls-3" points="275.17 163 269.17 163 277.03 0 283.03 0 275.17 163"/><polygon class="cls-3" points="221.21 163 215.21 163 230.98 0 236.98 0 221.21 163"/><polygon class="cls-3" points="167.22 163 161.22 163 184.97 0 190.97 0 167.22 163"/><polygon class="cls-3" points="113.15 163 107.15 163 139.04 0 145.04 0 113.15 163"/><polygon class="cls-3" points="59 163 53 163 93.19 0 99.19 0 59 163"/><polygon class="cls-3" points="6 163 0 163 43.19 0 49.19 0 6 163"/><rect class="cls-3" x="372.6" width="6" height="163"/><polygon class="cls-3" points="432.53 163 426.53 163 418.67 0 424.67 0 432.53 163"/><polygon class="cls-3" points="486.48 163 480.48 163 464.71 0 470.71 0 486.48 163"/><polygon class="cls-3" points="540.48 163 534.48 163 510.72 0 516.72 0 540.48 163"/><polygon class="cls-3" points="594.54 163 588.54 163 556.65 0 562.65 0 594.54 163"/><polygon class="cls-3" points="648.69 163 642.69 163 602.5 0 608.5 0 648.69 163"/><polygon class="cls-3" points="656.1 0 651 0 656.1 19.23 656.1 0"/><line class="cls-4" x1="18.1" y1="170" x2="656.1" y2="170"/><line class="cls-4" x1="18.1" y1="190" x2="656.1" y2="190"/><line class="cls-4" x1="18.1" y1="210" x2="656.1" y2="210"/><line class="cls-4" x1="18.1" y1="230" x2="656.1" y2="230"/><line class="cls-4" x1="18.1" y1="250" x2="656.1" y2="250"/><line class="cls-4" x1="18.1" y1="270" x2="656.1" y2="270"/><line class="cls-4" x1="18.1" y1="290" x2="656.1" y2="290"/><line class="cls-4" x1="18.1" y1="310" x2="656.1" y2="310"/><line class="cls-4" x1="18.1" y1="330" x2="656.1" y2="330"/><line class="cls-4" x1="18.1" y1="350" x2="656.1" y2="350"/><line class="cls-4" x1="18.1" y1="370" x2="656.1" y2="370"/><line class="cls-4" x1="18.1" y1="390" x2="656.1" y2="390"/><line class="cls-4" x1="18.1" y1="409" x2="656.1" y2="409"/><path class="cls-5" d="M262.1,235h150a6,6,0,0,1,6,6V410a0,0,0,0,1,0,0h-162a0,0,0,0,1,0,0V241A6,6,0,0,1,262.1,235Z"/><path class="cls-6" d="M270.2,243.38H404a6,6,0,0,1,6,6V410a0,0,0,0,1,0,0H264.2a0,0,0,0,1,0,0V249.38A6,6,0,0,1,270.2,243.38Z"/><rect class="cls-5" x="491.1" y="231" width="86" height="86" rx="6" ry="6"/><rect class="cls-6" x="498.1" y="238" width="72" height="72" rx="2" ry="2" transform="translate(808.1 -260.1) rotate(90)"/><rect class="cls-5" x="91.1" y="231" width="86" height="86" rx="6" ry="6"/><rect class="cls-6" x="98.1" y="238" width="72" height="72" rx="2" ry="2" transform="translate(408.1 139.9) rotate(90)"/><polyline class="cls-4" points="88.1 409 88.1 390 136.76 390 185.43 390 185.43 409"/><line class="cls-4" x1="136.76" y1="370" x2="136.76" y2="390"/><line class="cls-4" x1="88.1" y1="370" x2="88.1" y2="350"/><polyline class="cls-4" points="185.43 370 185.43 350 136.76 350 136.76 330"/><line class="cls-4" x1="185.43" y1="330" x2="185.43" y2="310"/><line class="cls-4" x1="88.1" y1="330" x2="88.1" y2="310"/><line class="cls-4" x1="136.76" y1="230" x2="136.76" y2="210"/><line class="cls-4" x1="136.76" y1="190" x2="136.76" y2="170"/><line class="cls-4" x1="88.1" y1="290" x2="88.1" y2="270"/><line class="cls-4" x1="88.1" y1="250" x2="88.1" y2="230"/><line class="cls-4" x1="88.1" y1="210" x2="88.1" y2="190"/><line class="cls-4" x1="88.1" y1="170" x2="88.1" y2="150"/><line class="cls-4" x1="185.43" y1="290" x2="185.43" y2="270"/><line class="cls-4" x1="185.43" y1="250" x2="185.43" y2="230"/><line class="cls-4" x1="185.43" y1="210" x2="185.43" y2="190"/><line class="cls-4" x1="185.43" y1="170" x2="185.43" y2="150"/><line class="cls-4" x1="49.19" y1="390" x2="49.19" y2="370"/><line class="cls-4" x1="49.19" y1="350" x2="49.19" y2="330"/><line class="cls-4" x1="49.19" y1="310" x2="49.19" y2="290"/><line class="cls-4" x1="49.19" y1="270" x2="49.19" y2="250"/><line class="cls-4" x1="49.19" y1="230" x2="49.19" y2="210"/><line class="cls-4" x1="49.19" y1="190" x2="49.19" y2="170"/><line class="cls-4" x1="224.76" y1="390" x2="224.76" y2="370"/><line class="cls-4" x1="224.76" y1="350" x2="224.76" y2="330"/><line class="cls-4" x1="224.76" y1="310" x2="224.76" y2="290"/><line class="cls-4" x1="224.76" y1="270" x2="224.76" y2="250"/><line class="cls-4" x1="224.76" y1="230" x2="224.76" y2="210"/><line class="cls-4" x1="224.76" y1="190" x2="224.76" y2="170"/><line class="cls-4" x1="264.2" y1="190" x2="264.2" y2="210"/><line class="cls-4" x1="264.2" y1="170" x2="264.2" y2="150"/><line class="cls-4" x1="264.2" y1="230" x2="264.2" y2="235"/><line class="cls-4" x1="304.43" y1="210" x2="304.43" y2="230"/><line class="cls-4" x1="304.1" y1="190" x2="304.1" y2="170"/><line class="cls-4" x1="348.76" y1="190" x2="348.76" y2="210"/><line class="cls-4" x1="349.1" y1="231" x2="349.1" y2="235"/><line class="cls-4" x1="348.76" y1="170" x2="348.76" y2="150"/><line class="cls-4" x1="392.43" y1="170" x2="392.43" y2="190"/><line class="cls-4" x1="392.43" y1="210" x2="392.43" y2="230"/><line class="cls-4" x1="436.76" y1="190" x2="436.76" y2="210"/><line class="cls-4" x1="436.76" y1="170" x2="436.76" y2="150"/><line class="cls-4" x1="436.76" y1="230" x2="436.76" y2="250"/><line class="cls-4" x1="436.76" y1="270" x2="436.76" y2="290"/><line class="cls-4" x1="436.76" y1="310" x2="436.76" y2="330"/><line class="cls-4" x1="436.76" y1="350" x2="436.76" y2="370"/><line class="cls-4" x1="436.76" y1="390" x2="436.76" y2="409"/><line class="cls-4" x1="479.76" y1="170" x2="479.76" y2="190"/><line class="cls-4" x1="479.76" y1="210" x2="479.76" y2="230"/><line class="cls-4" x1="479.76" y1="250" x2="479.76" y2="270"/><line class="cls-4" x1="479.76" y1="290" x2="479.76" y2="310"/><line class="cls-4" x1="479.76" y1="330" x2="479.76" y2="350"/><line class="cls-4" x1="479.76" y1="370" x2="479.76" y2="390"/><line class="cls-4" x1="525.6" y1="170" x2="525.6" y2="150"/><line class="cls-4" x1="525.6" y1="190" x2="525.6" y2="210"/><line class="cls-4" x1="525.6" y1="330" x2="525.6" y2="317"/><line class="cls-4" x1="525.6" y1="350" x2="525.6" y2="370"/><line class="cls-4" x1="525.6" y1="390" x2="525.6" y2="409"/><line class="cls-4" x1="572.8" y1="170" x2="572.8" y2="190"/><line class="cls-4" x1="572.8" y1="210" x2="572.8" y2="230"/><line class="cls-4" x1="572.8" y1="330" x2="572.8" y2="350"/><line class="cls-4" x1="572.8" y1="370" x2="572.8" y2="390"/><line class="cls-4" x1="622.1" y1="170" x2="622.1" y2="150"/><line class="cls-4" x1="622.1" y1="190" x2="622.1" y2="210"/><line class="cls-4" x1="622.1" y1="231" x2="622.1" y2="250"/><line class="cls-4" x1="622.1" y1="270" x2="622.1" y2="290"/><line class="cls-4" x1="622.1" y1="310" x2="622.1" y2="330"/><line class="cls-4" x1="622.1" y1="350" x2="622.1" y2="370"/><line class="cls-4" x1="622.1" y1="390" x2="622.1" y2="409"/></g></g></g></svg>