<svg xmlns="http://www.w3.org/2000/svg" viewBox="0 0 244.19 171.42"><defs><style>.cls-1{fill:#f8af5c;}.cls-2{fill:#f69220;}.cls-3{fill:#1b7aaf;}.cls-4{fill:#724a99;}.cls-5{fill:#fabd79;}.cls-6{fill:#f79e38;}.cls-7{fill:#ad1ca3;}.cls-8{fill:#2fa493;}.cls-9{fill:#fff;}</style></defs><title>Maracas</title><g id="Layer_2" data-name="Layer 2"><g id="Page_4" data-name="Page 4"><g id="Items"><g id="Maracas"><path class="cls-1" d="M136.35,80.93l-.56.43C75.26,128.05,28,168.29,30.32,171.25S83.51,138.74,144,92.06l.57-.44a52.61,52.61,0,0,1-8.25-10.69Z"/><path class="cls-2" d="M132.85,33.62a53.73,53.73,0,0,0,2.7,45.91c.26.47.53.94.8,1.4a52.61,52.61,0,0,0,8.25,10.69c.38.38.76.76,1.15,1.13A53.76,53.76,0,0,0,192,106.64C163.1,87.29,140.5,62.26,132.85,33.62Z"/><path class="cls-3" d="M210.25,95l-14.61,1.32.94-13.52-18.22,1.26,3.42-14L164.25,72.2l7.11-14.73-19.14-.86,9.93-14.77L143.9,40.29l8-15.41-12.05-3.62a53.38,53.38,0,0,0-7,12.36c7.65,28.64,30.25,53.67,59.15,73a53.43,53.43,0,0,0,18.79-7.13Z"/><path class="cls-2" d="M235.09,65.56a53.65,53.65,0,0,0-6.49-39.73,54.44,54.44,0,0,0-3.37-4.93,55.24,55.24,0,0,0-3.92-4.52A53.7,53.7,0,0,0,182.7,0C212.41,22.26,221.88,35.65,235.09,65.56Z"/><path class="cls-2" d="M221.59,60,205,64.22l7.53-17.88-16.81,5.85,10.34-17.92L186,37.7l8-15.42-20.58,1,7.11-14.73L167,7.57l-.18-5.18a53.75,53.75,0,0,0-26.94,18.87l12.05,3.62-8,15.41,18.25,1.55-9.93,14.77,19.14.86L164.25,72.2l17.53-2.15-3.42,14,18.22-1.26-.94,13.52L210.25,95l.54,4.52a56.29,56.29,0,0,0,4.71-3.24,53.58,53.58,0,0,0,14.78-17.62l-12.41-2.34Z"/><path class="cls-4" d="M182.7,0a53.47,53.47,0,0,0-15.91,2.39L167,7.57l13.52.94-7.11,14.73,20.58-1L186,37.7l20.1-3.43L195.71,52.19l16.81-5.85L205,64.22,221.59,60l-3.72,16.36,12.41,2.34a53.93,53.93,0,0,0,4.81-13.09C221.88,35.65,212.41,22.26,182.7,0Z"/><path class="cls-5" d="M136.74,105.19l-.7.1C60.38,116.19-.53,128,0,131.7s62.3-2.15,138-13l.71-.1a55.1,55.1,0,0,1-1.39-6.62A53.52,53.52,0,0,1,136.74,105.19Z"/><path class="cls-6" d="M157,62.28a53.78,53.78,0,0,0-20.22,41.3c0,.54,0,1.08,0,1.61a53.52,53.52,0,0,0,.54,6.75,55.1,55.1,0,0,0,1.39,6.62c.14.52.28,1,.44,1.55a53.76,53.76,0,0,0,33.45,34.83C156.91,123.89,149.54,91,157,62.28Z"/><path class="cls-7" d="M194.18,153.77l-13.38-6,7.47-11.31-16.48-7.86,9.86-10.51-16.32-6.75L178.77,102,162.52,91.82l15.91-8L163.3,73.52,177.85,64,169.13,55A53.49,53.49,0,0,0,157,62.28c-7.41,28.69,0,61.61,15.61,92.66a53.4,53.4,0,0,0,19.87,3Z"/><path class="cls-6" d="M230.28,140.36a53.72,53.72,0,0,0,13.89-37.78,54.73,54.73,0,0,0-.52-6A53.91,53.91,0,0,0,216.9,57.52C231.83,91.51,233.49,107.82,230.28,140.36Z"/><path class="cls-6" d="M221.28,128.84l-16.55-4.44,15.34-11.88-17.51-3.16,17.82-10.52-19.19-6.9,14.55-9.49-18.39-9.29,13.44-9.32-11.31-7.47,2.39-4.6A53.89,53.89,0,0,0,169.13,55L177.85,64,163.3,73.52l15.13,10.32-15.91,8L178.77,102l-13.44,9.32,16.32,6.75-9.86,10.51,16.48,7.86-7.47,11.31,13.38,6-1.75,4.2a55.35,55.35,0,0,0,5.69-.5,53.61,53.61,0,0,0,21.53-8.07L210,141.26Z"/><path class="cls-8" d="M216.9,57.52a53.53,53.53,0,0,0-15-5.75l-2.39,4.6,11.31,7.47-13.44,9.32,18.39,9.29-14.55,9.49,19.19,6.9-17.82,10.52,17.51,3.16L204.73,124.4l16.55,4.44L210,141.26l9.65,8.14a54.24,54.24,0,0,0,10.63-9C233.49,107.82,231.83,91.51,216.9,57.52Z"/><circle class="cls-9" cx="193.64" cy="102.47" r="3.94"/><circle class="cls-9" cx="194.11" cy="120.58" r="3.94"/><circle class="cls-9" cx="199.76" cy="138.96" r="3.94"/><circle class="cls-9" cx="188.5" cy="80.14" r="3.94"/><circle class="cls-9" cx="188.37" cy="62.48" r="3.94"/><circle class="cls-9" cx="159.18" cy="18.19" r="3.94"/><circle class="cls-9" cx="169.84" cy="32.01" r="3.94"/><circle class="cls-9" cx="179.8" cy="44.92" r="3.94"/></g></g></g></g></svg>