<svg xmlns="http://www.w3.org/2000/svg" viewBox="0 0 2732.38 592.54"><defs><style>.cls-1{fill:#f1a873;}.cls-2{fill:#f18959;}.cls-3{fill:#bf4d2e;}.cls-4{fill:#953d18;}</style></defs><title>Mountains</title><g id="Layer_2" data-name="Layer 2"><g id="Page_1" data-name="Page 1"><path id="Mountain_4" data-name="Mountain 4" class="cls-1" d="M2643.38,21.54c-20,2-27,15-28,38s-46,34-52,29-4-22-5-25-16-4-19,7-6,7-13,12c0,0-39,9-40-4,2-45-1-57-11-61-33-10-88,15-101,21s-24-10-51-15-86-3-92,4c0,0-15,18-14,28,0,0-4,73-13,72,0,0-36,0-49,3,0,0-44,8-68,7s-48,50-49,58-38,13-44,15-6-3-9-11-23-14-24,0-13,12-51.28,8l-174.72,115-192-12-502-63V217.65s-16,2.89-18-9.11a265.33,265.33,0,0,0-13-75s-55-21-92-22c0,0-57,3-82,21,0,0-37,20-64,4a66.76,66.76,0,0,1-11-19c-4-11-9-6-19,9,0,0-64,12-65-10,0,0-7-104-21-111s-72-11-78,11c0,0-21,48-36,40,0,0-21-13-35-14,0,0-9,2-14,14,0,0-13,12-23-1,0,0-15-25-32-23,0,0-91,11-107.38,24.31l.38,313.69h710v-1.69c202.25,26.85,552,223.69,552,223.69h1139v-565S2663.38,19.54,2643.38,21.54Z"/><path id="Mountain_3" data-name="Mountain 3" class="cls-2" d="M2104.38,261.54c-20-2-58,8-73,14s-5.88,22.83-92,15c-22-2-20-5-21-17-4.19-50.32-19.48-147.93-34-150,0,0-11-5-46-7,0,0-47-5-61,11,0,0-34,12-38-4,0,0,1-30-5-36,0,0-25-17-30,0s-4,29-32,27-55,6-75.07,25.26l-66.93,123.74-516,68H953.81v-21.3s-13.43,5.3-18.43-11.7c0,0-17-21-59-27s-84-4-109,17c0,0-17,7-29-3,0,0-7-26-17-34,0,0-24-9-31,2,0,0-3,12-34,13-50.25,2.25-120.65-21.44-156-31-10.52-2.85-36.33,12.74-42.63,13.45-2.26.25-4.38,1.19-6.62,1.54-37.75,6-43.75,9.62-43.75-35,0,0-26-153-49-148,0,0-34-19-72-15,0,0-24-2-28-13s-24-17-32-6c0,0-22,9-35,15,0,0-70-1-80,24,0,0-27,27-61,26s-40,36-50,62.07V521.54H713c-4.2,5.69-6.6,9.26-6.6,10,0,6,1404-29,1404-29l21-88S2124.38,263.54,2104.38,261.54Z"/><path id="Mountain_2" data-name="Mountain 2" class="cls-3" d="M1978.38,434.54c-13-18-51-38-79-44s-31,12-57-1c-16-8-30-22-35-42a181.85,181.85,0,0,1-6-49c.33-18.65-29.55-19.83-32-28,0,0-17-37-24-63s-159-75-197-79c0,0-69-9-71,12,0,0,2,41-11,52,0,0-19,15-20,6,0,0,3-19-5-30,0,0-13-18-24-20s-16-11-16-31-5-46-35-47c-12,0-27,3-31,15,0,0-8,51-14,63,0,0-14,1-20,5s-16,6-23,0-19-10-20,1c0,0,3,16-23,13s-44,1-56,13c0,0-8,13-20,20,0,0-72,18-108,17s-38,12-38,20c0,0-7-1-12,0,0,0-6,4-6,28,0,0-24,0-35,9,0,0-13,66.48-21.2,128.84a15.5,15.5,0,0,1-16.08,13.45c-25.93-1.17-79-3-88.72.71,0,0-17,6-26.87,37.53l-.13,119.47h533.9l-.9,18,773-43v-111S1991.38,452.54,1978.38,434.54Z"/><path id="Mountain_1" data-name="Mountain 1" class="cls-4" d="M2416.38,585.54s-49.38-1.09-127.25-2.87c-45.53-27.57-172-103.49-186.75-105.13-18-2-53,18-105,19,0,0-109,7-138-11s-148-30-162-25-21,21-34,25c0,0-20,7-25,6s-6-8-6-12-3-10-10-6a17.8,17.8,0,0,1-10,7s-7,2-13-6c0,0-4-5-16-9-49-7-72,52-92,52s-38,6-46,15c0,0-33,28-55.65,26.91h0c-45.84-1.63-74.26-3-77.35-3.91-18.3-5.49-53-25-67-28,0,0-20-6-29-1,0,0-13,4-22,1,0,0-13-6-13,3,0,0,4,17-14,13,0,0-72-30-99-28,0,0-75,6-96-5,0,0-68-38-117-45,0,0-71-20-126-16,0,0-56,0-74-9,0,0-8-23-16-31,0,0-13-2-16,4,0,0-8,16-23,21,0,0-10-4-17-10,0,0-10-5-10,1,0,0-2,13-15,13,0,0-149,0-164,19,0,0-9,11-37,7,0,0-66-25-95-36,0,0-67-13-80-14s-27-2-35,0-14,17-28,14c0,0-82-3-119,14.5L0,574l1389.43,6.62,0,2.9,916,9s-4.62-2.83-12.48-7.59Z"/></g></g></svg>