<svg xmlns="http://www.w3.org/2000/svg" viewBox="0 0 1366 768"><defs><style>.cls-1{fill:#b41923;}.cls-2{fill:#990c05;}.cls-3{fill:#3c0107;}.cls-4{fill:#870d02;}.cls-5{fill:#540203;}.cls-6{fill:#f69220;}.cls-7{fill:#b40110;}.cls-8{fill:#670a16;}.cls-9{fill:#c22e39;}</style></defs><title>Background</title><g id="Layer_2" data-name="Layer 2"><g id="Page_4" data-name="Page 4"><g id="Background"><rect class="cls-1" y="461" width="1366" height="144"/><rect class="cls-2" y="605" width="1366" height="163"/><polygon class="cls-3" points="91 0 0 0 0 433 91 399.85 91 0"/><polygon class="cls-3" points="1275 0 1275 399.85 1366 433 1366 0 1275 0"/><polygon class="cls-4" points="715 400 651 400 91 400 0 433 0 461 651 461 715 461 1366 461 1366 433 1275 400 715 400"/><polygon class="cls-5" points="651 400 715 400 1275 400 1275 0 91 0 91 400 651 400"/><rect class="cls-6" y="461" width="1366" height="42"/><polygon class="cls-5" points="687.3 461 660.59 503.12 687.3 604.67 714 503.12 687.3 461"/><polygon class="cls-5" points="634.3 461 607.59 503.12 634.3 604.67 661 503.12 634.3 461"/><polygon class="cls-5" points="581.3 461 554.59 503.12 581.3 604.67 608 503.12 581.3 461"/><polygon class="cls-5" points="528.3 461 501.59 503.12 528.3 604.67 555 503.12 528.3 461"/><polygon class="cls-5" points="475.3 461 448.59 503.12 475.3 604.67 502 503.12 475.3 461"/><polygon class="cls-5" points="422.3 461 395.59 503.12 422.3 604.67 449 503.12 422.3 461"/><polygon class="cls-5" points="369.3 461 342.59 503.12 369.3 604.67 396 503.12 369.3 461"/><polygon class="cls-5" points="316.3 461 289.59 503.12 316.3 604.67 343 503.12 316.3 461"/><polygon class="cls-5" points="263.3 461 236.59 503.12 263.3 604.67 290 503.12 263.3 461"/><polygon class="cls-5" points="210.3 461 183.59 503.12 210.3 604.67 237 503.12 210.3 461"/><polygon class="cls-5" points="157.3 461 130.59 503.12 157.3 604.67 184 503.12 157.3 461"/><polygon class="cls-5" points="104.3 461 77.59 503.12 104.3 604.67 131 503.12 104.3 461"/><polygon class="cls-5" points="51.3 461 24.59 503.12 51.3 604.67 78 503.12 51.3 461"/><polygon class="cls-5" points="740.3 461 713.59 503.12 740.3 604.67 767 503.12 740.3 461"/><polygon class="cls-5" points="793.3 461 766.59 503.12 793.3 604.67 820 503.12 793.3 461"/><polygon class="cls-5" points="846.3 461 819.59 503.12 846.3 604.67 873 503.12 846.3 461"/><polygon class="cls-5" points="899.3 461 872.59 503.12 899.3 604.67 926 503.12 899.3 461"/><polygon class="cls-5" points="952.3 461 925.59 503.12 952.3 604.67 979 503.12 952.3 461"/><polygon class="cls-5" points="1005.3 461 978.59 503.12 1005.3 604.67 1032 503.12 1005.3 461"/><polygon class="cls-5" points="1058.3 461 1031.59 503.12 1058.3 604.67 1085 503.12 1058.3 461"/><polygon class="cls-5" points="1111.3 461 1084.59 503.12 1111.3 604.67 1138 503.12 1111.3 461"/><polygon class="cls-5" points="1164.3 461 1137.59 503.12 1164.3 604.67 1191 503.12 1164.3 461"/><polygon class="cls-5" points="1217.3 461 1190.59 503.12 1217.3 604.67 1244 503.12 1217.3 461"/><polygon class="cls-5" points="1270.3 461 1243.59 503.12 1270.3 604.67 1297 503.12 1270.3 461"/><polygon class="cls-5" points="1323.3 461 1296.59 503.12 1323.3 604.67 1350 503.12 1323.3 461"/><polygon class="cls-5" points="1366 477.24 1349.59 503.12 1366 565.51 1366 477.24"/><polygon class="cls-5" points="0 463.69 0 598.2 25 503.12 0 463.69"/><polygon class="cls-6" points="1299 366.75 1274.75 400 1323.25 417.5 1299 366.75"/><polygon class="cls-6" points="1366 423.51 1347 383.75 1322.75 417 1366 432.6 1366 423.51"/><polygon class="cls-6" points="67 366.75 91.25 400 42.75 417.5 67 366.75"/><polygon class="cls-6" points="0 423.51 19 383.75 43.25 417 0 432.6 0 423.51"/><g id="Roses"><path class="cls-7" d="M684,66c-7-4-11,0-14,4a20.34,20.34,0,0,1,5,1C677,69,681,66,684,66Z"/><path class="cls-7" d="M692,100a11,11,0,0,1-4,2c-10,3-13,0-16-4-3,1-5,0-7-1-3,11,7,15,9,14s5,0,6,0c0,0,5,0,7-2a1.94,1.94,0,0,1,.55-.38v0S692,104,692,100Z"/><path class="cls-7" d="M705,77c-1-4-7-6-10-6,2,3,4,8,1,13a10.07,10.07,0,0,1-1,3c2,2,5,4,2,10,5-2,5,0,10-6,.31-.37.59-.74.84-1.1C710.48,85.55,707.75,77.92,705,77Z"/><path class="cls-8" d="M687.55,108.62c2-1,4.71,2.21,7.45.38a12.68,12.68,0,0,1,6-1c2,0,5-9,6-17-5,6-5,4-10,6,0,0-4,1-5,3,0,4-4.45,8.6-4.45,8.6Z"/><path class="cls-8" d="M671,91c-1-5-1-3-3-5s-1-8,3-9a28.77,28.77,0,0,1,4-6,20.34,20.34,0,0,0-5-1c-3,0-7,4-10,5-6,3-2,9-3,11s-1,8,8,11c2,1,4,2,7,1C670,95,672,96,671,91Z"/><path class="cls-9" d="M672,98c3,4,6,7,16,4a11,11,0,0,0,4-2c1-2,5-3,5-3,3-6,0-8-2-10a14.93,14.93,0,0,1-6,6c-2,3-14.48,4.53-17.74-.24h0C671.52,95.79,670.28,95.42,672,98Z"/><path class="cls-9" d="M695,71c-2-4-6-5-11-5-3,0-7,3-9,5a28.77,28.77,0,0,0-4,6c5-5,12-5,17,0,7-2,8,4,8,7C699,79,697,74,695,71Z"/><path class="cls-7" d="M668,86c2,2,2,0,3,5a15.34,15.34,0,0,1,.26,1.76h0C674.52,97.53,687,96,689,93c-17,5-20-14-18-16C667,78,666,84,668,86Z"/><path class="cls-8" d="M689,93a14.93,14.93,0,0,0,6-6,10.07,10.07,0,0,0,1-3c0-3-1-9-8-7,3,3,6,14.55-5.45,16.78A17.69,17.69,0,0,0,689,93Z"/><path class="cls-9" d="M689.93,80.32C690,84,683,91,676,91h-.29a11.65,11.65,0,0,0,6.84,2.78C691.3,92.07,691.61,84.93,689.93,80.32Z"/><path class="cls-8" d="M686.12,75.42C681.35,72.08,675.4,72.6,671,77c-1.06,1.06-.71,6.86,2.36,11.35C671.74,77.74,681,76,686.12,75.42Z"/><path class="cls-7" d="M678.65,77.31c-3.48,1.69-6.23,4.85-5.29,11A13.1,13.1,0,0,0,675.71,91H676a15.26,15.26,0,0,0,9.15-3.6C674.36,89.78,676,81,678.65,77.31Z"/><path class="cls-7" d="M689.93,80.32A9.35,9.35,0,0,0,688,77a14.45,14.45,0,0,0-1.88-1.58,23.45,23.45,0,0,0-7.47,1.89c-1.37,1.91-2.46,5.17-1.72,7.55-.92-8.86,15.3-6.7,9.19,1.71C688.45,84.46,690,82,689.93,80.32Z"/><path class="cls-8" d="M686.35,80.52C685.7,85,680,83,677.48,86c1.08,1.55,3.4,2.37,7.67,1.42.34-.27.66-.54,1-.83C688.11,83.84,687.73,81.77,686.35,80.52Z"/><path class="cls-9" d="M686.35,80.52c-2.86-2.59-10-1.64-9.42,4.34a4.17,4.17,0,0,0,.55,1.12C680,83,685.7,85,686.35,80.52Z"/><path class="cls-7" d="M734,59c-7-4-11,0-14,4a20.34,20.34,0,0,1,5,1C727,62,731,59,734,59Z"/><path class="cls-7" d="M742,93a11,11,0,0,1-4,2c-10,3-13,0-16-4-3,1-5,0-7-1-3,11,7,15,9,14s5,0,6,0c0,0,5,0,7-2a1.94,1.94,0,0,1,.55-.38v0S742,97,742,93Z"/><path class="cls-7" d="M755,70c-1-4-7-6-10-6,2,3,4,8,1,13a10.07,10.07,0,0,1-1,3c2,2,5,4,2,10,5-2,5,0,10-6,.31-.37.59-.74.84-1.1C760.48,78.55,757.75,70.92,755,70Z"/><path class="cls-8" d="M737.55,101.62c2-1,4.71,2.21,7.45.38a12.68,12.68,0,0,1,6-1c2,0,5-9,6-17-5,6-5,4-10,6,0,0-4,1-5,3,0,4-4.45,8.6-4.45,8.6Z"/><path class="cls-8" d="M721,84c-1-5-1-3-3-5s-1-8,3-9a28.77,28.77,0,0,1,4-6,20.34,20.34,0,0,0-5-1c-3,0-7,4-10,5-6,3-2,9-3,11s-1,8,8,11c2,1,4,2,7,1C720,88,722,89,721,84Z"/><path class="cls-9" d="M722,91c3,4,6,7,16,4a11,11,0,0,0,4-2c1-2,5-3,5-3,3-6,0-8-2-10a14.93,14.93,0,0,1-6,6c-2,3-14.48,4.53-17.74-.24h0C721.52,88.79,720.28,88.42,722,91Z"/><path class="cls-9" d="M745,64c-2-4-6-5-11-5-3,0-7,3-9,5a28.77,28.77,0,0,0-4,6c5-5,12-5,17,0,7-2,8,4,8,7C749,72,747,67,745,64Z"/><path class="cls-7" d="M718,79c2,2,2,0,3,5a15.34,15.34,0,0,1,.26,1.76h0C724.52,90.53,737,89,739,86c-17,5-20-14-18-16C717,71,716,77,718,79Z"/><path class="cls-8" d="M739,86a14.93,14.93,0,0,0,6-6,10.07,10.07,0,0,0,1-3c0-3-1-9-8-7,3,3,6,14.55-5.45,16.78A17.69,17.69,0,0,0,739,86Z"/><path class="cls-9" d="M739.93,73.32C740,77,733,84,726,84h-.29a11.65,11.65,0,0,0,6.84,2.78C741.3,85.07,741.61,77.93,739.93,73.32Z"/><path class="cls-8" d="M736.12,68.42C731.35,65.08,725.4,65.6,721,70c-1.06,1.06-.71,6.86,2.36,11.35C721.74,70.74,731,69,736.12,68.42Z"/><path class="cls-7" d="M728.65,70.31c-3.48,1.69-6.23,4.85-5.29,11A13.1,13.1,0,0,0,725.71,84H726a15.26,15.26,0,0,0,9.15-3.6C724.36,82.78,726,74,728.65,70.31Z"/><path class="cls-7" d="M739.93,73.32A9.35,9.35,0,0,0,738,70a14.45,14.45,0,0,0-1.88-1.58,23.45,23.45,0,0,0-7.47,1.89c-1.37,1.91-2.46,5.17-1.72,7.55-.92-8.86,15.3-6.7,9.19,1.71C738.45,77.46,740,75,739.93,73.32Z"/><path class="cls-8" d="M736.35,73.52C735.7,78,730,76,727.48,79c1.08,1.55,3.4,2.37,7.67,1.42.34-.27.66-.54,1-.83C738.11,76.84,737.73,74.77,736.35,73.52Z"/><path class="cls-9" d="M736.35,73.52c-2.86-2.59-10-1.64-9.42,4.34a4.17,4.17,0,0,0,.55,1.12C730,76,735.7,78,736.35,73.52Z"/><path class="cls-7" d="M787,57c-7-4-11,0-14,4a20.34,20.34,0,0,1,5,1C780,60,784,57,787,57Z"/><path class="cls-7" d="M795,91a11,11,0,0,1-4,2c-10,3-13,0-16-4-3,1-5,0-7-1-3,11,7,15,9,14s5,0,6,0c0,0,5,0,7-2a1.94,1.94,0,0,1,.55-.38v0S795,95,795,91Z"/><path class="cls-7" d="M808,68c-1-4-7-6-10-6,2,3,4,8,1,13a10.07,10.07,0,0,1-1,3c2,2,5,4,2,10,5-2,5,0,10-6,.31-.37.59-.74.84-1.1C813.48,76.55,810.75,68.92,808,68Z"/><path class="cls-8" d="M790.55,99.62c2-1,4.71,2.21,7.45.38a12.68,12.68,0,0,1,6-1c2,0,5-9,6-17-5,6-5,4-10,6,0,0-4,1-5,3,0,4-4.45,8.6-4.45,8.6Z"/><path class="cls-8" d="M774,82c-1-5-1-3-3-5s-1-8,3-9a28.77,28.77,0,0,1,4-6,20.34,20.34,0,0,0-5-1c-3,0-7,4-10,5-6,3-2,9-3,11s-1,8,8,11c2,1,4,2,7,1C773,86,775,87,774,82Z"/><path class="cls-9" d="M775,89c3,4,6,7,16,4a11,11,0,0,0,4-2c1-2,5-3,5-3,3-6,0-8-2-10a14.93,14.93,0,0,1-6,6c-2,3-14.48,4.53-17.74-.24h0C774.52,86.79,773.28,86.42,775,89Z"/><path class="cls-9" d="M798,62c-2-4-6-5-11-5-3,0-7,3-9,5a28.77,28.77,0,0,0-4,6c5-5,12-5,17,0,7-2,8,4,8,7C802,70,800,65,798,62Z"/><path class="cls-7" d="M771,77c2,2,2,0,3,5a15.34,15.34,0,0,1,.26,1.76h0C777.52,88.53,790,87,792,84c-17,5-20-14-18-16C770,69,769,75,771,77Z"/><path class="cls-8" d="M792,84a14.93,14.93,0,0,0,6-6,10.07,10.07,0,0,0,1-3c0-3-1-9-8-7,3,3,6,14.55-5.45,16.78A17.69,17.69,0,0,0,792,84Z"/><path class="cls-9" d="M792.93,71.32C793,75,786,82,779,82h-.29a11.65,11.65,0,0,0,6.84,2.78C794.3,83.07,794.61,75.93,792.93,71.32Z"/><path class="cls-8" d="M789.12,66.42C784.35,63.08,778.4,63.6,774,68c-1.06,1.06-.71,6.86,2.36,11.35C774.74,68.74,784,67,789.12,66.42Z"/><path class="cls-7" d="M781.65,68.31c-3.48,1.69-6.23,4.85-5.29,11A13.1,13.1,0,0,0,778.71,82H779a15.26,15.26,0,0,0,9.15-3.6C777.36,80.78,779,72,781.65,68.31Z"/><path class="cls-7" d="M792.93,71.32A9.35,9.35,0,0,0,791,68a14.45,14.45,0,0,0-1.88-1.58,23.45,23.45,0,0,0-7.47,1.89c-1.37,1.91-2.46,5.17-1.72,7.55-.92-8.86,15.3-6.7,9.19,1.71C791.45,75.46,793,73,792.93,71.32Z"/><path class="cls-8" d="M789.35,71.52C788.7,76,783,74,780.48,77c1.08,1.55,3.4,2.37,7.67,1.42.34-.27.66-.54,1-.83C791.11,74.84,790.73,72.77,789.35,71.52Z"/><path class="cls-9" d="M789.35,71.52c-2.86-2.59-10-1.64-9.42,4.34a4.17,4.17,0,0,0,.55,1.12C783,74,788.7,76,789.35,71.52Z"/><path class="cls-7" d="M837,54c-7-4-11,0-14,4a20.34,20.34,0,0,1,5,1C830,57,834,54,837,54Z"/><path class="cls-7" d="M845,88a11,11,0,0,1-4,2c-10,3-13,0-16-4-3,1-5,0-7-1-3,11,7,15,9,14s5,0,6,0c0,0,5,0,7-2a1.94,1.94,0,0,1,.55-.38v0S845,92,845,88Z"/><path class="cls-7" d="M858,65c-1-4-7-6-10-6,2,3,4,8,1,13a10.07,10.07,0,0,1-1,3c2,2,5,4,2,10,5-2,5,0,10-6,.31-.37.59-.74.84-1.1C863.48,73.55,860.75,65.92,858,65Z"/><path class="cls-8" d="M840.55,96.62c2-1,4.71,2.21,7.45.38a12.68,12.68,0,0,1,6-1c2,0,5-9,6-17-5,6-5,4-10,6,0,0-4,1-5,3,0,4-4.45,8.6-4.45,8.6Z"/><path class="cls-8" d="M824,79c-1-5-1-3-3-5s-1-8,3-9a28.77,28.77,0,0,1,4-6,20.34,20.34,0,0,0-5-1c-3,0-7,4-10,5-6,3-2,9-3,11s-1,8,8,11c2,1,4,2,7,1C823,83,825,84,824,79Z"/><path class="cls-9" d="M825,86c3,4,6,7,16,4a11,11,0,0,0,4-2c1-2,5-3,5-3,3-6,0-8-2-10a14.93,14.93,0,0,1-6,6c-2,3-14.48,4.53-17.74-.24h0C824.52,83.79,823.28,83.42,825,86Z"/><path class="cls-9" d="M848,59c-2-4-6-5-11-5-3,0-7,3-9,5a28.77,28.77,0,0,0-4,6c5-5,12-5,17,0,7-2,8,4,8,7C852,67,850,62,848,59Z"/><path class="cls-7" d="M821,74c2,2,2,0,3,5a15.34,15.34,0,0,1,.26,1.76h0C827.52,85.53,840,84,842,81c-17,5-20-14-18-16C820,66,819,72,821,74Z"/><path class="cls-8" d="M842,81a14.93,14.93,0,0,0,6-6,10.07,10.07,0,0,0,1-3c0-3-1-9-8-7,3,3,6,14.55-5.45,16.78A17.69,17.69,0,0,0,842,81Z"/><path class="cls-9" d="M842.93,68.32C843,72,836,79,829,79h-.29a11.65,11.65,0,0,0,6.84,2.78C844.3,80.07,844.61,72.93,842.93,68.32Z"/><path class="cls-8" d="M839.12,63.42C834.35,60.08,828.4,60.6,824,65c-1.06,1.06-.71,6.86,2.36,11.35C824.74,65.74,834,64,839.12,63.42Z"/><path class="cls-7" d="M831.65,65.31c-3.48,1.69-6.23,4.85-5.29,11A13.1,13.1,0,0,0,828.71,79H829a15.26,15.26,0,0,0,9.15-3.6C827.36,77.78,829,69,831.65,65.31Z"/><path class="cls-7" d="M842.93,68.32A9.35,9.35,0,0,0,841,65a14.45,14.45,0,0,0-1.88-1.58,23.45,23.45,0,0,0-7.47,1.89c-1.37,1.91-2.46,5.17-1.72,7.55-.92-8.86,15.3-6.7,9.19,1.71C841.45,72.46,843,70,842.93,68.32Z"/><path class="cls-8" d="M839.35,68.52C838.7,73,833,71,830.48,74c1.08,1.55,3.4,2.37,7.67,1.42.34-.27.66-.54,1-.83C841.11,71.84,840.73,69.77,839.35,68.52Z"/><path class="cls-9" d="M839.35,68.52c-2.86-2.59-10-1.64-9.42,4.34a4.17,4.17,0,0,0,.55,1.12C833,71,838.7,73,839.35,68.52Z"/><path class="cls-7" d="M888,52c-7-4-11,0-14,4a20.34,20.34,0,0,1,5,1C881,55,885,52,888,52Z"/><path class="cls-7" d="M896,86a11,11,0,0,1-4,2c-10,3-13,0-16-4-3,1-5,0-7-1-3,11,7,15,9,14s5,0,6,0c0,0,5,0,7-2a1.94,1.94,0,0,1,.55-.38v0S896,90,896,86Z"/><path class="cls-7" d="M909,63c-1-4-7-6-10-6,2,3,4,8,1,13a10.07,10.07,0,0,1-1,3c2,2,5,4,2,10,5-2,5,0,10-6,.31-.37.59-.74.84-1.1C914.48,71.55,911.75,63.92,909,63Z"/><path class="cls-8" d="M891.55,94.62c2-1,4.71,2.21,7.45.38a12.68,12.68,0,0,1,6-1c2,0,5-9,6-17-5,6-5,4-10,6,0,0-4,1-5,3,0,4-4.45,8.6-4.45,8.6Z"/><path class="cls-8" d="M875,77c-1-5-1-3-3-5s-1-8,3-9a28.77,28.77,0,0,1,4-6,20.34,20.34,0,0,0-5-1c-3,0-7,4-10,5-6,3-2,9-3,11s-1,8,8,11c2,1,4,2,7,1C874,81,876,82,875,77Z"/><path class="cls-9" d="M876,84c3,4,6,7,16,4a11,11,0,0,0,4-2c1-2,5-3,5-3,3-6,0-8-2-10a14.93,14.93,0,0,1-6,6c-2,3-14.48,4.53-17.74-.24h0C875.52,81.79,874.28,81.42,876,84Z"/><path class="cls-9" d="M899,57c-2-4-6-5-11-5-3,0-7,3-9,5a28.77,28.77,0,0,0-4,6c5-5,12-5,17,0,7-2,8,4,8,7C903,65,901,60,899,57Z"/><path class="cls-7" d="M872,72c2,2,2,0,3,5a15.34,15.34,0,0,1,.26,1.76h0C878.52,83.53,891,82,893,79c-17,5-20-14-18-16C871,64,870,70,872,72Z"/><path class="cls-8" d="M893,79a14.93,14.93,0,0,0,6-6,10.07,10.07,0,0,0,1-3c0-3-1-9-8-7,3,3,6,14.55-5.45,16.78A17.69,17.69,0,0,0,893,79Z"/><path class="cls-9" d="M893.93,66.32C894,70,887,77,880,77h-.29a11.65,11.65,0,0,0,6.84,2.78C895.3,78.07,895.61,70.93,893.93,66.32Z"/><path class="cls-8" d="M890.12,61.42C885.35,58.08,879.4,58.6,875,63c-1.06,1.06-.71,6.86,2.36,11.35C875.74,63.74,885,62,890.12,61.42Z"/><path class="cls-7" d="M882.65,63.31c-3.48,1.69-6.23,4.85-5.29,11A13.1,13.1,0,0,0,879.71,77H880a15.26,15.26,0,0,0,9.15-3.6C878.36,75.78,880,67,882.65,63.31Z"/><path class="cls-7" d="M893.93,66.32A9.35,9.35,0,0,0,892,63a14.45,14.45,0,0,0-1.88-1.58,23.45,23.45,0,0,0-7.47,1.89c-1.37,1.91-2.46,5.17-1.72,7.55-.92-8.86,15.3-6.7,9.19,1.71C892.45,70.46,894,68,893.93,66.32Z"/><path class="cls-8" d="M890.35,66.52C889.7,71,884,69,881.48,72c1.08,1.55,3.4,2.37,7.67,1.42.34-.27.66-.54,1-.83C892.11,69.84,891.73,67.77,890.35,66.52Z"/><path class="cls-9" d="M890.35,66.52c-2.86-2.59-10-1.64-9.42,4.34a4.17,4.17,0,0,0,.55,1.12C884,69,889.7,71,890.35,66.52Z"/><path class="cls-7" d="M941,51c-7-4-11,0-14,4a20.34,20.34,0,0,1,5,1C934,54,938,51,941,51Z"/><path class="cls-7" d="M949,85a11,11,0,0,1-4,2c-10,3-13,0-16-4-3,1-5,0-7-1-3,11,7,15,9,14s5,0,6,0c0,0,5,0,7-2a1.94,1.94,0,0,1,.55-.38v0S949,89,949,85Z"/><path class="cls-7" d="M962,62c-1-4-7-6-10-6,2,3,4,8,1,13a10.07,10.07,0,0,1-1,3c2,2,5,4,2,10,5-2,5,0,10-6,.31-.37.59-.74.84-1.1C967.48,70.55,964.75,62.92,962,62Z"/><path class="cls-8" d="M944.55,93.62c2-1,4.71,2.21,7.45.38a12.68,12.68,0,0,1,6-1c2,0,5-9,6-17-5,6-5,4-10,6,0,0-4,1-5,3,0,4-4.45,8.6-4.45,8.6Z"/><path class="cls-8" d="M928,76c-1-5-1-3-3-5s-1-8,3-9a28.77,28.77,0,0,1,4-6,20.34,20.34,0,0,0-5-1c-3,0-7,4-10,5-6,3-2,9-3,11s-1,8,8,11c2,1,4,2,7,1C927,80,929,81,928,76Z"/><path class="cls-9" d="M929,83c3,4,6,7,16,4a11,11,0,0,0,4-2c1-2,5-3,5-3,3-6,0-8-2-10a14.93,14.93,0,0,1-6,6c-2,3-14.48,4.53-17.74-.24h0C928.52,80.79,927.28,80.42,929,83Z"/><path class="cls-9" d="M952,56c-2-4-6-5-11-5-3,0-7,3-9,5a28.77,28.77,0,0,0-4,6c5-5,12-5,17,0,7-2,8,4,8,7C956,64,954,59,952,56Z"/><path class="cls-7" d="M925,71c2,2,2,0,3,5a15.34,15.34,0,0,1,.26,1.76h0C931.52,82.53,944,81,946,78c-17,5-20-14-18-16C924,63,923,69,925,71Z"/><path class="cls-8" d="M946,78a14.93,14.93,0,0,0,6-6,10.07,10.07,0,0,0,1-3c0-3-1-9-8-7,3,3,6,14.55-5.45,16.78A17.69,17.69,0,0,0,946,78Z"/><path class="cls-9" d="M946.93,65.32C947,69,940,76,933,76h-.29a11.65,11.65,0,0,0,6.84,2.78C948.3,77.07,948.61,69.93,946.93,65.32Z"/><path class="cls-8" d="M943.12,60.42C938.35,57.08,932.4,57.6,928,62c-1.06,1.06-.71,6.86,2.36,11.35C928.74,62.74,938,61,943.12,60.42Z"/><path class="cls-7" d="M935.65,62.31c-3.48,1.69-6.23,4.85-5.29,11A13.1,13.1,0,0,0,932.71,76H933a15.26,15.26,0,0,0,9.15-3.6C931.36,74.78,933,66,935.65,62.31Z"/><path class="cls-7" d="M946.93,65.32A9.35,9.35,0,0,0,945,62a14.45,14.45,0,0,0-1.88-1.58,23.45,23.45,0,0,0-7.47,1.89c-1.37,1.91-2.46,5.17-1.72,7.55-.92-8.86,15.3-6.7,9.19,1.71C945.45,69.46,947,67,946.93,65.32Z"/><path class="cls-8" d="M943.35,65.52C942.7,70,937,68,934.48,71c1.08,1.55,3.4,2.37,7.67,1.42.34-.27.66-.54,1-.83C945.11,68.84,944.73,66.77,943.35,65.52Z"/><path class="cls-9" d="M943.35,65.52c-2.86-2.59-10-1.64-9.42,4.34a4.17,4.17,0,0,0,.55,1.12C937,68,942.7,70,943.35,65.52Z"/><path class="cls-7" d="M993,45c-7-4-11,0-14,4a20.34,20.34,0,0,1,5,1C986,48,990,45,993,45Z"/><path class="cls-7" d="M1001,79a11,11,0,0,1-4,2c-10,3-13,0-16-4-3,1-5,0-7-1-3,11,7,15,9,14s5,0,6,0c0,0,5,0,7-2a1.94,1.94,0,0,1,.55-.38v0S1001,83,1001,79Z"/><path class="cls-7" d="M1014,56c-1-4-7-6-10-6,2,3,4,8,1,13a10.07,10.07,0,0,1-1,3c2,2,5,4,2,10,5-2,5,0,10-6,.31-.37.59-.74.84-1.1C1019.48,64.55,1016.75,56.92,1014,56Z"/><path class="cls-8" d="M996.55,87.62c2-1,4.71,2.21,7.45.38a12.68,12.68,0,0,1,6-1c2,0,5-9,6-17-5,6-5,4-10,6,0,0-4,1-5,3,0,4-4.45,8.6-4.45,8.6Z"/><path class="cls-8" d="M980,70c-1-5-1-3-3-5s-1-8,3-9a28.77,28.77,0,0,1,4-6,20.34,20.34,0,0,0-5-1c-3,0-7,4-10,5-6,3-2,9-3,11s-1,8,8,11c2,1,4,2,7,1C979,74,981,75,980,70Z"/><path class="cls-9" d="M981,77c3,4,6,7,16,4a11,11,0,0,0,4-2c1-2,5-3,5-3,3-6,0-8-2-10a14.93,14.93,0,0,1-6,6c-2,3-14.48,4.53-17.74-.24h0C980.52,74.79,979.28,74.42,981,77Z"/><path class="cls-9" d="M1004,50c-2-4-6-5-11-5-3,0-7,3-9,5a28.77,28.77,0,0,0-4,6c5-5,12-5,17,0,7-2,8,4,8,7C1008,58,1006,53,1004,50Z"/><path class="cls-7" d="M977,65c2,2,2,0,3,5a15.34,15.34,0,0,1,.26,1.76h0C983.52,76.53,996,75,998,72c-17,5-20-14-18-16C976,57,975,63,977,65Z"/><path class="cls-8" d="M998,72a14.93,14.93,0,0,0,6-6,10.07,10.07,0,0,0,1-3c0-3-1-9-8-7,3,3,6,14.55-5.45,16.78A17.69,17.69,0,0,0,998,72Z"/><path class="cls-9" d="M998.93,59.32C999,63,992,70,985,70h-.29a11.65,11.65,0,0,0,6.84,2.78C1000.3,71.07,1000.61,63.93,998.93,59.32Z"/><path class="cls-8" d="M995.12,54.42C990.35,51.08,984.4,51.6,980,56c-1.06,1.06-.71,6.86,2.36,11.35C980.74,56.74,990,55,995.12,54.42Z"/><path class="cls-7" d="M987.65,56.31c-3.48,1.69-6.23,4.85-5.29,11A13.1,13.1,0,0,0,984.71,70H985a15.26,15.26,0,0,0,9.15-3.6C983.36,68.78,985,60,987.65,56.31Z"/><path class="cls-7" d="M998.93,59.32A9.35,9.35,0,0,0,997,56a14.45,14.45,0,0,0-1.88-1.58,23.45,23.45,0,0,0-7.47,1.89c-1.37,1.91-2.46,5.17-1.72,7.55-.92-8.86,15.3-6.7,9.19,1.71C997.45,63.46,999,61,998.93,59.32Z"/><path class="cls-8" d="M995.35,59.52C994.7,64,989,62,986.48,65c1.08,1.55,3.4,2.37,7.67,1.42.34-.27.66-.54,1-.83C997.11,62.84,996.73,60.77,995.35,59.52Z"/><path class="cls-9" d="M995.35,59.52c-2.86-2.59-10-1.64-9.42,4.34a4.17,4.17,0,0,0,.55,1.12C989,62,994.7,64,995.35,59.52Z"/><path class="cls-7" d="M1045,39c-7-4-11,0-14,4a20.34,20.34,0,0,1,5,1C1038,42,1042,39,1045,39Z"/><path class="cls-7" d="M1053,73a11,11,0,0,1-4,2c-10,3-13,0-16-4-3,1-5,0-7-1-3,11,7,15,9,14s5,0,6,0c0,0,5,0,7-2a1.94,1.94,0,0,1,.55-.38v0S1053,77,1053,73Z"/><path class="cls-7" d="M1066,50c-1-4-7-6-10-6,2,3,4,8,1,13a10.07,10.07,0,0,1-1,3c2,2,5,4,2,10,5-2,5,0,10-6,.31-.37.59-.74.84-1.1C1071.48,58.55,1068.75,50.92,1066,50Z"/><path class="cls-8" d="M1048.55,81.62c2-1,4.71,2.21,7.45.38a12.68,12.68,0,0,1,6-1c2,0,5-9,6-17-5,6-5,4-10,6,0,0-4,1-5,3,0,4-4.45,8.6-4.45,8.6Z"/><path class="cls-8" d="M1032,64c-1-5-1-3-3-5s-1-8,3-9a28.77,28.77,0,0,1,4-6,20.34,20.34,0,0,0-5-1c-3,0-7,4-10,5-6,3-2,9-3,11s-1,8,8,11c2,1,4,2,7,1C1031,68,1033,69,1032,64Z"/><path class="cls-9" d="M1033,71c3,4,6,7,16,4a11,11,0,0,0,4-2c1-2,5-3,5-3,3-6,0-8-2-10a14.93,14.93,0,0,1-6,6c-2,3-14.48,4.53-17.74-.24h0C1032.52,68.79,1031.28,68.42,1033,71Z"/><path class="cls-9" d="M1056,44c-2-4-6-5-11-5-3,0-7,3-9,5a28.77,28.77,0,0,0-4,6c5-5,12-5,17,0,7-2,8,4,8,7C1060,52,1058,47,1056,44Z"/><path class="cls-7" d="M1029,59c2,2,2,0,3,5a15.34,15.34,0,0,1,.26,1.76h0C1035.52,70.53,1048,69,1050,66c-17,5-20-14-18-16C1028,51,1027,57,1029,59Z"/><path class="cls-8" d="M1050,66a14.93,14.93,0,0,0,6-6,10.07,10.07,0,0,0,1-3c0-3-1-9-8-7,3,3,6,14.55-5.45,16.78A17.69,17.69,0,0,0,1050,66Z"/><path class="cls-9" d="M1050.93,53.32C1051,57,1044,64,1037,64h-.29a11.65,11.65,0,0,0,6.84,2.78C1052.3,65.07,1052.61,57.93,1050.93,53.32Z"/><path class="cls-8" d="M1047.12,48.42c-4.77-3.34-10.72-2.82-15.12,1.58-1.06,1.06-.71,6.86,2.36,11.35C1032.74,50.74,1042,49,1047.12,48.42Z"/><path class="cls-7" d="M1039.65,50.31c-3.48,1.69-6.23,4.85-5.29,11a13.1,13.1,0,0,0,2.35,2.65h.29a15.26,15.26,0,0,0,9.15-3.6C1035.36,62.78,1037,54,1039.65,50.31Z"/><path class="cls-7" d="M1050.93,53.32A9.35,9.35,0,0,0,1049,50a14.45,14.45,0,0,0-1.88-1.58,23.45,23.45,0,0,0-7.47,1.89c-1.37,1.91-2.46,5.17-1.72,7.55-.92-8.86,15.3-6.7,9.19,1.71C1049.45,57.46,1051,55,1050.93,53.32Z"/><path class="cls-8" d="M1047.35,53.52C1046.7,58,1041,56,1038.48,59c1.08,1.55,3.4,2.37,7.67,1.42.34-.27.66-.54,1-.83C1049.11,56.84,1048.73,54.77,1047.35,53.52Z"/><path class="cls-9" d="M1047.35,53.52c-2.86-2.59-10-1.64-9.42,4.34a4.17,4.17,0,0,0,.55,1.12C1041,56,1046.7,58,1047.35,53.52Z"/><path class="cls-7" d="M1097,36c-7-4-11,0-14,4a20.34,20.34,0,0,1,5,1C1090,39,1094,36,1097,36Z"/><path class="cls-7" d="M1105,70a11,11,0,0,1-4,2c-10,3-13,0-16-4-3,1-5,0-7-1-3,11,7,15,9,14s5,0,6,0c0,0,5,0,7-2a1.94,1.94,0,0,1,.55-.38v0S1105,74,1105,70Z"/><path class="cls-7" d="M1118,47c-1-4-7-6-10-6,2,3,4,8,1,13a10.07,10.07,0,0,1-1,3c2,2,5,4,2,10,5-2,5,0,10-6,.31-.37.59-.74.84-1.1C1123.48,55.55,1120.75,47.92,1118,47Z"/><path class="cls-8" d="M1100.55,78.62c2-1,4.71,2.21,7.45.38a12.68,12.68,0,0,1,6-1c2,0,5-9,6-17-5,6-5,4-10,6,0,0-4,1-5,3,0,4-4.45,8.6-4.45,8.6Z"/><path class="cls-8" d="M1084,61c-1-5-1-3-3-5s-1-8,3-9a28.77,28.77,0,0,1,4-6,20.34,20.34,0,0,0-5-1c-3,0-7,4-10,5-6,3-2,9-3,11s-1,8,8,11c2,1,4,2,7,1C1083,65,1085,66,1084,61Z"/><path class="cls-9" d="M1085,68c3,4,6,7,16,4a11,11,0,0,0,4-2c1-2,5-3,5-3,3-6,0-8-2-10a14.93,14.93,0,0,1-6,6c-2,3-14.48,4.53-17.74-.24h0C1084.52,65.79,1083.28,65.42,1085,68Z"/><path class="cls-9" d="M1108,41c-2-4-6-5-11-5-3,0-7,3-9,5a28.77,28.77,0,0,0-4,6c5-5,12-5,17,0,7-2,8,4,8,7C1112,49,1110,44,1108,41Z"/><path class="cls-7" d="M1081,56c2,2,2,0,3,5a15.34,15.34,0,0,1,.26,1.76h0C1087.52,67.53,1100,66,1102,63c-17,5-20-14-18-16C1080,48,1079,54,1081,56Z"/><path class="cls-8" d="M1102,63a14.93,14.93,0,0,0,6-6,10.07,10.07,0,0,0,1-3c0-3-1-9-8-7,3,3,6,14.55-5.45,16.78A17.69,17.69,0,0,0,1102,63Z"/><path class="cls-9" d="M1102.93,50.32C1103,54,1096,61,1089,61h-.29a11.65,11.65,0,0,0,6.84,2.78C1104.3,62.07,1104.61,54.93,1102.93,50.32Z"/><path class="cls-8" d="M1099.12,45.42c-4.77-3.34-10.72-2.82-15.12,1.58-1.06,1.06-.71,6.86,2.36,11.35C1084.74,47.74,1094,46,1099.12,45.42Z"/><path class="cls-7" d="M1091.65,47.31c-3.48,1.69-6.23,4.85-5.29,11a13.1,13.1,0,0,0,2.35,2.65h.29a15.26,15.26,0,0,0,9.15-3.6C1087.36,59.78,1089,51,1091.65,47.31Z"/><path class="cls-7" d="M1102.93,50.32A9.35,9.35,0,0,0,1101,47a14.45,14.45,0,0,0-1.88-1.58,23.45,23.45,0,0,0-7.47,1.89c-1.37,1.91-2.46,5.17-1.72,7.55-.92-8.86,15.3-6.7,9.19,1.71C1101.45,54.46,1103,52,1102.93,50.32Z"/><path class="cls-8" d="M1099.35,50.52C1098.7,55,1093,53,1090.48,56c1.08,1.55,3.4,2.37,7.67,1.42.34-.27.66-.54,1-.83C1101.11,53.84,1100.73,51.77,1099.35,50.52Z"/><path class="cls-9" d="M1099.35,50.52c-2.86-2.59-10-1.64-9.42,4.34a4.17,4.17,0,0,0,.55,1.12C1093,53,1098.7,55,1099.35,50.52Z"/><path class="cls-7" d="M1148,32c-7-4-11,0-14,4a20.34,20.34,0,0,1,5,1C1141,35,1145,32,1148,32Z"/><path class="cls-7" d="M1156,66a11,11,0,0,1-4,2c-10,3-13,0-16-4-3,1-5,0-7-1-3,11,7,15,9,14s5,0,6,0c0,0,5,0,7-2a1.94,1.94,0,0,1,.55-.38v0S1156,70,1156,66Z"/><path class="cls-7" d="M1169,43c-1-4-7-6-10-6,2,3,4,8,1,13a10.07,10.07,0,0,1-1,3c2,2,5,4,2,10,5-2,5,0,10-6,.31-.37.59-.74.84-1.1C1174.48,51.55,1171.75,43.92,1169,43Z"/><path class="cls-8" d="M1151.55,74.62c2-1,4.71,2.21,7.45.38a12.68,12.68,0,0,1,6-1c2,0,5-9,6-17-5,6-5,4-10,6,0,0-4,1-5,3,0,4-4.45,8.6-4.45,8.6Z"/><path class="cls-8" d="M1135,57c-1-5-1-3-3-5s-1-8,3-9a28.77,28.77,0,0,1,4-6,20.34,20.34,0,0,0-5-1c-3,0-7,4-10,5-6,3-2,9-3,11s-1,8,8,11c2,1,4,2,7,1C1134,61,1136,62,1135,57Z"/><path class="cls-9" d="M1136,64c3,4,6,7,16,4a11,11,0,0,0,4-2c1-2,5-3,5-3,3-6,0-8-2-10a14.93,14.93,0,0,1-6,6c-2,3-14.48,4.53-17.74-.24h0C1135.52,61.79,1134.28,61.42,1136,64Z"/><path class="cls-9" d="M1159,37c-2-4-6-5-11-5-3,0-7,3-9,5a28.77,28.77,0,0,0-4,6c5-5,12-5,17,0,7-2,8,4,8,7C1163,45,1161,40,1159,37Z"/><path class="cls-7" d="M1132,52c2,2,2,0,3,5a15.34,15.34,0,0,1,.26,1.76h0C1138.52,63.53,1151,62,1153,59c-17,5-20-14-18-16C1131,44,1130,50,1132,52Z"/><path class="cls-8" d="M1153,59a14.93,14.93,0,0,0,6-6,10.07,10.07,0,0,0,1-3c0-3-1-9-8-7,3,3,6,14.55-5.45,16.78A17.69,17.69,0,0,0,1153,59Z"/><path class="cls-9" d="M1153.93,46.32C1154,50,1147,57,1140,57h-.29a11.65,11.65,0,0,0,6.84,2.78C1155.3,58.07,1155.61,50.93,1153.93,46.32Z"/><path class="cls-8" d="M1150.12,41.42c-4.77-3.34-10.72-2.82-15.12,1.58-1.06,1.06-.71,6.86,2.36,11.35C1135.74,43.74,1145,42,1150.12,41.42Z"/><path class="cls-7" d="M1142.65,43.31c-3.48,1.69-6.23,4.85-5.29,11a13.1,13.1,0,0,0,2.35,2.65h.29a15.26,15.26,0,0,0,9.15-3.6C1138.36,55.78,1140,47,1142.65,43.31Z"/><path class="cls-7" d="M1153.93,46.32A9.35,9.35,0,0,0,1152,43a14.45,14.45,0,0,0-1.88-1.58,23.45,23.45,0,0,0-7.47,1.89c-1.37,1.91-2.46,5.17-1.72,7.55-.92-8.86,15.3-6.7,9.19,1.71C1152.45,50.46,1154,48,1153.93,46.32Z"/><path class="cls-8" d="M1150.35,46.52C1149.7,51,1144,49,1141.48,52c1.08,1.55,3.4,2.37,7.67,1.42.34-.27.66-.54,1-.83C1152.11,49.84,1151.73,47.77,1150.35,46.52Z"/><path class="cls-9" d="M1150.35,46.52c-2.86-2.59-10-1.64-9.42,4.34a4.17,4.17,0,0,0,.55,1.12C1144,49,1149.7,51,1150.35,46.52Z"/><path class="cls-7" d="M1200,21c-7-4-11,0-14,4a20.34,20.34,0,0,1,5,1C1193,24,1197,21,1200,21Z"/><path class="cls-7" d="M1208,55a11,11,0,0,1-4,2c-10,3-13,0-16-4-3,1-5,0-7-1-3,11,7,15,9,14s5,0,6,0c0,0,5,0,7-2a1.94,1.94,0,0,1,.55-.38v0S1208,59,1208,55Z"/><path class="cls-7" d="M1221,32c-1-4-7-6-10-6,2,3,4,8,1,13a10.07,10.07,0,0,1-1,3c2,2,5,4,2,10,5-2,5,0,10-6,.31-.37.59-.74.84-1.1C1226.48,40.55,1223.75,32.92,1221,32Z"/><path class="cls-8" d="M1203.55,63.62c2-1,4.71,2.21,7.45.38a12.68,12.68,0,0,1,6-1c2,0,5-9,6-17-5,6-5,4-10,6,0,0-4,1-5,3,0,4-4.45,8.6-4.45,8.6Z"/><path class="cls-8" d="M1187,46c-1-5-1-3-3-5s-1-8,3-9a28.77,28.77,0,0,1,4-6,20.34,20.34,0,0,0-5-1c-3,0-7,4-10,5-6,3-2,9-3,11s-1,8,8,11c2,1,4,2,7,1C1186,50,1188,51,1187,46Z"/><path class="cls-9" d="M1188,53c3,4,6,7,16,4a11,11,0,0,0,4-2c1-2,5-3,5-3,3-6,0-8-2-10a14.93,14.93,0,0,1-6,6c-2,3-14.48,4.53-17.74-.24h0C1187.52,50.79,1186.28,50.42,1188,53Z"/><path class="cls-9" d="M1211,26c-2-4-6-5-11-5-3,0-7,3-9,5a28.77,28.77,0,0,0-4,6c5-5,12-5,17,0,7-2,8,4,8,7C1215,34,1213,29,1211,26Z"/><path class="cls-7" d="M1184,41c2,2,2,0,3,5a15.34,15.34,0,0,1,.26,1.76h0C1190.52,52.53,1203,51,1205,48c-17,5-20-14-18-16C1183,33,1182,39,1184,41Z"/><path class="cls-8" d="M1205,48a14.93,14.93,0,0,0,6-6,10.07,10.07,0,0,0,1-3c0-3-1-9-8-7,3,3,6,14.55-5.45,16.78A17.69,17.69,0,0,0,1205,48Z"/><path class="cls-9" d="M1205.93,35.32C1206,39,1199,46,1192,46h-.29a11.65,11.65,0,0,0,6.84,2.78C1207.3,47.07,1207.61,39.93,1205.93,35.32Z"/><path class="cls-8" d="M1202.12,30.42c-4.77-3.34-10.72-2.82-15.12,1.58-1.06,1.06-.71,6.86,2.36,11.35C1187.74,32.74,1197,31,1202.12,30.42Z"/><path class="cls-7" d="M1194.65,32.31c-3.48,1.69-6.23,4.85-5.29,11a13.1,13.1,0,0,0,2.35,2.65h.29a15.26,15.26,0,0,0,9.15-3.6C1190.36,44.78,1192,36,1194.65,32.31Z"/><path class="cls-7" d="M1205.93,35.32A9.35,9.35,0,0,0,1204,32a14.45,14.45,0,0,0-1.88-1.58,23.45,23.45,0,0,0-7.47,1.89c-1.37,1.91-2.46,5.17-1.72,7.55-.92-8.86,15.3-6.7,9.19,1.71C1204.45,39.46,1206,37,1205.93,35.32Z"/><path class="cls-8" d="M1202.35,35.52C1201.7,40,1196,38,1193.48,41c1.08,1.55,3.4,2.37,7.67,1.42.34-.27.66-.54,1-.83C1204.11,38.84,1203.73,36.77,1202.35,35.52Z"/><path class="cls-9" d="M1202.35,35.52c-2.86-2.59-10-1.64-9.42,4.34a4.17,4.17,0,0,0,.55,1.12C1196,38,1201.7,40,1202.35,35.52Z"/><path class="cls-7" d="M1250,3c-7-4-11,0-14,4a20.34,20.34,0,0,1,5,1C1243,6,1247,3,1250,3Z"/><path class="cls-7" d="M1258,37a11,11,0,0,1-4,2c-10,3-13,0-16-4-3,1-5,0-7-1-3,11,7,15,9,14s5,0,6,0c0,0,5,0,7-2a1.94,1.94,0,0,1,.55-.38v0S1258,41,1258,37Z"/><path class="cls-7" d="M1271,14c-1-4-7-6-10-6,2,3,4,8,1,13a10.07,10.07,0,0,1-1,3c2,2,5,4,2,10,5-2,5,0,10-6,.31-.37.59-.74.84-1.1C1276.48,22.55,1273.75,14.92,1271,14Z"/><path class="cls-8" d="M1253.55,45.62c2-1,4.71,2.21,7.45.38a12.68,12.68,0,0,1,6-1c2,0,5-9,6-17-5,6-5,4-10,6,0,0-4,1-5,3,0,4-4.45,8.6-4.45,8.6Z"/><path class="cls-8" d="M1237,28c-1-5-1-3-3-5s-1-8,3-9a28.77,28.77,0,0,1,4-6,20.34,20.34,0,0,0-5-1c-3,0-7,4-10,5-6,3-2,9-3,11s-1,8,8,11c2,1,4,2,7,1C1236,32,1238,33,1237,28Z"/><path class="cls-9" d="M1238,35c3,4,6,7,16,4a11,11,0,0,0,4-2c1-2,5-3,5-3,3-6,0-8-2-10a14.93,14.93,0,0,1-6,6c-2,3-14.48,4.53-17.74-.24h0C1237.52,32.79,1236.28,32.42,1238,35Z"/><path class="cls-9" d="M1261,8c-2-4-6-5-11-5-3,0-7,3-9,5a28.77,28.77,0,0,0-4,6c5-5,12-5,17,0,7-2,8,4,8,7C1265,16,1263,11,1261,8Z"/><path class="cls-7" d="M1234,23c2,2,2,0,3,5a15.34,15.34,0,0,1,.26,1.76h0C1240.52,34.53,1253,33,1255,30c-17,5-20-14-18-16C1233,15,1232,21,1234,23Z"/><path class="cls-8" d="M1255,30a14.93,14.93,0,0,0,6-6,10.07,10.07,0,0,0,1-3c0-3-1-9-8-7,3,3,6,14.55-5.45,16.78A17.69,17.69,0,0,0,1255,30Z"/><path class="cls-9" d="M1255.93,17.32C1256,21,1249,28,1242,28h-.29a11.65,11.65,0,0,0,6.84,2.78C1257.3,29.07,1257.61,21.93,1255.93,17.32Z"/><path class="cls-8" d="M1252.12,12.42C1247.35,9.08,1241.4,9.6,1237,14c-1.06,1.06-.71,6.86,2.36,11.35C1237.74,14.74,1247,13,1252.12,12.42Z"/><path class="cls-7" d="M1244.65,14.31c-3.48,1.69-6.23,4.85-5.29,11a13.1,13.1,0,0,0,2.35,2.65h.29a15.26,15.26,0,0,0,9.15-3.6C1240.36,26.78,1242,18,1244.65,14.31Z"/><path class="cls-7" d="M1255.93,17.32A9.35,9.35,0,0,0,1254,14a14.45,14.45,0,0,0-1.88-1.58,23.45,23.45,0,0,0-7.47,1.89c-1.37,1.91-2.46,5.17-1.72,7.55-.92-8.86,15.3-6.7,9.19,1.71C1254.45,21.46,1256,19,1255.93,17.32Z"/><path class="cls-8" d="M1252.35,17.52C1251.7,22,1246,20,1243.48,23c1.08,1.55,3.4,2.37,7.67,1.42.34-.27.66-.54,1-.83C1254.11,20.84,1253.73,18.77,1252.35,17.52Z"/><path class="cls-9" d="M1252.35,17.52c-2.86-2.59-10-1.64-9.42,4.34a4.17,4.17,0,0,0,.55,1.12C1246,20,1251.7,22,1252.35,17.52Z"/><path class="cls-7" d="M629.48,59c7-4,11,0,14,4a20.34,20.34,0,0,0-5,1C636.48,62,632.48,59,629.48,59Z"/><path class="cls-7" d="M621.48,93a11,11,0,0,0,4,2c10,3,13,0,16-4,3,1,5,0,7-1,3,11-7,15-9,14s-5,0-6,0c0,0-5,0-7-2a2.09,2.09,0,0,0-.55-.38v0S621.48,97,621.48,93Z"/><path class="cls-7" d="M608.48,70c1-4,7-6,10-6-2,3-4,8-1,13a10.07,10.07,0,0,0,1,3c-2,2-5,4-2,10-5-2-5,0-10-6-.31-.37-.59-.74-.84-1.1C603,78.55,605.73,70.92,608.48,70Z"/><path class="cls-8" d="M625.93,101.62c-2-1-4.71,2.21-7.45.38a12.68,12.68,0,0,0-6-1c-2,0-5-9-6-17,5,6,5,4,10,6,0,0,4,1,5,3,0,4,4.44,8.6,4.44,8.6Z"/><path class="cls-8" d="M642.48,84c1-5,1-3,3-5s1-8-3-9a28.77,28.77,0,0,0-4-6,20.34,20.34,0,0,1,5-1c3,0,7,4,10,5,6,3,2,9,3,11s1,8-8,11c-2,1-4,2-7,1C643.48,88,641.48,89,642.48,84Z"/><path class="cls-9" d="M641.48,91c-3,4-6,7-16,4a11,11,0,0,1-4-2c-1-2-5-3-5-3-3-6,0-8,2-10a14.93,14.93,0,0,0,6,6c2,3,14.48,4.53,17.74-.24h0C642,88.79,643.2,88.42,641.48,91Z"/><path class="cls-9" d="M618.48,64c2-4,6-5,11-5,3,0,7,3,9,5a28.77,28.77,0,0,1,4,6c-5-5-12-5-17,0-7-2-8,4-8,7C614.48,72,616.48,67,618.48,64Z"/><path class="cls-7" d="M645.48,79c-2,2-2,0-3,5a15.34,15.34,0,0,0-.26,1.76h0C639,90.53,626.48,89,624.48,86c17,5,20-14,18-16C646.48,71,647.48,77,645.48,79Z"/><path class="cls-8" d="M624.48,86a14.93,14.93,0,0,1-6-6,10.07,10.07,0,0,1-1-3c0-3,1-9,8-7-3,3-6,14.55,5.45,16.78A17.67,17.67,0,0,1,624.48,86Z"/><path class="cls-9" d="M623.55,73.32C623.48,77,630.48,84,637.48,84h.29a11.65,11.65,0,0,1-6.84,2.78C622.18,85.07,621.87,77.93,623.55,73.32Z"/><path class="cls-8" d="M627.36,68.42c4.77-3.34,10.72-2.82,15.12,1.58,1,1.06.7,6.86-2.37,11.35C641.74,70.74,632.48,69,627.36,68.42Z"/><path class="cls-7" d="M634.83,70.31c3.48,1.69,6.23,4.85,5.28,11A13.05,13.05,0,0,1,637.77,84h-.29a15.27,15.27,0,0,1-9.16-3.6C639.12,82.78,637.48,74,634.83,70.31Z"/><path class="cls-7" d="M623.55,73.32A9.35,9.35,0,0,1,625.48,70a14.45,14.45,0,0,1,1.88-1.58,23.51,23.51,0,0,1,7.47,1.89c1.37,1.91,2.46,5.17,1.72,7.55.92-8.86-15.3-6.7-9.2,1.71C625,77.46,623.52,75,623.55,73.32Z"/><path class="cls-8" d="M627.13,73.52C627.77,78,633.45,76,636,79c-1.08,1.55-3.4,2.37-7.68,1.42-.34-.27-.66-.54-1-.83C625.37,76.84,625.75,74.77,627.13,73.52Z"/><path class="cls-9" d="M627.13,73.52c2.86-2.59,10-1.64,9.42,4.34A4.17,4.17,0,0,1,636,79C633.45,76,627.77,78,627.13,73.52Z"/><path class="cls-7" d="M576.48,57c7-4,11,0,14,4a20.34,20.34,0,0,0-5,1C583.48,60,579.48,57,576.48,57Z"/><path class="cls-7" d="M568.48,91a11,11,0,0,0,4,2c10,3,13,0,16-4,3,1,5,0,7-1,3,11-7,15-9,14s-5,0-6,0c0,0-5,0-7-2a2.09,2.09,0,0,0-.55-.38v0S568.48,95,568.48,91Z"/><path class="cls-7" d="M555.48,68c1-4,7-6,10-6-2,3-4,8-1,13a10.07,10.07,0,0,0,1,3c-2,2-5,4-2,10-5-2-5,0-10-6-.31-.37-.59-.74-.84-1.1C550,76.55,552.73,68.92,555.48,68Z"/><path class="cls-8" d="M572.93,99.62c-2-1-4.71,2.21-7.45.38a12.68,12.68,0,0,0-6-1c-2,0-5-9-6-17,5,6,5,4,10,6,0,0,4,1,5,3,0,4,4.44,8.6,4.44,8.6Z"/><path class="cls-8" d="M589.48,82c1-5,1-3,3-5s1-8-3-9a28.77,28.77,0,0,0-4-6,20.34,20.34,0,0,1,5-1c3,0,7,4,10,5,6,3,2,9,3,11s1,8-8,11c-2,1-4,2-7,1C590.48,86,588.48,87,589.48,82Z"/><path class="cls-9" d="M588.48,89c-3,4-6,7-16,4a11,11,0,0,1-4-2c-1-2-5-3-5-3-3-6,0-8,2-10a14.93,14.93,0,0,0,6,6c2,3,14.48,4.53,17.74-.24h0C589,86.79,590.2,86.42,588.48,89Z"/><path class="cls-9" d="M565.48,62c2-4,6-5,11-5,3,0,7,3,9,5a28.77,28.77,0,0,1,4,6c-5-5-12-5-17,0-7-2-8,4-8,7C561.48,70,563.48,65,565.48,62Z"/><path class="cls-7" d="M592.48,77c-2,2-2,0-3,5a15.34,15.34,0,0,0-.26,1.76h0C586,88.53,573.48,87,571.48,84c17,5,20-14,18-16C593.48,69,594.48,75,592.48,77Z"/><path class="cls-8" d="M571.48,84a14.93,14.93,0,0,1-6-6,10.07,10.07,0,0,1-1-3c0-3,1-9,8-7-3,3-6,14.55,5.45,16.78A17.67,17.67,0,0,1,571.48,84Z"/><path class="cls-9" d="M570.55,71.32C570.48,75,577.48,82,584.48,82h.29a11.65,11.65,0,0,1-6.84,2.78C569.18,83.07,568.87,75.93,570.55,71.32Z"/><path class="cls-8" d="M574.36,66.42c4.77-3.34,10.72-2.82,15.12,1.58,1,1.06.7,6.86-2.37,11.35C588.74,68.74,579.48,67,574.36,66.42Z"/><path class="cls-7" d="M581.83,68.31c3.48,1.69,6.23,4.85,5.28,11A13.05,13.05,0,0,1,584.77,82h-.29a15.27,15.27,0,0,1-9.16-3.6C586.12,80.78,584.48,72,581.83,68.31Z"/><path class="cls-7" d="M570.55,71.32A9.35,9.35,0,0,1,572.48,68a14.45,14.45,0,0,1,1.88-1.58,23.51,23.51,0,0,1,7.47,1.89c1.37,1.91,2.46,5.17,1.72,7.55.92-8.86-15.3-6.7-9.2,1.71C572,75.46,570.52,73,570.55,71.32Z"/><path class="cls-8" d="M574.13,71.52C574.77,76,580.45,74,583,77c-1.08,1.55-3.4,2.37-7.68,1.42-.34-.27-.66-.54-1-.83C572.37,74.84,572.75,72.77,574.13,71.52Z"/><path class="cls-9" d="M574.13,71.52c2.86-2.59,10-1.64,9.42,4.34A4.17,4.17,0,0,1,583,77C580.45,74,574.77,76,574.13,71.52Z"/><path class="cls-7" d="M526.48,54c7-4,11,0,14,4a20.34,20.34,0,0,0-5,1C533.48,57,529.48,54,526.48,54Z"/><path class="cls-7" d="M518.48,88a11,11,0,0,0,4,2c10,3,13,0,16-4,3,1,5,0,7-1,3,11-7,15-9,14s-5,0-6,0c0,0-5,0-7-2a2.09,2.09,0,0,0-.55-.38v0S518.48,92,518.48,88Z"/><path class="cls-7" d="M505.48,65c1-4,7-6,10-6-2,3-4,8-1,13a10.07,10.07,0,0,0,1,3c-2,2-5,4-2,10-5-2-5,0-10-6-.31-.37-.59-.74-.84-1.1C500,73.55,502.73,65.92,505.48,65Z"/><path class="cls-8" d="M522.93,96.62c-2-1-4.71,2.21-7.45.38a12.68,12.68,0,0,0-6-1c-2,0-5-9-6-17,5,6,5,4,10,6,0,0,4,1,5,3,0,4,4.44,8.6,4.44,8.6Z"/><path class="cls-8" d="M539.48,79c1-5,1-3,3-5s1-8-3-9a28.77,28.77,0,0,0-4-6,20.34,20.34,0,0,1,5-1c3,0,7,4,10,5,6,3,2,9,3,11s1,8-8,11c-2,1-4,2-7,1C540.48,83,538.48,84,539.48,79Z"/><path class="cls-9" d="M538.48,86c-3,4-6,7-16,4a11,11,0,0,1-4-2c-1-2-5-3-5-3-3-6,0-8,2-10a14.93,14.93,0,0,0,6,6c2,3,14.48,4.53,17.74-.24h0C539,83.79,540.2,83.42,538.48,86Z"/><path class="cls-9" d="M515.48,59c2-4,6-5,11-5,3,0,7,3,9,5a28.77,28.77,0,0,1,4,6c-5-5-12-5-17,0-7-2-8,4-8,7C511.48,67,513.48,62,515.48,59Z"/><path class="cls-7" d="M542.48,74c-2,2-2,0-3,5a15.34,15.34,0,0,0-.26,1.76h0C536,85.53,523.48,84,521.48,81c17,5,20-14,18-16C543.48,66,544.48,72,542.48,74Z"/><path class="cls-8" d="M521.48,81a14.93,14.93,0,0,1-6-6,10.07,10.07,0,0,1-1-3c0-3,1-9,8-7-3,3-6,14.55,5.45,16.78A17.67,17.67,0,0,1,521.48,81Z"/><path class="cls-9" d="M520.55,68.32C520.48,72,527.48,79,534.48,79h.29a11.65,11.65,0,0,1-6.84,2.78C519.18,80.07,518.87,72.93,520.55,68.32Z"/><path class="cls-8" d="M524.36,63.42c4.77-3.34,10.72-2.82,15.12,1.58,1,1.06.7,6.86-2.37,11.35C538.74,65.74,529.48,64,524.36,63.42Z"/><path class="cls-7" d="M531.83,65.31c3.48,1.69,6.23,4.85,5.28,11A13.05,13.05,0,0,1,534.77,79h-.29a15.27,15.27,0,0,1-9.16-3.6C536.12,77.78,534.48,69,531.83,65.31Z"/><path class="cls-7" d="M520.55,68.32A9.35,9.35,0,0,1,522.48,65a14.45,14.45,0,0,1,1.88-1.58,23.51,23.51,0,0,1,7.47,1.89c1.37,1.91,2.46,5.17,1.72,7.55.92-8.86-15.3-6.7-9.2,1.71C522,72.46,520.52,70,520.55,68.32Z"/><path class="cls-8" d="M524.13,68.52C524.77,73,530.45,71,533,74c-1.08,1.55-3.4,2.37-7.68,1.42-.34-.27-.66-.54-1-.83C522.37,71.84,522.75,69.77,524.13,68.52Z"/><path class="cls-9" d="M524.13,68.52c2.86-2.59,10-1.64,9.42,4.34A4.17,4.17,0,0,1,533,74C530.45,71,524.77,73,524.13,68.52Z"/><path class="cls-7" d="M475.48,52c7-4,11,0,14,4a20.34,20.34,0,0,0-5,1C482.48,55,478.48,52,475.48,52Z"/><path class="cls-7" d="M467.48,86a11,11,0,0,0,4,2c10,3,13,0,16-4,3,1,5,0,7-1,3,11-7,15-9,14s-5,0-6,0c0,0-5,0-7-2a2.09,2.09,0,0,0-.55-.38v0S467.48,90,467.48,86Z"/><path class="cls-7" d="M454.48,63c1-4,7-6,10-6-2,3-4,8-1,13a10.07,10.07,0,0,0,1,3c-2,2-5,4-2,10-5-2-5,0-10-6-.31-.37-.59-.74-.84-1.1C449,71.55,451.73,63.92,454.48,63Z"/><path class="cls-8" d="M471.93,94.62c-2-1-4.71,2.21-7.45.38a12.68,12.68,0,0,0-6-1c-2,0-5-9-6-17,5,6,5,4,10,6,0,0,4,1,5,3,0,4,4.44,8.6,4.44,8.6Z"/><path class="cls-8" d="M488.48,77c1-5,1-3,3-5s1-8-3-9a28.77,28.77,0,0,0-4-6,20.34,20.34,0,0,1,5-1c3,0,7,4,10,5,6,3,2,9,3,11s1,8-8,11c-2,1-4,2-7,1C489.48,81,487.48,82,488.48,77Z"/><path class="cls-9" d="M487.48,84c-3,4-6,7-16,4a11,11,0,0,1-4-2c-1-2-5-3-5-3-3-6,0-8,2-10a14.93,14.93,0,0,0,6,6c2,3,14.48,4.53,17.74-.24h0C488,81.79,489.2,81.42,487.48,84Z"/><path class="cls-9" d="M464.48,57c2-4,6-5,11-5,3,0,7,3,9,5a28.77,28.77,0,0,1,4,6c-5-5-12-5-17,0-7-2-8,4-8,7C460.48,65,462.48,60,464.48,57Z"/><path class="cls-7" d="M491.48,72c-2,2-2,0-3,5a15.34,15.34,0,0,0-.26,1.76h0C485,83.53,472.48,82,470.48,79c17,5,20-14,18-16C492.48,64,493.48,70,491.48,72Z"/><path class="cls-8" d="M470.48,79a14.93,14.93,0,0,1-6-6,10.07,10.07,0,0,1-1-3c0-3,1-9,8-7-3,3-6,14.55,5.45,16.78A17.67,17.67,0,0,1,470.48,79Z"/><path class="cls-9" d="M469.55,66.32C469.48,70,476.48,77,483.48,77h.29a11.65,11.65,0,0,1-6.84,2.78C468.18,78.07,467.87,70.93,469.55,66.32Z"/><path class="cls-8" d="M473.36,61.42c4.77-3.34,10.72-2.82,15.12,1.58,1,1.06.7,6.86-2.37,11.35C487.74,63.74,478.48,62,473.36,61.42Z"/><path class="cls-7" d="M480.83,63.31c3.48,1.69,6.23,4.85,5.28,11A13.05,13.05,0,0,1,483.77,77h-.29a15.27,15.27,0,0,1-9.16-3.6C485.12,75.78,483.48,67,480.83,63.31Z"/><path class="cls-7" d="M469.55,66.32A9.35,9.35,0,0,1,471.48,63a14.45,14.45,0,0,1,1.88-1.58,23.51,23.51,0,0,1,7.47,1.89c1.37,1.91,2.46,5.17,1.72,7.55.92-8.86-15.3-6.7-9.2,1.71C471,70.46,469.52,68,469.55,66.32Z"/><path class="cls-8" d="M473.13,66.52C473.77,71,479.45,69,482,72c-1.08,1.55-3.4,2.37-7.68,1.42-.34-.27-.66-.54-1-.83C471.37,69.84,471.75,67.77,473.13,66.52Z"/><path class="cls-9" d="M473.13,66.52c2.86-2.59,10-1.64,9.42,4.34A4.17,4.17,0,0,1,482,72C479.45,69,473.77,71,473.13,66.52Z"/><path class="cls-7" d="M422.48,51c7-4,11,0,14,4a20.34,20.34,0,0,0-5,1C429.48,54,425.48,51,422.48,51Z"/><path class="cls-7" d="M414.48,85a11,11,0,0,0,4,2c10,3,13,0,16-4,3,1,5,0,7-1,3,11-7,15-9,14s-5,0-6,0c0,0-5,0-7-2a2.09,2.09,0,0,0-.55-.38v0S414.48,89,414.48,85Z"/><path class="cls-7" d="M401.48,62c1-4,7-6,10-6-2,3-4,8-1,13a10.07,10.07,0,0,0,1,3c-2,2-5,4-2,10-5-2-5,0-10-6-.31-.37-.59-.74-.84-1.1C396,70.55,398.73,62.92,401.48,62Z"/><path class="cls-8" d="M418.93,93.62c-2-1-4.71,2.21-7.45.38a12.68,12.68,0,0,0-6-1c-2,0-5-9-6-17,5,6,5,4,10,6,0,0,4,1,5,3,0,4,4.44,8.6,4.44,8.6Z"/><path class="cls-8" d="M435.48,76c1-5,1-3,3-5s1-8-3-9a28.77,28.77,0,0,0-4-6,20.34,20.34,0,0,1,5-1c3,0,7,4,10,5,6,3,2,9,3,11s1,8-8,11c-2,1-4,2-7,1C436.48,80,434.48,81,435.48,76Z"/><path class="cls-9" d="M434.48,83c-3,4-6,7-16,4a11,11,0,0,1-4-2c-1-2-5-3-5-3-3-6,0-8,2-10a14.93,14.93,0,0,0,6,6c2,3,14.48,4.53,17.74-.24h0C435,80.79,436.2,80.42,434.48,83Z"/><path class="cls-9" d="M411.48,56c2-4,6-5,11-5,3,0,7,3,9,5a28.77,28.77,0,0,1,4,6c-5-5-12-5-17,0-7-2-8,4-8,7C407.48,64,409.48,59,411.48,56Z"/><path class="cls-7" d="M438.48,71c-2,2-2,0-3,5a15.34,15.34,0,0,0-.26,1.76h0C432,82.53,419.48,81,417.48,78c17,5,20-14,18-16C439.48,63,440.48,69,438.48,71Z"/><path class="cls-8" d="M417.48,78a14.93,14.93,0,0,1-6-6,10.07,10.07,0,0,1-1-3c0-3,1-9,8-7-3,3-6,14.55,5.45,16.78A17.67,17.67,0,0,1,417.48,78Z"/><path class="cls-9" d="M416.55,65.32C416.48,69,423.48,76,430.48,76h.29a11.65,11.65,0,0,1-6.84,2.78C415.18,77.07,414.87,69.93,416.55,65.32Z"/><path class="cls-8" d="M420.36,60.42c4.77-3.34,10.72-2.82,15.12,1.58,1,1.06.7,6.86-2.37,11.35C434.74,62.74,425.48,61,420.36,60.42Z"/><path class="cls-7" d="M427.83,62.31c3.48,1.69,6.23,4.85,5.28,11A13.05,13.05,0,0,1,430.77,76h-.29a15.27,15.27,0,0,1-9.16-3.6C432.12,74.78,430.48,66,427.83,62.31Z"/><path class="cls-7" d="M416.55,65.32A9.35,9.35,0,0,1,418.48,62a14.45,14.45,0,0,1,1.88-1.58,23.51,23.51,0,0,1,7.47,1.89c1.37,1.91,2.46,5.17,1.72,7.55.92-8.86-15.3-6.7-9.2,1.71C418,69.46,416.52,67,416.55,65.32Z"/><path class="cls-8" d="M420.13,65.52C420.77,70,426.45,68,429,71c-1.08,1.55-3.4,2.37-7.68,1.42-.34-.27-.66-.54-1-.83C418.37,68.84,418.75,66.77,420.13,65.52Z"/><path class="cls-9" d="M420.13,65.52c2.86-2.59,10-1.64,9.42,4.34A4.17,4.17,0,0,1,429,71C426.45,68,420.77,70,420.13,65.52Z"/><path class="cls-7" d="M370.48,45c7-4,11,0,14,4a20.34,20.34,0,0,0-5,1C377.48,48,373.48,45,370.48,45Z"/><path class="cls-7" d="M362.48,79a11,11,0,0,0,4,2c10,3,13,0,16-4,3,1,5,0,7-1,3,11-7,15-9,14s-5,0-6,0c0,0-5,0-7-2a2.09,2.09,0,0,0-.55-.38v0S362.48,83,362.48,79Z"/><path class="cls-7" d="M349.48,56c1-4,7-6,10-6-2,3-4,8-1,13a10.07,10.07,0,0,0,1,3c-2,2-5,4-2,10-5-2-5,0-10-6-.31-.37-.59-.74-.84-1.1C344,64.55,346.73,56.92,349.48,56Z"/><path class="cls-8" d="M366.93,87.62c-2-1-4.71,2.21-7.45.38a12.68,12.68,0,0,0-6-1c-2,0-5-9-6-17,5,6,5,4,10,6,0,0,4,1,5,3,0,4,4.44,8.6,4.44,8.6Z"/><path class="cls-8" d="M383.48,70c1-5,1-3,3-5s1-8-3-9a28.77,28.77,0,0,0-4-6,20.34,20.34,0,0,1,5-1c3,0,7,4,10,5,6,3,2,9,3,11s1,8-8,11c-2,1-4,2-7,1C384.48,74,382.48,75,383.48,70Z"/><path class="cls-9" d="M382.48,77c-3,4-6,7-16,4a11,11,0,0,1-4-2c-1-2-5-3-5-3-3-6,0-8,2-10a14.93,14.93,0,0,0,6,6c2,3,14.48,4.53,17.74-.24h0C383,74.79,384.2,74.42,382.48,77Z"/><path class="cls-9" d="M359.48,50c2-4,6-5,11-5,3,0,7,3,9,5a28.77,28.77,0,0,1,4,6c-5-5-12-5-17,0-7-2-8,4-8,7C355.48,58,357.48,53,359.48,50Z"/><path class="cls-7" d="M386.48,65c-2,2-2,0-3,5a15.34,15.34,0,0,0-.26,1.76h0C380,76.53,367.48,75,365.48,72c17,5,20-14,18-16C387.48,57,388.48,63,386.48,65Z"/><path class="cls-8" d="M365.48,72a14.93,14.93,0,0,1-6-6,10.07,10.07,0,0,1-1-3c0-3,1-9,8-7-3,3-6,14.55,5.45,16.78A17.67,17.67,0,0,1,365.48,72Z"/><path class="cls-9" d="M364.55,59.32C364.48,63,371.48,70,378.48,70h.29a11.65,11.65,0,0,1-6.84,2.78C363.18,71.07,362.87,63.93,364.55,59.32Z"/><path class="cls-8" d="M368.36,54.42c4.77-3.34,10.72-2.82,15.12,1.58,1,1.06.7,6.86-2.37,11.35C382.74,56.74,373.48,55,368.36,54.42Z"/><path class="cls-7" d="M375.83,56.31c3.48,1.69,6.23,4.85,5.28,11A13.05,13.05,0,0,1,378.77,70h-.29a15.27,15.27,0,0,1-9.16-3.6C380.12,68.78,378.48,60,375.83,56.31Z"/><path class="cls-7" d="M364.55,59.32A9.35,9.35,0,0,1,366.48,56a14.45,14.45,0,0,1,1.88-1.58,23.51,23.51,0,0,1,7.47,1.89c1.37,1.91,2.46,5.17,1.72,7.55.92-8.86-15.3-6.7-9.2,1.71C366,63.46,364.52,61,364.55,59.32Z"/><path class="cls-8" d="M368.13,59.52C368.77,64,374.45,62,377,65c-1.08,1.55-3.4,2.37-7.68,1.42-.34-.27-.66-.54-1-.83C366.37,62.84,366.75,60.77,368.13,59.52Z"/><path class="cls-9" d="M368.13,59.52c2.86-2.59,10-1.64,9.42,4.34A4.17,4.17,0,0,1,377,65C374.45,62,368.77,64,368.13,59.52Z"/><path class="cls-7" d="M318.48,39c7-4,11,0,14,4a20.34,20.34,0,0,0-5,1C325.48,42,321.48,39,318.48,39Z"/><path class="cls-7" d="M310.48,73a11,11,0,0,0,4,2c10,3,13,0,16-4,3,1,5,0,7-1,3,11-7,15-9,14s-5,0-6,0c0,0-5,0-7-2a2.09,2.09,0,0,0-.55-.38v0S310.48,77,310.48,73Z"/><path class="cls-7" d="M297.48,50c1-4,7-6,10-6-2,3-4,8-1,13a10.07,10.07,0,0,0,1,3c-2,2-5,4-2,10-5-2-5,0-10-6-.31-.37-.59-.74-.84-1.1C292,58.55,294.73,50.92,297.48,50Z"/><path class="cls-8" d="M314.93,81.62c-2-1-4.71,2.21-7.45.38a12.68,12.68,0,0,0-6-1c-2,0-5-9-6-17,5,6,5,4,10,6,0,0,4,1,5,3,0,4,4.44,8.6,4.44,8.6Z"/><path class="cls-8" d="M331.48,64c1-5,1-3,3-5s1-8-3-9a28.77,28.77,0,0,0-4-6,20.34,20.34,0,0,1,5-1c3,0,7,4,10,5,6,3,2,9,3,11s1,8-8,11c-2,1-4,2-7,1C332.48,68,330.48,69,331.48,64Z"/><path class="cls-9" d="M330.48,71c-3,4-6,7-16,4a11,11,0,0,1-4-2c-1-2-5-3-5-3-3-6,0-8,2-10a14.93,14.93,0,0,0,6,6c2,3,14.48,4.53,17.74-.24h0C331,68.79,332.2,68.42,330.48,71Z"/><path class="cls-9" d="M307.48,44c2-4,6-5,11-5,3,0,7,3,9,5a28.77,28.77,0,0,1,4,6c-5-5-12-5-17,0-7-2-8,4-8,7C303.48,52,305.48,47,307.48,44Z"/><path class="cls-7" d="M334.48,59c-2,2-2,0-3,5a15.34,15.34,0,0,0-.26,1.76h0C328,70.53,315.48,69,313.48,66c17,5,20-14,18-16C335.48,51,336.48,57,334.48,59Z"/><path class="cls-8" d="M313.48,66a14.93,14.93,0,0,1-6-6,10.07,10.07,0,0,1-1-3c0-3,1-9,8-7-3,3-6,14.55,5.45,16.78A17.67,17.67,0,0,1,313.48,66Z"/><path class="cls-9" d="M312.55,53.32C312.48,57,319.48,64,326.48,64h.29a11.65,11.65,0,0,1-6.84,2.78C311.18,65.07,310.87,57.93,312.55,53.32Z"/><path class="cls-8" d="M316.36,48.42c4.77-3.34,10.72-2.82,15.12,1.58,1,1.06.7,6.86-2.37,11.35C330.74,50.74,321.48,49,316.36,48.42Z"/><path class="cls-7" d="M323.83,50.31c3.48,1.69,6.23,4.85,5.28,11A13.05,13.05,0,0,1,326.77,64h-.29a15.27,15.27,0,0,1-9.16-3.6C328.12,62.78,326.48,54,323.83,50.31Z"/><path class="cls-7" d="M312.55,53.32A9.35,9.35,0,0,1,314.48,50a14.45,14.45,0,0,1,1.88-1.58,23.51,23.51,0,0,1,7.47,1.89c1.37,1.91,2.46,5.17,1.72,7.55.92-8.86-15.3-6.7-9.2,1.71C314,57.46,312.52,55,312.55,53.32Z"/><path class="cls-8" d="M316.13,53.52C316.77,58,322.45,56,325,59c-1.08,1.55-3.4,2.37-7.68,1.42-.34-.27-.66-.54-1-.83C314.37,56.84,314.75,54.77,316.13,53.52Z"/><path class="cls-9" d="M316.13,53.52c2.86-2.59,10-1.64,9.42,4.34A4.17,4.17,0,0,1,325,59C322.45,56,316.77,58,316.13,53.52Z"/><path class="cls-7" d="M266.48,36c7-4,11,0,14,4a20.34,20.34,0,0,0-5,1C273.48,39,269.48,36,266.48,36Z"/><path class="cls-7" d="M258.48,70a11,11,0,0,0,4,2c10,3,13,0,16-4,3,1,5,0,7-1,3,11-7,15-9,14s-5,0-6,0c0,0-5,0-7-2a2.09,2.09,0,0,0-.55-.38v0S258.48,74,258.48,70Z"/><path class="cls-7" d="M245.48,47c1-4,7-6,10-6-2,3-4,8-1,13a10.07,10.07,0,0,0,1,3c-2,2-5,4-2,10-5-2-5,0-10-6-.31-.37-.59-.74-.84-1.1C240,55.55,242.73,47.92,245.48,47Z"/><path class="cls-8" d="M262.93,78.62c-2-1-4.71,2.21-7.45.38a12.68,12.68,0,0,0-6-1c-2,0-5-9-6-17,5,6,5,4,10,6,0,0,4,1,5,3,0,4,4.44,8.6,4.44,8.6Z"/><path class="cls-8" d="M279.48,61c1-5,1-3,3-5s1-8-3-9a28.77,28.77,0,0,0-4-6,20.34,20.34,0,0,1,5-1c3,0,7,4,10,5,6,3,2,9,3,11s1,8-8,11c-2,1-4,2-7,1C280.48,65,278.48,66,279.48,61Z"/><path class="cls-9" d="M278.48,68c-3,4-6,7-16,4a11,11,0,0,1-4-2c-1-2-5-3-5-3-3-6,0-8,2-10a14.93,14.93,0,0,0,6,6c2,3,14.48,4.53,17.74-.24h0C279,65.79,280.2,65.42,278.48,68Z"/><path class="cls-9" d="M255.48,41c2-4,6-5,11-5,3,0,7,3,9,5a28.77,28.77,0,0,1,4,6c-5-5-12-5-17,0-7-2-8,4-8,7C251.48,49,253.48,44,255.48,41Z"/><path class="cls-7" d="M282.48,56c-2,2-2,0-3,5a15.34,15.34,0,0,0-.26,1.76h0C276,67.53,263.48,66,261.48,63c17,5,20-14,18-16C283.48,48,284.48,54,282.48,56Z"/><path class="cls-8" d="M261.48,63a14.93,14.93,0,0,1-6-6,10.07,10.07,0,0,1-1-3c0-3,1-9,8-7-3,3-6,14.55,5.45,16.78A17.67,17.67,0,0,1,261.48,63Z"/><path class="cls-9" d="M260.55,50.32C260.48,54,267.48,61,274.48,61h.29a11.65,11.65,0,0,1-6.84,2.78C259.18,62.07,258.87,54.93,260.55,50.32Z"/><path class="cls-8" d="M264.36,45.42c4.77-3.34,10.72-2.82,15.12,1.58,1,1.06.7,6.86-2.37,11.35C278.74,47.74,269.48,46,264.36,45.42Z"/><path class="cls-7" d="M271.83,47.31c3.48,1.69,6.23,4.85,5.28,11A13.05,13.05,0,0,1,274.77,61h-.29a15.27,15.27,0,0,1-9.16-3.6C276.12,59.78,274.48,51,271.83,47.31Z"/><path class="cls-7" d="M260.55,50.32A9.35,9.35,0,0,1,262.48,47a14.45,14.45,0,0,1,1.88-1.58,23.51,23.51,0,0,1,7.47,1.89c1.37,1.91,2.46,5.17,1.72,7.55.92-8.86-15.3-6.7-9.2,1.71C262,54.46,260.52,52,260.55,50.32Z"/><path class="cls-8" d="M264.13,50.52C264.77,55,270.45,53,273,56c-1.08,1.55-3.4,2.37-7.68,1.42-.34-.27-.66-.54-1-.83C262.37,53.84,262.75,51.77,264.13,50.52Z"/><path class="cls-9" d="M264.13,50.52c2.86-2.59,10-1.64,9.42,4.34A4.17,4.17,0,0,1,273,56C270.45,53,264.77,55,264.13,50.52Z"/><path class="cls-7" d="M215.48,32c7-4,11,0,14,4a20.34,20.34,0,0,0-5,1C222.48,35,218.48,32,215.48,32Z"/><path class="cls-7" d="M207.48,66a11,11,0,0,0,4,2c10,3,13,0,16-4,3,1,5,0,7-1,3,11-7,15-9,14s-5,0-6,0c0,0-5,0-7-2a2.09,2.09,0,0,0-.55-.38v0S207.48,70,207.48,66Z"/><path class="cls-7" d="M194.48,43c1-4,7-6,10-6-2,3-4,8-1,13a10.07,10.07,0,0,0,1,3c-2,2-5,4-2,10-5-2-5,0-10-6-.31-.37-.59-.74-.84-1.1C189,51.55,191.73,43.92,194.48,43Z"/><path class="cls-8" d="M211.93,74.62c-2-1-4.71,2.21-7.45.38a12.68,12.68,0,0,0-6-1c-2,0-5-9-6-17,5,6,5,4,10,6,0,0,4,1,5,3,0,4,4.44,8.6,4.44,8.6Z"/><path class="cls-8" d="M228.48,57c1-5,1-3,3-5s1-8-3-9a28.77,28.77,0,0,0-4-6,20.34,20.34,0,0,1,5-1c3,0,7,4,10,5,6,3,2,9,3,11s1,8-8,11c-2,1-4,2-7,1C229.48,61,227.48,62,228.48,57Z"/><path class="cls-9" d="M227.48,64c-3,4-6,7-16,4a11,11,0,0,1-4-2c-1-2-5-3-5-3-3-6,0-8,2-10a14.93,14.93,0,0,0,6,6c2,3,14.48,4.53,17.74-.24h0C228,61.79,229.2,61.42,227.48,64Z"/><path class="cls-9" d="M204.48,37c2-4,6-5,11-5,3,0,7,3,9,5a28.77,28.77,0,0,1,4,6c-5-5-12-5-17,0-7-2-8,4-8,7C200.48,45,202.48,40,204.48,37Z"/><path class="cls-7" d="M231.48,52c-2,2-2,0-3,5a15.34,15.34,0,0,0-.26,1.76h0C225,63.53,212.48,62,210.48,59c17,5,20-14,18-16C232.48,44,233.48,50,231.48,52Z"/><path class="cls-8" d="M210.48,59a14.93,14.93,0,0,1-6-6,10.07,10.07,0,0,1-1-3c0-3,1-9,8-7-3,3-6,14.55,5.45,16.78A17.67,17.67,0,0,1,210.48,59Z"/><path class="cls-9" d="M209.55,46.32C209.48,50,216.48,57,223.48,57h.29a11.65,11.65,0,0,1-6.84,2.78C208.18,58.07,207.87,50.93,209.55,46.32Z"/><path class="cls-8" d="M213.36,41.42c4.77-3.34,10.72-2.82,15.12,1.58,1.05,1.06.7,6.86-2.37,11.35C227.74,43.74,218.48,42,213.36,41.42Z"/><path class="cls-7" d="M220.83,43.31c3.48,1.69,6.23,4.85,5.28,11A13.05,13.05,0,0,1,223.77,57h-.29a15.27,15.27,0,0,1-9.16-3.6C225.12,55.78,223.48,47,220.83,43.31Z"/><path class="cls-7" d="M209.55,46.32A9.35,9.35,0,0,1,211.48,43a14.45,14.45,0,0,1,1.88-1.58,23.51,23.51,0,0,1,7.47,1.89c1.37,1.91,2.46,5.17,1.72,7.55.92-8.86-15.3-6.7-9.2,1.71C211,50.46,209.52,48,209.55,46.32Z"/><path class="cls-8" d="M213.13,46.52C213.77,51,219.45,49,222,52c-1.08,1.55-3.4,2.37-7.68,1.42-.34-.27-.66-.54-1-.83C211.37,49.84,211.75,47.77,213.13,46.52Z"/><path class="cls-9" d="M213.13,46.52c2.86-2.59,10-1.64,9.42,4.34A4.17,4.17,0,0,1,222,52C219.45,49,213.77,51,213.13,46.52Z"/><path class="cls-7" d="M163.48,21c7-4,11,0,14,4a20.34,20.34,0,0,0-5,1C170.48,24,166.48,21,163.48,21Z"/><path class="cls-7" d="M155.48,55a11,11,0,0,0,4,2c10,3,13,0,16-4,3,1,5,0,7-1,3,11-7,15-9,14s-5,0-6,0c0,0-5,0-7-2a2.09,2.09,0,0,0-.55-.38v0S155.48,59,155.48,55Z"/><path class="cls-7" d="M142.48,32c1-4,7-6,10-6-2,3-4,8-1,13a10.07,10.07,0,0,0,1,3c-2,2-5,4-2,10-5-2-5,0-10-6-.31-.37-.59-.74-.84-1.1C137,40.55,139.73,32.92,142.48,32Z"/><path class="cls-8" d="M159.93,63.62c-2-1-4.71,2.21-7.45.38a12.68,12.68,0,0,0-6-1c-2,0-5-9-6-17,5,6,5,4,10,6,0,0,4,1,5,3,0,4,4.44,8.6,4.44,8.6Z"/><path class="cls-8" d="M176.48,46c1-5,1-3,3-5s1-8-3-9a28.77,28.77,0,0,0-4-6,20.34,20.34,0,0,1,5-1c3,0,7,4,10,5,6,3,2,9,3,11s1,8-8,11c-2,1-4,2-7,1C177.48,50,175.48,51,176.48,46Z"/><path class="cls-9" d="M175.48,53c-3,4-6,7-16,4a11,11,0,0,1-4-2c-1-2-5-3-5-3-3-6,0-8,2-10a14.93,14.93,0,0,0,6,6c2,3,14.48,4.53,17.74-.24h0C176,50.79,177.2,50.42,175.48,53Z"/><path class="cls-9" d="M152.48,26c2-4,6-5,11-5,3,0,7,3,9,5a28.77,28.77,0,0,1,4,6c-5-5-12-5-17,0-7-2-8,4-8,7C148.48,34,150.48,29,152.48,26Z"/><path class="cls-7" d="M179.48,41c-2,2-2,0-3,5a15.34,15.34,0,0,0-.26,1.76h0C173,52.53,160.48,51,158.48,48c17,5,20-14,18-16C180.48,33,181.48,39,179.48,41Z"/><path class="cls-8" d="M158.48,48a14.93,14.93,0,0,1-6-6,10.07,10.07,0,0,1-1-3c0-3,1-9,8-7-3,3-6,14.55,5.45,16.78A17.67,17.67,0,0,1,158.48,48Z"/><path class="cls-9" d="M157.55,35.32C157.48,39,164.48,46,171.48,46h.29a11.65,11.65,0,0,1-6.84,2.78C156.18,47.07,155.87,39.93,157.55,35.32Z"/><path class="cls-8" d="M161.36,30.42c4.77-3.34,10.72-2.82,15.12,1.58,1.05,1.06.7,6.86-2.37,11.35C175.74,32.74,166.48,31,161.36,30.42Z"/><path class="cls-7" d="M168.83,32.31c3.48,1.69,6.23,4.85,5.28,11A13.05,13.05,0,0,1,171.77,46h-.29a15.27,15.27,0,0,1-9.16-3.6C173.12,44.78,171.48,36,168.83,32.31Z"/><path class="cls-7" d="M157.55,35.32A9.35,9.35,0,0,1,159.48,32a14.45,14.45,0,0,1,1.88-1.58,23.51,23.51,0,0,1,7.47,1.89c1.37,1.91,2.46,5.17,1.72,7.55.92-8.86-15.3-6.7-9.2,1.71C159,39.46,157.52,37,157.55,35.32Z"/><path class="cls-8" d="M161.13,35.52C161.77,40,167.45,38,170,41c-1.08,1.55-3.4,2.37-7.68,1.42-.34-.27-.66-.54-1-.83C159.37,38.84,159.75,36.77,161.13,35.52Z"/><path class="cls-9" d="M161.13,35.52c2.86-2.59,10-1.64,9.42,4.34A4.17,4.17,0,0,1,170,41C167.45,38,161.77,40,161.13,35.52Z"/><path class="cls-7" d="M113.48,3c7-4,11,0,14,4a20.34,20.34,0,0,0-5,1C120.48,6,116.48,3,113.48,3Z"/><path class="cls-7" d="M105.48,37a11,11,0,0,0,4,2c10,3,13,0,16-4,3,1,5,0,7-1,3,11-7,15-9,14s-5,0-6,0c0,0-5,0-7-2a2.09,2.09,0,0,0-.55-.38v0S105.48,41,105.48,37Z"/><path class="cls-7" d="M92.48,14c1-4,7-6,10-6-2,3-4,8-1,13a10.07,10.07,0,0,0,1,3c-2,2-5,4-2,10-5-2-5,0-10-6-.31-.37-.59-.74-.84-1.1C87,22.55,89.73,14.92,92.48,14Z"/><path class="cls-8" d="M109.93,45.62c-2-1-4.71,2.21-7.45.38a12.68,12.68,0,0,0-6-1c-2,0-5-9-6-17,5,6,5,4,10,6,0,0,4,1,5,3,0,4,4.44,8.6,4.44,8.6Z"/><path class="cls-8" d="M126.48,28c1-5,1-3,3-5s1-8-3-9a28.77,28.77,0,0,0-4-6,20.34,20.34,0,0,1,5-1c3,0,7,4,10,5,6,3,2,9,3,11s1,8-8,11c-2,1-4,2-7,1C127.48,32,125.48,33,126.48,28Z"/><path class="cls-9" d="M125.48,35c-3,4-6,7-16,4a11,11,0,0,1-4-2c-1-2-5-3-5-3-3-6,0-8,2-10a14.93,14.93,0,0,0,6,6c2,3,14.48,4.53,17.74-.24h0C126,32.79,127.2,32.42,125.48,35Z"/><path class="cls-9" d="M102.48,8c2-4,6-5,11-5,3,0,7,3,9,5a28.77,28.77,0,0,1,4,6c-5-5-12-5-17,0-7-2-8,4-8,7C98.48,16,100.48,11,102.48,8Z"/><path class="cls-7" d="M129.48,23c-2,2-2,0-3,5a15.34,15.34,0,0,0-.26,1.76h0C123,34.53,110.48,33,108.48,30c17,5,20-14,18-16C130.48,15,131.48,21,129.48,23Z"/><path class="cls-8" d="M108.48,30a14.93,14.93,0,0,1-6-6,10.07,10.07,0,0,1-1-3c0-3,1-9,8-7-3,3-6,14.55,5.45,16.78A17.67,17.67,0,0,1,108.48,30Z"/><path class="cls-9" d="M107.55,17.32C107.48,21,114.48,28,121.48,28h.29a11.65,11.65,0,0,1-6.84,2.78C106.18,29.07,105.87,21.93,107.55,17.32Z"/><path class="cls-8" d="M111.36,12.42c4.77-3.34,10.72-2.82,15.12,1.58,1,1.06.7,6.86-2.37,11.35C125.74,14.74,116.48,13,111.36,12.42Z"/><path class="cls-7" d="M118.83,14.31c3.48,1.69,6.23,4.85,5.28,11A13.05,13.05,0,0,1,121.77,28h-.29a15.27,15.27,0,0,1-9.16-3.6C123.12,26.78,121.48,18,118.83,14.31Z"/><path class="cls-7" d="M107.55,17.32A9.35,9.35,0,0,1,109.48,14a14.45,14.45,0,0,1,1.88-1.58,23.51,23.51,0,0,1,7.47,1.89c1.37,1.91,2.46,5.17,1.72,7.55.92-8.86-15.3-6.7-9.2,1.71C109,21.46,107.52,19,107.55,17.32Z"/><path class="cls-8" d="M111.13,17.52C111.77,22,117.45,20,120,23c-1.08,1.55-3.4,2.37-7.68,1.42-.34-.27-.66-.54-1-.83C109.37,20.84,109.75,18.77,111.13,17.52Z"/><path class="cls-9" d="M111.13,17.52c2.86-2.59,10-1.64,9.42,4.34A4.17,4.17,0,0,1,120,23C117.45,20,111.77,22,111.13,17.52Z"/></g></g></g></g></svg>