<svg xmlns="http://www.w3.org/2000/svg" viewBox="0 0 198.57 323.07"><defs><style>.cls-1{fill:#666269;}.cls-2{fill:#28262a;}.cls-3{fill:#b40110;}.cls-10,.cls-4{fill:#fff6df;}.cls-18,.cls-5{fill:none;}.cls-6,.cls-9{fill:#ddc19a;}.cls-11,.cls-7{fill:#1b7aaf;}.cls-12,.cls-8{fill:#ad1ca3;}.cls-10,.cls-11,.cls-12,.cls-9{opacity:0.2;}.cls-13{fill:#f69220;}.cls-14{fill:#fff;}.cls-15{fill:#b21a40;}.cls-16{fill:#bb3657;}.cls-17{fill:#1e1e1e;}.cls-18{stroke:#1e1e1e;stroke-miterlimit:10;stroke-width:0.5px;}</style></defs><title>Skeleton 3</title><g id="Layer_2" data-name="Layer 2"><g id="Page_2" data-name="Page 2"><g id="Skeleton"><g id="Hat"><path class="cls-1" d="M88.58,8.61C84-2.68,80-.57,69.88,2.18c-15.3,4.74-20.35,6.44-18.31,17.3S88.58,8.61,88.58,8.61Z"/><path class="cls-2" d="M136.15,39.58c6.83-5.75,11.79-18.89,2.5-25.33S101.32,3.3,70.12,12.72s-61.5,28.84-63,38S11.08,68,23.41,68.42s84-31.14,84.6-31.08Z"/><path class="cls-3" d="M23.41,68.42c-8.35-3.36-8.46-8.3-4.24-14.11,9.25-12.74,27.52-22.77,46.61-28.39S99.93,18,124.84,22.84c14.55,3.23,13.56,11.59,11.31,16.74S23.41,68.42,23.41,68.42Z"/><path class="cls-1" d="M69.78,29.39c39.41-11.12,74.4-1.63,65,13-4.32,6.39-23.3,10.79-23.3,10.79C96.34,56,69.22,61.51,39.53,68c-12.67,3.13-28.61,1.62-14.67-15C40,37.1,69.78,29.39,69.78,29.39Z"/><path class="cls-4" d="M68,24A2.42,2.42,0,0,1,66.37,23a4.69,4.69,0,0,1-.05-5.42l.16-.29a4,4,0,0,0-2.72,2.23c-.55.29-1.11.24-1-.54,1.33-2.49,2.88-3.12,4.47-2.75a2.45,2.45,0,0,1,2.82-.85.7.7,0,0,1-.46,1,1.38,1.38,0,0,0-1.26.36A5.39,5.39,0,0,1,69.92,21c0,2.12-.8,2.74-1.3,2.92A1.69,1.69,0,0,1,68,24Zm-.35-6.32a4,4,0,0,0-.29.51,3.55,3.55,0,0,0-.06,4.14c.32.4.73.62,1,.52s.58-.63.56-1.83A4.24,4.24,0,0,0,67.6,17.64Z"/><path class="cls-4" d="M56.64,27.8A2.41,2.41,0,0,1,55,26.87a4.72,4.72,0,0,1-.17-5.49l.15-.29a4,4,0,0,0-2.71,2.32c-.55.3-1.12.26-1-.53,1.28-2.55,2.84-3.23,4.47-2.88a2.46,2.46,0,0,1,2.83-.93.72.72,0,0,1-.44,1.06,1.34,1.34,0,0,0-1.27.38,5.44,5.44,0,0,1,1.69,4.21c.09,2.14-.74,2.79-1.25,3A1.39,1.39,0,0,1,56.64,27.8Zm-.5-6.4c-.1.16-.19.33-.29.53a3.62,3.62,0,0,0,0,4.2c.34.4.75.61,1,.5s.56-.65.52-1.87A4.28,4.28,0,0,0,56.14,21.4Z"/><path class="cls-4" d="M45.72,32.24a2.29,2.29,0,0,1-1.6-.79,4.53,4.53,0,0,1-.47-5.22c0-.1.08-.19.13-.29a3.81,3.81,0,0,0-2.45,2.36c-.5.33-1,.32-1-.44,1.09-2.5,2.53-3.24,4.1-3a2.37,2.37,0,0,1,2.65-1,.69.69,0,0,1-.36,1,1.33,1.33,0,0,0-1.19.44,5.22,5.22,0,0,1,1.85,3.91c.19,2-.56,2.7-1,2.91A1.37,1.37,0,0,1,45.72,32.24Zm-.84-6.06q-.12.22-.24.51a3.45,3.45,0,0,0,.27,4c.34.36.75.54,1,.43s.5-.66.39-1.81A4.06,4.06,0,0,0,44.88,26.18Z"/><path class="cls-4" d="M36.77,37.23A2.37,2.37,0,0,1,35,36.67a4.63,4.63,0,0,1-1.27-5.21l.09-.32a3.92,3.92,0,0,0-2.12,2.77c-.46.4-1,.48-1.08-.3.72-2.7,2.07-3.67,3.7-3.66a2.42,2.42,0,0,1,2.52-1.46.7.7,0,0,1-.21,1.1,1.35,1.35,0,0,0-1.14.63A5.3,5.3,0,0,1,38,33.9c.51,2-.15,2.81-.59,3.1A1.6,1.6,0,0,1,36.77,37.23Zm-1.77-6c-.06.17-.11.36-.16.56a3.53,3.53,0,0,0,.88,4c.4.31.84.43,1.06.28s.41-.74.12-1.89A4.18,4.18,0,0,0,35,31.21Z"/><path class="cls-4" d="M28,42.92a2.32,2.32,0,0,1-1.76-.37,4.57,4.57,0,0,1-1.8-5c0-.11,0-.22.05-.32a3.85,3.85,0,0,0-1.78,2.94c-.42.45-.95.58-1.09-.18.41-2.73,1.64-3.82,3.23-4a2.39,2.39,0,0,1,2.33-1.7.69.69,0,0,1-.09,1.1,1.29,1.29,0,0,0-1.05.74,5.21,5.21,0,0,1,2.81,3.35c.72,1.94.15,2.78-.26,3.11A1.42,1.42,0,0,1,28,42.92ZM25.58,37.2c0,.17-.07.36-.1.57a3.49,3.49,0,0,0,1.29,3.84c.43.26.87.33,1.07.16s.33-.77-.08-1.87A4.13,4.13,0,0,0,25.58,37.2Z"/><path class="cls-4" d="M20.78,49.49a2.56,2.56,0,0,1-2,.2,5,5,0,0,1-3.52-4.56c0-.11,0-.23-.05-.34a4.19,4.19,0,0,0-.87,3.63c-.28.61-.79.92-1.19.18-.48-3,.43-4.5,2-5.2.22-2.12,1.76-2.57,1.84-2.53A.75.75,0,0,1,17.33,42a1.44,1.44,0,0,0-.84,1.11,5.72,5.72,0,0,1,4,2.53c1.38,1.77,1.08,2.83.77,3.31A1.74,1.74,0,0,1,20.78,49.49Zm-4.36-5.14a5.17,5.17,0,0,0,.08.63,3.82,3.82,0,0,0,2.61,3.55c.53.13,1,0,1.17-.19s.08-.91-.71-1.91C18.52,45.08,17.39,44.35,16.42,44.35Z"/><path class="cls-4" d="M15.66,56.93a2.31,2.31,0,0,1-1.63.63,4.41,4.41,0,0,1-4.09-3.08l-.13-.28a3.74,3.74,0,0,0,.11,3.32c-.1.58-.46,1-1,.43-1.11-2.43-.69-4,.52-4.94a2.33,2.33,0,0,1,1-2.61.67.67,0,0,1,.51.94,1.3,1.3,0,0,0-.46,1.16,5.08,5.08,0,0,1,4,1.22c1.61,1.19,1.59,2.18,1.44,2.66A1.4,1.4,0,0,1,15.66,56.93Zm-4.95-3.38q.09.24.21.51A3.39,3.39,0,0,0,14,56.49c.49,0,.89-.19,1-.44s-.15-.79-1.06-1.47A4,4,0,0,0,10.71,53.55Z"/><path class="cls-4" d="M78.84,20.93a2.52,2.52,0,0,1-1.47-1.29A4.94,4.94,0,0,1,78.32,14l.22-.27a4.17,4.17,0,0,0-3.25,1.82c-.63.2-1.21,0-.94-.75,1.85-2.35,3.58-2.72,5.18-2a2.58,2.58,0,0,1,3.09-.36.75.75,0,0,1-.66,1,1.44,1.44,0,0,0-1.39.14,5.64,5.64,0,0,1,.87,4.65c-.35,2.22-1.34,2.71-1.89,2.81A1.7,1.7,0,0,1,78.84,20.93Zm.8-6.66c-.13.14-.26.3-.4.48a3.8,3.8,0,0,0-.83,4.31c.27.48.65.78.93.72s.72-.55.92-1.81C80.53,16.3,80.3,15,79.64,14.27Z"/><path class="cls-4" d="M90.4,18.34A2.49,2.49,0,0,1,89,17a4.85,4.85,0,0,1,1.27-5.47c.08-.09.15-.18.23-.26a4.1,4.1,0,0,0-3.28,1.59c-.63.16-1.18,0-.87-.79,1.94-2.19,3.66-2.45,5.18-1.68a2.54,2.54,0,0,1,3.05-.17.74.74,0,0,1-.72.93,1.39,1.39,0,0,0-1.36,0,5.54,5.54,0,0,1,.57,4.6c-.48,2.14-1.47,2.56-2,2.63A1.79,1.79,0,0,1,90.4,18.34Zm1.19-6.46a3.57,3.57,0,0,0-.42.44,3.71,3.71,0,0,0-1.07,4.17c.23.48.58.79.86.76s.74-.5,1-1.71C92.33,13.91,92.19,12.61,91.59,11.88Z"/><path class="cls-4" d="M101.64,18.16a2.43,2.43,0,0,1-1.22-1.42,4.71,4.71,0,0,1,1.66-5.23,2.55,2.55,0,0,1,.24-.23A4,4,0,0,0,99,12.57c-.62.1-1.15-.13-.79-.84,2.07-2,3.76-2.1,5.18-1.23a2.49,2.49,0,0,1,3,.06.71.71,0,0,1-.76.85,1.41,1.41,0,0,0-1.33-.05,5.46,5.46,0,0,1,.2,4.53c-.64,2-1.64,2.38-2.17,2.4A1.67,1.67,0,0,1,101.64,18.16ZM103.29,12c-.14.12-.29.25-.44.4a3.62,3.62,0,0,0-1.36,4c.18.49.51.82.78.81s.75-.43,1.11-1.59A4.3,4.3,0,0,0,103.29,12Z"/><path class="cls-4" d="M112.73,18.57a2.48,2.48,0,0,1-1-1.56,4.74,4.74,0,0,1,2.3-5l.27-.2a4,4,0,0,0-3.46.87c-.63,0-1.13-.26-.68-.93,2.3-1.71,4-1.62,5.3-.59a2.49,2.49,0,0,1,3,.44.72.72,0,0,1-.87.75,1.36,1.36,0,0,0-1.31-.22,5.45,5.45,0,0,1-.36,4.53c-.89,2-1.92,2.17-2.46,2.12A1.51,1.51,0,0,1,112.73,18.57Zm2.42-6c-.16.1-.32.21-.49.34a3.65,3.65,0,0,0-1.85,3.79c.12.51.4.88.68.91s.8-.34,1.3-1.45A4.31,4.31,0,0,0,115.15,12.6Z"/><path class="cls-4" d="M124.62,20.9a2.44,2.44,0,0,1-1-1.62,4.75,4.75,0,0,1,2.58-4.88,1.67,1.67,0,0,1,.28-.18,4,4,0,0,0-3.52.68c-.64,0-1.11-.32-.63-1,2.39-1.59,4.09-1.41,5.34-.3a2.49,2.49,0,0,1,2.94.6.73.73,0,0,1-.91.71,1.37,1.37,0,0,0-1.3-.3,5.5,5.5,0,0,1-.61,4.52c-1,1.92-2,2.07-2.58,2A1.53,1.53,0,0,1,124.62,20.9Zm2.75-5.84a5.19,5.19,0,0,0-.51.32,3.64,3.64,0,0,0-2.06,3.69c.1.51.36.9.63.94s.82-.29,1.38-1.38A4.31,4.31,0,0,0,127.37,15.06Z"/><path class="cls-4" d="M134.18,25.53a2.43,2.43,0,0,1-.32-1.85A4.76,4.76,0,0,1,138,20l.33-.07a4,4,0,0,0-3.53-.61c-.59-.22-.92-.69-.24-1.12,2.8-.64,4.32.13,5.09,1.61a2.49,2.49,0,0,1,2.53,1.6.72.72,0,0,1-1.1.34A1.37,1.37,0,0,0,140,21a5.43,5.43,0,0,1-2.17,4c-1.61,1.44-2.64,1.21-3.11.95A1.61,1.61,0,0,1,134.18,25.53Zm4.63-4.48a5.41,5.41,0,0,0-.59.11A3.63,3.63,0,0,0,135,23.88c-.1.51,0,1,.25,1.1s.87,0,1.78-.79A4.31,4.31,0,0,0,138.81,21.05Z"/></g><path class="cls-4" d="M87.51,137l17.64,3.29a47.86,47.86,0,0,0-.07-5.41l-18.29-3.41a1.95,1.95,0,1,1,.72-3.83l17.2,3.2c-.1-.9-.21-1.83-.35-2.81s-.27-1.75-.44-2.59L86,122.08a1.95,1.95,0,1,1,.72-3.83l16.13,3a29.6,29.6,0,0,0-2.37-5.55l-16-3a1.95,1.95,0,1,1,.72-3.83l12,2.23c-6.2-6.64-14.51-7.31-18.56-7.31s-12.37.67-18.56,7.31l12-2.23a1.95,1.95,0,1,1,.72,3.83l-16,3a30.27,30.27,0,0,0-2.37,5.55l16.13-3a1.95,1.95,0,1,1,.72,3.83l-17.91,3.34c-.16.84-.32,1.69-.44,2.59s-.25,1.91-.35,2.81l17.2-3.2a1.95,1.95,0,1,1,.72,3.83l-18.28,3.41a48.1,48.1,0,0,0-.08,5.41L69.68,137A2,2,0,0,1,72,138.55a1.94,1.94,0,0,1-1.56,2.27l-17.87,3.33c1.36,5.94,5.06,5.44,8.11,4.94,4.68-.78,14-2.35,18-2.35s13.27,1.57,18,2.35c3,.5,6.75,1,8.11-4.94l-17.87-3.33a2,2,0,0,1-1.56-2.27A2,2,0,0,1,87.51,137Z"/><path class="cls-4" d="M97.34,172.51c0-3.9,0-6.25-3.13-8.59s-11.71,4.69-15.61,4.69-12.5-7-15.62-4.69-3.12,4.69-3.12,8.59-9.37,7-6.25,12.49,7.81,6.25,10.93,5.47,9.37-2.34,14.06-2.34,10.93,1.56,14.05,2.34,7.81,0,10.93-5.47S97.34,176.41,97.34,172.51Z"/><path class="cls-4" d="M102.37,193.59c-3.12-2.34-7,2.34-3.12,4.69,1.56,1.56,1.56,1.56,2.34,5.46l8.59,35.14c.78,3.12-.78,3.9-.78,3.9-2.35,2.34,2.34,7.81,5.46,3.13,4.69,2.34,7-3.91,2.34-5.47a2.77,2.77,0,0,1-1.56-2.34l-9.37-38.26c0-.78,0-.78.78-2.34C110.18,192,103.93,190.47,102.37,193.59Z"/><path class="cls-4" d="M118.93,320.77a.57.57,0,1,0,.67.9c.4-.18.4-.18,1.18-.06l7.19.78c.64.07.69.42.69.42.28.6,1.62.09,1-.82.76-.72-.26-1.59-.87-.81a.55.55,0,0,1-.55.13l-7.83-.85c-.15,0-.15,0-.39-.31C119.17,319.19,118.45,320.26,118.93,320.77Z"/><path class="cls-4" d="M115.79,250.77c-2.12-3.35-7.52-.32-4.66,3.31.92,2,.92,2,.25,6l-4.56,36.44c-.38,3.24-2.15,3.42-2.15,3.42-3.07,1.37-.6,8.25,4.06,4.94,3.59,3.91,8.07-1.17,4.19-4.34a2.84,2.84,0,0,1-.63-2.79l4.94-39.68c.28-.74.28-.74,1.59-1.94C123.76,252.11,118.4,248.37,115.79,250.77Z"/><path class="cls-4" d="M77.41,160.8h2.37a3.5,3.5,0,0,1,3.5,3.5v.57a1.4,1.4,0,0,1-1.4,1.4H75.31a1.4,1.4,0,0,1-1.4-1.4v-.57A3.5,3.5,0,0,1,77.41,160.8Z"/><path class="cls-4" d="M77.93,154.38h1.33a3.32,3.32,0,0,1,3.32,3.32v0A1.33,1.33,0,0,1,81.25,159H75.94a1.33,1.33,0,0,1-1.33-1.33v0A3.32,3.32,0,0,1,77.93,154.38Z"/><path class="cls-4" d="M77.93,98.16h1.33a3.32,3.32,0,0,1,3.32,3.32v0a1.33,1.33,0,0,1-1.33,1.33H75.94a1.33,1.33,0,0,1-1.33-1.33v0a3.32,3.32,0,0,1,3.32-3.32Z"/><path class="cls-4" d="M78,148.21h1.17a2.93,2.93,0,0,1,2.93,2.93v0a1.17,1.17,0,0,1-1.17,1.17H76.25a1.17,1.17,0,0,1-1.17-1.17v0A2.93,2.93,0,0,1,78,148.21Z"/><path class="cls-4" d="M78,92h1.17a2.93,2.93,0,0,1,2.93,2.93v0a1.17,1.17,0,0,1-1.17,1.17H76.25a1.17,1.17,0,0,1-1.17-1.17v0A2.93,2.93,0,0,1,78,92Z"/><path class="cls-4" d="M137.78,321.19c.74.28-.05,1.26-.59.7-.13-.18-.77-.13-.77-.13l-4.31.24c-.49.08-.52.23-.52.23-.58.7-1.28.11-.87-.46-.54-.56.23-1.38.77-.82.13.18.61.1.61.1l4.65-.34c.33-.11.36-.26.36-.26C137.7,319.75,138.34,320.65,137.78,321.19Z"/><path class="cls-4" d="M109.44,120.76c-.59-4.16,5.83-2.9,4.63,1-.49,1,1.36,3.9,1.36,3.9l11.92,19.47c1.58,2.08,2.34,1.81,2.34,1.81,4.63,1,3.7,5.71.1,5.22-1.2,3.92-6.86,2.39-5.66-1.53.49-1.05-1.09-3.12-1.09-3.12l-13.22-20.77c-1.31-1.3-2.07-1-2.07-1C103.12,124.72,105.58,119.49,109.44,120.76Z"/><path class="cls-4" d="M53.74,109c1-3.84-5.24-3.49-4.54.35.35,1-1.74,3.5-1.74,3.5l-13.6,16.78c-1.74,1.74-2.44,1.4-2.44,1.4-4.54.35-4.19,4.89-.69,4.88.7,3.84,6.28,3.14,5.58-.7-.35-1,1.39-2.8,1.39-2.8l15-17.82c1.39-1,2.09-.7,2.09-.7C59.33,113.52,57.58,108.29,53.74,109Z"/><path class="cls-4" d="M107.49,309.15c1.56-1.56,6.24-1.56,5.46,3.12,7,5.47,6.25,11.71,1.56,10.15s-7.81-3.12-10.93-.78-6.24-.78-3.9-3.9a44.53,44.53,0,0,1,3.12-3.91C99.68,309.93,104.36,306.81,107.49,309.15Z"/><path class="cls-4" d="M55.24,193.59c3.13-2.34,7,2.34,3.13,4.69-1.57,1.56-1.57,1.56-2.35,5.46l-8.59,35.14c-.78,3.12.79,3.9.79,3.9,2.34,2.34-2.35,7.81-5.47,3.13-4.69,2.34-7-3.91-2.34-5.47A2.77,2.77,0,0,0,42,238.1l9.37-38.26c0-.78,0-.78-.78-2.34C47.43,192,53.68,190.47,55.24,193.59Z"/><path class="cls-4" d="M38.68,320.77c.66.43,0,1.48-.66.9-.4-.18-.4-.18-1.19-.06l-7.19.78c-.64.07-.68.42-.68.42-.28.6-1.63.09-1-.82-.76-.72.25-1.59.86-.81a.55.55,0,0,0,.55.13l7.83-.85c.15,0,.15,0,.39-.31C38.44,319.19,39.16,320.26,38.68,320.77Z"/><path class="cls-4" d="M41.83,250.77c2.11-3.35,7.51-.32,4.65,3.31-.91,2-.91,2-.24,6l4.55,36.44c.39,3.24,2.15,3.42,2.15,3.42,3.07,1.37.6,8.25-4.06,4.94-3.59,3.91-8.07-1.17-4.19-4.34a2.81,2.81,0,0,0,.63-2.79L40.38,258.1c-.28-.74-.28-.74-1.59-1.94C33.86,252.11,39.22,248.37,41.83,250.77Z"/><path class="cls-4" d="M19.83,321.19c-.74.28.05,1.26.59.7.13-.18.77-.13.77-.13l4.32.24c.48.08.51.23.51.23.59.7,1.28.11.87-.46.54-.56-.23-1.38-.77-.82-.12.18-.61.1-.61.1l-4.65-.34c-.33-.11-.36-.26-.36-.26C19.91,319.75,19.27,320.65,19.83,321.19Z"/><path class="cls-4" d="M50.13,309.15c-1.56-1.56-6.25-1.56-5.47,3.12-7,5.47-6.25,11.71-1.56,10.15s7.81-3.12,10.93-.78,6.25-.78,3.9-3.9a44.53,44.53,0,0,0-3.12-3.91C57.93,309.93,53.25,306.81,50.13,309.15Z"/><path class="cls-5" d="M79.45,66.89c-1.89,0-3.89,4.93-3.29,6.2S78,75,79.34,71.28c1.8,3.81,2.45,2.57,3.1,2S82,67,79.45,66.89Z"/><path class="cls-5" d="M94.61,47.64c-7.75-1.59-12.2,6.8-9.48,11.82S94.79,70.31,99.18,64,99.55,48.47,94.61,47.64Z"/><path class="cls-5" d="M66.73,46.83a11.83,11.83,0,0,0-1.42.12,5.25,5.25,0,0,0-1.83.6l-.44.26a9.06,9.06,0,0,0-2.35,2.32,11.8,11.8,0,0,0-1.21,2.12,5.89,5.89,0,0,0-.24.58A12.72,12.72,0,0,0,58.45,56q-.08.66-.09,1.32c0,.22,0,.44,0,.67a9.83,9.83,0,0,0,.13,1.32c0,.22.08.44.13.66a10.93,10.93,0,0,0,.66,2A10,10,0,0,0,60,63.12q.2.3.39.57a7.08,7.08,0,0,0,.84.94,5.36,5.36,0,0,0,1.35,1,5,5,0,0,0,2,.48,6.18,6.18,0,0,0,2-.27,11.53,11.53,0,0,0,3.92-2.21l.45-.39a17.22,17.22,0,0,0,2-2.15c.13-.15.24-.3.36-.46.34-.45.66-.92.94-1.38a6.45,6.45,0,0,0,.47-1,7.46,7.46,0,0,0,.41-1.56,8,8,0,0,0,0-2.19,8.93,8.93,0,0,0-1-3.22c-.09-.17-.18-.33-.29-.5a8.59,8.59,0,0,0-1-1.37,7.1,7.1,0,0,0-.85-.79,7.86,7.86,0,0,0-4.5-1.76C67.18,46.84,67,46.83,66.73,46.83Z"/><path class="cls-6" d="M86,78.85c-1.32,6.11-5.64,7.87-7.36.49-.13,8-5.63,7.26-6.74.51A12.49,12.49,0,0,1,71,82.06c1,4.12,2.79,6.37,6.48,7.67h.37c7.35.12,11.47-2.58,11.62-5.48h0C88.11,84.82,86.61,82.8,86,78.85Z"/><path class="cls-4" d="M64.5,66.06a5,5,0,0,1-2-.48A5,5,0,0,0,64.5,66.06Z"/><path class="cls-4" d="M70.61,45.66h0Z"/><path class="cls-4" d="M60,66.22a6.61,6.61,0,0,1-1,.52c.14.27.28.54.43.8a6.49,6.49,0,0,1,.56-1.28Z"/><path class="cls-4" d="M59.3,61.88a10.93,10.93,0,0,1-.66-2A10.93,10.93,0,0,0,59.3,61.88Z"/><path class="cls-4" d="M58.45,56a12.72,12.72,0,0,1,.79-3.13A12.72,12.72,0,0,0,58.45,56Z"/><path class="cls-4" d="M58.36,57.28q0-.66.09-1.32Q58.38,56.62,58.36,57.28Z"/><path class="cls-4" d="M60.36,63.69a7.08,7.08,0,0,0,.84.94A7.08,7.08,0,0,1,60.36,63.69Z"/><path class="cls-4" d="M59.48,52.25a11.8,11.8,0,0,1,1.21-2.12A11.8,11.8,0,0,0,59.48,52.25Z"/><path class="cls-4" d="M63,47.81a9.06,9.06,0,0,0-2.35,2.32A9.06,9.06,0,0,1,63,47.81Z"/><path class="cls-4" d="M58.51,59.27A9.83,9.83,0,0,1,58.38,58,9.83,9.83,0,0,0,58.51,59.27Z"/><path class="cls-4" d="M66.73,46.83a11.83,11.83,0,0,0-1.42.12,5.25,5.25,0,0,0-1.83.6,5.25,5.25,0,0,1,1.83-.6A11.83,11.83,0,0,1,66.73,46.83Z"/><path class="cls-4" d="M108.48,54.11C105,41.2,97.73,37.4,91.65,34.85l-.44-.17h0l0,0c2,2.14.11,4.27-2.29,1.39L89,36l-.14.08c1.35,2.47-.41,4.27-2.43,1.11h0c1,2.47-1.21,4.24-2.46.72h0c.73,2.69-1.78,4.12-2.53.27h0c0,2.74-2.86,3.57-2.51-.27h-.06c-.72,2.63-3.46,2.92-2.25-.8l0,0c-1.39,2.24-4.14,1.76-2-1.28h0a2.83,2.83,0,0,1-2.38,1,45.91,45.91,0,0,0-8.54,6.89A7.57,7.57,0,0,1,64.63,45c-.28-3.49,2.54-5,3-.05h0c.52-3.41,4.13-4.22,3,.71,1.55-3,5.22-2.59,2.69,1.75h0c2.37-2.47,5.7-.9,2,2.5v0c2.57-1.14,5,1.26,1.17,2.84,0,0,0,0,0,.06,2.87-.29,4.55,3.12.28,3.31,0,0,0,0,0,.06,2.77.63,3.26,4.06-.8,3v0c3.11,1.88,2.58,5.37-1.82,2.71l0,0c3,2.23,1.75,5.7-2.24,2.39l0,0c2.49,2.85.68,6.23-2.69,2l0,0c1.39,4.32-1.27,5.13-3,1.32H66c-.51,4.21-3.17,3.94-3.19,0h0a5.37,5.37,0,0,1-1.9,1.76,19.65,19.65,0,0,0,9.28,6.18c0,.42.06.83.1,1.23,6.56-4,19.43-1.22,19.21,7.29,1.2-.49,2.32-2.93,2.69-7.75C100.17,74.8,111.94,67,108.48,54.11Zm-39.1,21a.66.66,0,1,1,.67-.64A.65.65,0,0,1,69.38,75.14Zm2.5-1.34a.49.49,0,0,1,0-1,.49.49,0,0,1,.49.5A.5.5,0,0,1,71.88,73.8Zm10.56-.56c-.65.61-1.3,1.85-3.1-2C78,75,76.76,74.36,76.16,73.09s1.4-6.25,3.29-6.2C82,67,83.08,72.63,82.44,73.24Zm2.72-.36a.49.49,0,0,1-.49-.5.51.51,0,0,1,.51-.49.5.5,0,0,1,.48.51A.48.48,0,0,1,85.16,72.88Zm2.43,1.46a.66.66,0,0,1,0-1.32.67.67,0,0,1,.65.68A.66.66,0,0,1,87.59,74.34Zm2.85,1.47a.83.83,0,1,1,.84-.81A.82.82,0,0,1,90.44,75.81ZM99.18,64c-4.39,6.27-11.34.44-14.05-4.58s1.73-13.41,9.48-11.82C99.55,48.47,103.58,57.77,99.18,64Z"/><path class="cls-4" d="M61.68,46a1.71,1.71,0,0,0-.11.14l.28.25A4.21,4.21,0,0,1,61.68,46Z"/><path class="cls-4" d="M58.14,63.65l-.21.07a.83.83,0,0,1,0,.15l.2-.17Z"/><path class="cls-4" d="M70.29,77A36.59,36.59,0,0,0,71,82.06a12.49,12.49,0,0,0,.89-2.21c1.11,6.75,6.61,7.45,6.74-.51,1.72,7.38,6,5.62,7.36-.49.59,4,2.09,6,3.48,5.41C89.72,75.75,76.85,72.94,70.29,77Z"/><path class="cls-7" d="M70.63,45.67v0c1.08-4.93-2.53-4.12-3-.71h0a9.56,9.56,0,0,1,3,.72Z"/><path class="cls-7" d="M61.85,46.36l0,0a7,7,0,0,1,2.77-1.27s0-.08,0-.12a7.57,7.57,0,0,0-1.06-1.3A24.05,24.05,0,0,0,61.68,46,4.21,4.21,0,0,0,61.85,46.36Z"/><path class="cls-7" d="M61.86,46.39v0l-.28-.25c-.3.41-.58.84-.85,1.27A8.79,8.79,0,0,1,61.86,46.39Z"/><path class="cls-7" d="M61.87,46.38l0,0v0Z"/><path class="cls-7" d="M57.69,62.69c.07.35.15.69.24,1l.21-.07C58,63.33,57.83,63,57.69,62.69Z"/><path class="cls-7" d="M58.61,64.45c-.16-.25-.3-.5-.44-.75l-.2.17a15.55,15.55,0,0,0,1.11,2.87,6.61,6.61,0,0,0,1-.52A9.35,9.35,0,0,1,58.61,64.45Z"/><path class="cls-7" d="M59.51,67.54a17.6,17.6,0,0,0,1.4,2,5.37,5.37,0,0,0,1.9-1.76,6.32,6.32,0,0,1-2.74-1.54A6.49,6.49,0,0,0,59.51,67.54Z"/><path class="cls-7" d="M62.85,67.81c0,3.89,2.68,4.16,3.19,0A6.63,6.63,0,0,1,62.85,67.81Z"/><path class="cls-7" d="M69.16,66.43a11.28,11.28,0,0,1-3,1.32C67.89,71.56,70.55,70.75,69.16,66.43Z"/><path class="cls-7" d="M65,45.05a11.39,11.39,0,0,1,2.58-.11c-.42-5-3.24-3.44-3,.05l.07.11Z"/><path class="cls-7" d="M64.7,45.1,64.63,45s0,.08,0,.12Z"/><path class="cls-7" d="M75.37,49.93a11,11,0,0,1,1.17,2.84C80.38,51.19,77.94,48.79,75.37,49.93Z"/><path class="cls-7" d="M76.83,56.2a8.4,8.4,0,0,1-.8,3C80.09,60.26,79.6,56.83,76.83,56.2Z"/><path class="cls-7" d="M76.84,56.14c4.27-.19,2.59-3.6-.28-3.31A10.34,10.34,0,0,1,76.84,56.14Z"/><path class="cls-7" d="M70.63,45.67h0a9.59,9.59,0,0,1,2.7,1.73c2.53-4.34-1.14-4.78-2.69-1.75v0Z"/><path class="cls-7" d="M70.64,45.67v0Z"/><path class="cls-7" d="M75.36,49.9c3.68-3.4.35-5-2-2.5A10.77,10.77,0,0,1,75.36,49.9Z"/><path class="cls-7" d="M74.2,61.91c4.4,2.66,4.93-.83,1.82-2.71l-.3.55A20.76,20.76,0,0,1,74.2,61.91Z"/><path class="cls-7" d="M71.94,64.33c4,3.31,5.21-.16,2.24-2.39A21.94,21.94,0,0,1,71.94,64.33Z"/><path class="cls-7" d="M71.9,64.36a17.18,17.18,0,0,1-2.69,2C72.58,70.59,74.39,67.21,71.9,64.36Z"/><circle class="cls-8" cx="71.89" cy="73.31" r="0.49"/><path class="cls-8" d="M69.41,73.83a.66.66,0,1,0,.64.67A.65.65,0,0,0,69.41,73.83Z"/><circle class="cls-8" cx="90.46" cy="74.98" r="0.82"/><circle class="cls-8" cx="85.17" cy="72.39" r="0.49"/><path class="cls-8" d="M87.62,73a.66.66,0,1,0,.65.68A.67.67,0,0,0,87.62,73Z"/><path class="cls-8" d="M72.11,36.8a2.83,2.83,0,0,0,2.38-1l-.38-.32C73.43,35.94,72.76,36.37,72.11,36.8Z"/><path class="cls-8" d="M76.51,37.12a10.27,10.27,0,0,1-2-1.28C72.37,38.88,75.12,39.36,76.51,37.12Z"/><path class="cls-8" d="M78.79,37.94a10.5,10.5,0,0,1-2.25-.8C75.33,40.86,78.07,40.57,78.79,37.94Z"/><path class="cls-8" d="M78.85,38c-.35,3.84,2.47,3,2.51.27A11.17,11.17,0,0,1,78.85,38Z"/><path class="cls-8" d="M83.91,38a13.55,13.55,0,0,1-2.53.27C82.13,42.07,84.64,40.64,83.91,38Z"/><path class="cls-8" d="M86.37,37.23a16.71,16.71,0,0,1-2.46.72C85.16,41.47,87.35,39.7,86.37,37.23Z"/><path class="cls-8" d="M88.82,36.12a21.33,21.33,0,0,1-2.43,1.11C88.41,40.39,90.17,38.59,88.82,36.12Z"/><path class="cls-8" d="M88.85,36.11c2.4,2.88,4.32.75,2.29-1.39A24.85,24.85,0,0,1,89,36Z"/><path class="cls-6" d="M71,82.06c-1.35,2.57-3.08,2.78-4.48,1.62h0c.34,3.37,3.87,5.85,11,6C73.82,88.43,72,86.18,71,82.06Z"/><path class="cls-9" d="M71,82.06c-1.35,2.57-3.08,2.78-4.48,1.62h0c.34,3.37,3.87,5.85,11,6C73.82,88.43,72,86.18,71,82.06Z"/><path class="cls-4" d="M72.92,34.29l0,0a30.55,30.55,0,0,0-17,11C44.69,59.8,51.17,75.22,64,76.65c-.05,3.09,1.07,5.81,2.54,7A7.38,7.38,0,0,1,70.29,77c0-.4-.07-.81-.1-1.23a19.65,19.65,0,0,1-9.28-6.18c-1.2.56-1.91-.34-1.4-2-.15-.26-.29-.53-.43-.8C56.4,68,55.61,66,58,63.87a.83.83,0,0,0,0-.15c-3.56,1.09-4.11-1.45-.89-3a.29.29,0,0,0,0-.09c-4,.25-3.91-2.46-.34-3.11v-.08c-4-.52-3.41-3.18.37-3.12h0c-4-1.74-2.74-4.11,1-3v0c-3.67-2.41-1.94-4.58,1.6-2.7h0c-2.61-3.18-.75-4.81,1.9-2.49a1.71,1.71,0,0,1,.11-.14c-1.2-2.92.14-3.95,1.89-2.28a45.91,45.91,0,0,1,8.54-6.89C71.43,36.58,71.45,35.6,72.92,34.29ZM66.5,74.83a.83.83,0,0,1,0,1.65.83.83,0,0,1-.81-.85A.82.82,0,0,1,66.5,74.83Z"/><path class="cls-10" d="M72.92,34.29l0,0a30.55,30.55,0,0,0-17,11C44.69,59.8,51.17,75.22,64,76.65c-.05,3.09,1.07,5.81,2.54,7A7.38,7.38,0,0,1,70.29,77c0-.4-.07-.81-.1-1.23a19.65,19.65,0,0,1-9.28-6.18c-1.2.56-1.91-.34-1.4-2-.15-.26-.29-.53-.43-.8C56.4,68,55.61,66,58,63.87a.83.83,0,0,0,0-.15c-3.56,1.09-4.11-1.45-.89-3a.29.29,0,0,0,0-.09c-4,.25-3.91-2.46-.34-3.11v-.08c-4-.52-3.41-3.18.37-3.12h0c-4-1.74-2.74-4.11,1-3v0c-3.67-2.41-1.94-4.58,1.6-2.7h0c-2.61-3.18-.75-4.81,1.9-2.49a1.71,1.71,0,0,1,.11-.14c-1.2-2.92.14-3.95,1.89-2.28a45.91,45.91,0,0,1,8.54-6.89C71.43,36.58,71.45,35.6,72.92,34.29ZM66.5,74.83a.83.83,0,0,1,0,1.65.83.83,0,0,1-.81-.85A.82.82,0,0,1,66.5,74.83Z"/><path class="cls-4" d="M66.55,83.68c1.4,1.16,3.13.95,4.48-1.62A36.59,36.59,0,0,1,70.29,77,7.38,7.38,0,0,0,66.55,83.68Z"/><path class="cls-10" d="M66.55,83.68c1.4,1.16,3.13.95,4.48-1.62A36.59,36.59,0,0,1,70.29,77,7.38,7.38,0,0,0,66.55,83.68Z"/><path class="cls-7" d="M61.68,46a24.05,24.05,0,0,1,1.89-2.28C61.82,42,60.48,43.05,61.68,46Z"/><path class="cls-11" d="M61.68,46a24.05,24.05,0,0,1,1.89-2.28C61.82,42,60.48,43.05,61.68,46Z"/><path class="cls-7" d="M61.57,46.11c-2.65-2.32-4.51-.69-1.9,2.49a11.38,11.38,0,0,1,1-1.22C61,47,61.27,46.52,61.57,46.11Z"/><path class="cls-11" d="M61.57,46.11c-2.65-2.32-4.51-.69-1.9,2.49a11.38,11.38,0,0,1,1-1.22C61,47,61.27,46.52,61.57,46.11Z"/><path class="cls-7" d="M58.06,51.31a14,14,0,0,1,1.6-2.7C56.12,46.73,54.39,48.9,58.06,51.31Z"/><path class="cls-11" d="M58.06,51.31a14,14,0,0,1,1.6-2.7C56.12,46.73,54.39,48.9,58.06,51.31Z"/><path class="cls-7" d="M57.06,54.31a15.23,15.23,0,0,1,1-3C54.32,50.2,53.07,52.57,57.06,54.31Z"/><path class="cls-11" d="M57.06,54.31a15.23,15.23,0,0,1,1-3C54.32,50.2,53.07,52.57,57.06,54.31Z"/><path class="cls-7" d="M56.68,57.44a14.79,14.79,0,0,1,.37-3.12C53.27,54.26,52.63,56.92,56.68,57.44Z"/><path class="cls-11" d="M56.68,57.44a14.79,14.79,0,0,1,.37-3.12C53.27,54.26,52.63,56.92,56.68,57.44Z"/><path class="cls-7" d="M57,60.63a13.66,13.66,0,0,1-.34-3.11C53.11,58.17,53.06,60.88,57,60.63Z"/><path class="cls-11" d="M57,60.63a13.66,13.66,0,0,1-.34-3.11C53.11,58.17,53.06,60.88,57,60.63Z"/><path class="cls-7" d="M57,60.72c-3.22,1.55-2.67,4.09.89,3-.09-.34-.17-.68-.24-1A12.62,12.62,0,0,1,57,60.72Z"/><path class="cls-11" d="M57,60.72c-3.22,1.55-2.67,4.09.89,3-.09-.34-.17-.68-.24-1A12.62,12.62,0,0,1,57,60.72Z"/><path class="cls-7" d="M59.08,66.74A15.55,15.55,0,0,1,58,63.87C55.61,66,56.4,68,59.08,66.74Z"/><path class="cls-11" d="M59.08,66.74A15.55,15.55,0,0,1,58,63.87C55.61,66,56.4,68,59.08,66.74Z"/><path class="cls-7" d="M60.91,69.56a17.6,17.6,0,0,1-1.4-2C59,69.22,59.71,70.12,60.91,69.56Z"/><path class="cls-11" d="M60.91,69.56a17.6,17.6,0,0,1-1.4-2C59,69.22,59.71,70.12,60.91,69.56Z"/><circle class="cls-8" cx="66.49" cy="75.65" r="0.82"/><circle class="cls-12" cx="66.49" cy="75.65" r="0.82"/><path class="cls-8" d="M72.92,34.29c-1.47,1.31-1.49,2.29-.81,2.51.65-.43,1.32-.86,2-1.29A11.35,11.35,0,0,1,72.92,34.29Z"/><path class="cls-12" d="M72.92,34.29c-1.47,1.31-1.49,2.29-.81,2.51.65-.43,1.32-.86,2-1.29A11.35,11.35,0,0,1,72.92,34.29Z"/><g id="Right_Eye" data-name="Right Eye"><g id="Red"><path class="cls-7" d="M92.3,45.6c-.37-3.51-3.94-4.49-3.07.59Z"/><path class="cls-7" d="M97.7,47.68c2.43-4.17,0-5.46-2.57-1.81Z"/><path class="cls-7" d="M99.94,49.66c3-3.28.91-5.08-2.11-2.33Z"/><path class="cls-7" d="M101.5,52.34c3.81-2.25,2.16-4.51-1.51-2.76Z"/><path class="cls-7" d="M102.35,55.39c4.17-1.58,2.91-4.09-1-3Z"/><path class="cls-7" d="M102.53,58.53c4.16-.3,3.64-3-.19-3.14Z"/><path class="cls-7" d="M102,61.69c4,.48,4.13-2.29.51-3.11Z"/><path class="cls-7" d="M100.74,64.62c3.81,1.53,4.6-1.13,1.27-2.88Z"/><path class="cls-7" d="M98.8,67.12c3.45,2.42,4.8.1,2-2.46Z"/><path class="cls-7" d="M96,68.54c2.38,3.65,4.6,2.1,2.81-1.41Z"/><path class="cls-7" d="M92.76,68.26c.26,4.37,3,4.26,3.19.3Z"/><path class="cls-7" d="M89.76,66.77c-1.71,4.39,1,5.38,2.95,1.57Z"/><path class="cls-7" d="M95.21,46c.64-3.72-2.35-5.61-3-.19Z"/><path class="cls-7" d="M84.51,50.26c-2.67-1.48-5.39.9-1.36,2.75Z"/><path class="cls-7" d="M82.65,56.31c-2.9.43-3.53,3.81.69,2.86Z"/><path class="cls-7" d="M83.14,53c-3-.48-4.91,2.9-.49,3.29Z"/><path class="cls-7" d="M89.27,46.21c-1.43-3.23-5.17-3-2.78,1.59Z"/><path class="cls-7" d="M86.52,47.83c-2.34-2.71-5.76-1.28-2.11,2.42Z"/><path class="cls-7" d="M83.38,59.27C80,61,80.29,64.75,85.05,62.08Z"/><path class="cls-7" d="M85,62.12c-3.21,2.16-2.11,5.77,2.23,2.41Z"/><path class="cls-7" d="M87.16,64.63c-2.74,2.8-1.06,6.32,2.6,2.16Z"/></g><path class="cls-13" d="M76.54,52.77a11,11,0,0,0-1.17-2.84v0a10.77,10.77,0,0,0-2-2.5h0a9.59,9.59,0,0,0-2.7-1.73h0a9.56,9.56,0,0,0-3-.72h0a11.39,11.39,0,0,0-2.58.11l-.31.05h-.06a7,7,0,0,0-2.77,1.27h0a8.79,8.79,0,0,0-1.14,1,11.38,11.38,0,0,0-1,1.22h0a14,14,0,0,0-1.6,2.7v0a15.23,15.23,0,0,0-1,3h0a14.79,14.79,0,0,0-.37,3.12v.08A13.66,13.66,0,0,0,57,60.63a.29.29,0,0,1,0,.09,12.62,12.62,0,0,0,.65,2c.14.33.29.64.45,1l0,.05c.14.25.28.5.44.75A9,9,0,0,0,60,66.22l0,0a6.32,6.32,0,0,0,2.74,1.54h0a6.63,6.63,0,0,0,3.19,0h.07a11.28,11.28,0,0,0,3-1.32l0,0a17.18,17.18,0,0,0,2.69-2l0,0a21.94,21.94,0,0,0,2.24-2.39l0,0a20.76,20.76,0,0,0,1.52-2.16l.3-.55v0a8.4,8.4,0,0,0,.8-3s0,0,0-.06a10.34,10.34,0,0,0-.28-3.31S76.55,52.79,76.54,52.77Zm-10,13a6.18,6.18,0,0,1-2,.27,5,5,0,0,1-2-.48,5.36,5.36,0,0,1-1.35-1,7.08,7.08,0,0,1-.84-.94q-.2-.27-.39-.57a10,10,0,0,1-.67-1.24,10.93,10.93,0,0,1-.66-2c0-.22-.09-.44-.13-.66-.07-.44-.11-.88-.14-1.32,0-.23,0-.45,0-.67q0-.66.09-1.32a12.72,12.72,0,0,1,.79-3.13,5.89,5.89,0,0,1,.24-.58,11.8,11.8,0,0,1,1.21-2.12A9.06,9.06,0,0,1,63,47.81l.44-.26a5.25,5.25,0,0,1,1.83-.6,11.83,11.83,0,0,1,1.42-.12c.23,0,.45,0,.67,0a7.86,7.86,0,0,1,4.5,1.76,7.1,7.1,0,0,1,.85.79,8.59,8.59,0,0,1,1,1.37c.11.17.2.33.29.5a8.93,8.93,0,0,1,1,3.22,8,8,0,0,1,0,2.19,7.46,7.46,0,0,1-.41,1.56,6.45,6.45,0,0,1-.47,1c-.28.46-.6.93-.94,1.38-.12.16-.23.31-.36.46a18,18,0,0,1-2,2.15l-.45.39A11.53,11.53,0,0,1,66.52,65.79Z"/><path class="cls-13" d="M83.91,38a16.71,16.71,0,0,0,2.46-.72h0a21.33,21.33,0,0,0,2.43-1.11L89,36a24.85,24.85,0,0,0,2.18-1.32l0,0h0a31.61,31.61,0,0,0-13.85-1.23,33.09,33.09,0,0,0-4.46.82l0,0a12.39,12.39,0,0,0,1.19,1.22l.38.32h0a10.27,10.27,0,0,0,2,1.28l0,0a10.5,10.5,0,0,0,2.25.8h.06a11.17,11.17,0,0,0,2.51.27h0A13.37,13.37,0,0,0,83.9,38Z"/><path class="cls-13" d="M95,45.76c-9.3-1.92-14.64,8.15-11.38,14.18s11.59,13,16.87,5.49S100.92,46.75,95,45.76ZM99.18,64c-4.39,6.27-11.34.44-14.05-4.58s1.73-13.41,9.48-11.82C99.55,48.47,103.58,57.77,99.18,64Z"/></g><path class="cls-14" d="M194.44,126.53a.66.66,0,0,0,.48.38l1.32.27a.68.68,0,0,1-.28,1.33l-1.09-.23a.69.69,0,0,0-.7.29L193,130.28a.68.68,0,0,1-.94.19h0a.69.69,0,0,1-.19-.94l1.22-1.84a.68.68,0,0,0,.05-.66l-1-2.19,1.23-.54Z"/><path class="cls-14" d="M187.2,105.83a.67.67,0,0,1,.07-.6l.74-1.13a.68.68,0,0,0-1.13-.75l-.61.94a.69.69,0,0,1-.7.29l-2-.41a.68.68,0,0,0-.8.53h0a.69.69,0,0,0,.53.8l2.17.43a.68.68,0,0,1,.5.44l.83,2.26,1.26-.49Z"/><path class="cls-14" d="M180.2,108.83a.67.67,0,0,1,.07-.6l.74-1.13a.68.68,0,0,0-1.13-.75l-.61.94a.69.69,0,0,1-.7.29l-2-.41a.68.68,0,0,0-.8.53h0a.69.69,0,0,0,.53.8l2.17.43a.68.68,0,0,1,.5.44l.83,2.26,1.26-.49Z"/><path class="cls-14" d="M172.2,111.83a.67.67,0,0,1,.07-.6l.74-1.13a.68.68,0,0,0-1.13-.75l-.61.94a.69.69,0,0,1-.7.29l-2-.41a.68.68,0,0,0-.8.53h0a.69.69,0,0,0,.53.8l2.17.43a.68.68,0,0,1,.5.44l.83,2.26,1.26-.49Z"/><path class="cls-14" d="M186.44,129.53a.66.66,0,0,0,.48.38l1.32.27a.68.68,0,0,1-.28,1.33l-1.09-.23a.69.69,0,0,0-.7.29L185,133.28a.68.68,0,0,1-.94.19h0a.69.69,0,0,1-.19-.94l1.22-1.84a.68.68,0,0,0,.05-.66l-1-2.19,1.23-.54Z"/><path class="cls-14" d="M178.44,132.53a.66.66,0,0,0,.48.38l1.32.27a.68.68,0,0,1-.28,1.33l-1.09-.23a.69.69,0,0,0-.7.29L177,136.28a.68.68,0,0,1-.94.19h0a.69.69,0,0,1-.19-.94l1.22-1.84a.68.68,0,0,0,.05-.66l-1-2.19,1.23-.54Z"/><path class="cls-15" d="M95.22,132.52c11.8,3.11,22.21,12.87,19.57,28.91S104.7,180.06,90,181.14s-23.09,18-26.56,21.43-10.24,7.05-23.31,4.58S95.22,132.52,95.22,132.52Z"/><path class="cls-16" d="M104.78,142.18l53.26-16c4.52-1.82,4.3-7.4,12.68-11.18s19.7-8.35,19.7-8.35c5.32-2.35,11.84,12.83,5.58,16.36-1.31.74-2.9,1.52-4.6,2.28l-1.23.54c-6.14,2.66-13.06,5-13.06,5-7.45,2.6-7.68-3-17.53,1.2l-51.18,21-6.26-3.94Z"/><path class="cls-13" d="M106.8,146.64c-7.68-19.56-19-15-23-12.37s-17.62,15-28.61,11.33-34-12.59-42.66-7.48-23,20.79-.55,55.85C25.25,213.3,50.77,206.86,55,202.91,66.93,192.25,75.28,175.33,85,175.27S115.24,172.58,106.8,146.64Z"/><circle class="cls-17" cx="82.58" cy="156.81" r="10.15"/><path class="cls-17" d="M27.86,184.13h0a.68.68,0,0,0,.14-.93c-3.79-5.42-6.67-15.68-5.93-21a.67.67,0,0,0-.53-.74h0a.67.67,0,0,0-.81.57c-.75,5.67,2.24,16.37,6.17,22A.67.67,0,0,0,27.86,184.13Z"/><path class="cls-17" d="M25.6,185h0a.68.68,0,0,0,.14-.94c-3.78-5.42-6.67-15.68-5.92-21a.67.67,0,0,0-.53-.74h0a.67.67,0,0,0-.81.57c-.75,5.68,2.23,16.37,6.17,22A.66.66,0,0,0,25.6,185Z"/><path class="cls-17" d="M189.37,112.12h0a.3.3,0,0,0,0,.4c1.72,2.12,3.27,6.34,3.18,8.65a.28.28,0,0,0,.24.29h0a.28.28,0,0,0,.3-.28c.08-2.44-1.52-6.84-3.31-9.05A.26.26,0,0,0,189.37,112.12Z"/><line class="cls-18" x1="24.27" y1="177.74" x2="192.27" y2="118.74"/><line class="cls-18" x1="24.08" y1="175.01" x2="192.46" y2="117.47"/><line class="cls-18" x1="23.27" y1="172.74" x2="191.8" y2="116.06"/><g id="Forearms"><path class="cls-4" d="M150.41,136.77c.44,2.39,3.45,2.22,3.9-.52,2.39-.44,3.54-1.41,1.25-4.6s-5.3-3-6,.34C145.73,134,148.29,136.59,150.41,136.77Z"/><path class="cls-4" d="M153.81,128.75a.49.49,0,1,1-.17-1c.35-.14.35-.14.74-.7l3.77-5c.34-.44.14-.67.14-.67a.54.54,0,1,1,1.08-.12c.91,0,.85,1.1,0,1a.47.47,0,0,0-.41.26l-4.1,5.43c-.05.12-.05.12,0,.42C155,129.53,153.85,129.35,153.81,128.75Z"/><path class="cls-4" d="M149,130.52a.49.49,0,1,1-.9-.37c.07-.38.07-.38-.19-1l-2.16-5.86c-.19-.52-.49-.49-.49-.49-.56-.1-.42-1.34.48-1,.44-.79,1.38-.12.86.56a.47.47,0,0,0,0,.48l2.36,6.38c.07.12.07.12.33.26C150.22,130,149.47,130.81,149,130.52Z"/><path class="cls-4" d="M156.19,130.82a.49.49,0,1,1,.06-1c.37,0,.37,0,.89-.51l4.83-4c.44-.35.3-.62.3-.62-.08-.57,1.14-.83,1.08.14a.53.53,0,1,1-.25,1,.46.46,0,0,0-.45.16l-5.27,4.3c-.08.11-.08.11-.14.4C157.11,131.85,156.08,131.42,156.19,130.82Z"/><path class="cls-4" d="M157.78,132.84a.49.49,0,1,1,.33-.91c.38.06.38.06,1-.23l5.78-2.38c.52-.2.47-.5.47-.5.08-.57,1.32-.47,1,.44.8.42.17,1.38-.53.89a.47.47,0,0,0-.48,0l-6.3,2.58c-.1.08-.1.08-.24.35C158.35,134.09,157.5,133.37,157.78,132.84Z"/><path class="cls-4" d="M158,135.32a.49.49,0,1,1,.6-.76c.34.17.34.17,1,.09l6.23-.48c.55,0,.59-.34.59-.34.26-.51,1.41,0,.81.73.64.64-.26,1.36-.77.68a.47.47,0,0,0-.47-.13l-6.78.52c-.13,0-.13,0-.34.25C158.12,136.69,157.53,135.75,158,135.32Z"/><path class="cls-4" d="M130.79,163.54c-.72,3.37,4.68,2.76,3.89-.52-.35-.88,1.34-3.09,1.34-3.09l10.92-15.11c1.42-1.59,2-1.32,2-1.32,3.9-.52,3.37-4.42.36-4.25-.78-3.28-5.57-2.4-4.78.87.35.89-1.07,2.48-1.07,2.48l-12.07,16.08c-1.16,1-1.77.7-1.77.7C125.75,159.9,127.51,164.33,130.79,163.54Z"/><path class="cls-4" d="M167.54,128.43c-.2.65.88.63.78,0,0-.18.33-.59.33-.59l2.44-2.81c.32-.29.43-.23.43-.23.79,0,.76-.82.15-.84a.48.48,0,1,0-1,.09c0,.18-.26.47-.26.47l-2.7,3c-.24.17-.36.11-.36.11C166.6,127.61,166.87,128.53,167.54,128.43Z"/><path class="cls-4" d="M164.4,123.53c-.07.69,1,.45.76-.18-.09-.17.2-.65.2-.65l1.86-3.23c.25-.35.38-.3.38-.3.76-.19.58-1,0-.86a.49.49,0,1,0-.93.28c.09.17-.16.51-.16.51l-2.07,3.45c-.21.22-.34.18-.34.18C163.32,122.91,163.76,123.76,164.4,123.53Z"/><path class="cls-4" d="M160,120.2c0,.69,1,.34.74-.27-.1-.15.13-.66.13-.66l1.49-3.42c.21-.37.34-.34.34-.34.74-.27.47-1-.11-.85a.49.49,0,1,0-.9.38c.11.15-.1.53-.1.53L160,119.22c-.18.24-.32.22-.32.22C158.89,119.71,159.43,120.5,160,120.2Z"/><path class="cls-4" d="M146.36,120.9c.07.68,1.06.24.71-.34-.12-.14.07-.67.07-.67l1.18-3.53c.18-.39.31-.38.31-.38.71-.33.38-1-.18-.83-.35-.58-1.21-.13-.86.45.12.15-.06.54-.06.54l-1.34,3.79c-.16.26-.3.24-.3.24C145.18,120.5,145.78,121.24,146.36,120.9Z"/><path class="cls-4" d="M168.22,133.47c-.38.58.67.85.76.18,0-.19.48-.48.48-.48l3.12-2c.38-.19.48-.1.48-.1.76.18.95-.58.37-.77a.48.48,0,1,0-1-.18c0,.19-.38.39-.38.39l-3.41,2.13c-.29.1-.38,0-.38,0C167.54,132.43,167.55,133.38,168.22,133.47Z"/><path class="cls-4" d="M72.65,150.65c-.49-.61.41-1.43.91-.66.32.3.32.3,1.11.42l7.09,1.46c.63.13.77-.19.77-.19.45-.48,1.58.42.67,1.07.5.92-.73,1.44-1.08.51a.56.56,0,0,0-.48-.29l-7.71-1.59c-.16,0-.16,0-.47.17C72.39,152.22,72,151,72.65,150.65Z"/><path class="cls-4" d="M68.38,146.44a.57.57,0,1,1-.06-1.13c.43-.11.43-.11,1-.7l5-5.18c.45-.46.26-.75.26-.75-.17-.64,1.2-1.11,1.26,0,1,.07.81,1.38-.15,1.17a.57.57,0,0,0-.51.25l-5.5,5.64c-.08.13-.08.13-.11.48C69.57,147.5,68.33,147.13,68.38,146.44Z"/><path class="cls-4" d="M71.66,154.16a.57.57,0,1,1,1-.42c.24.37.24.37,1,.68l6.54,3.08c.59.28.8,0,.8,0,.55-.37,1.44.77.39,1.19.28,1-1,1.22-1.16.24a.57.57,0,0,0-.4-.4l-7.12-3.36c-.15,0-.15,0-.49.06C71,155.63,71,154.34,71.66,154.16Z"/><path class="cls-4" d="M70.35,156.82a.57.57,0,1,1,1.12-.1c.12.42.12.42.73.93l5.36,4.86c.48.44.76.24.76.24a.63.63,0,1,1,0,1.26.61.61,0,1,1-1.18-.11.56.56,0,0,0-.27-.5l-5.83-5.29c-.14-.08-.14-.08-.48-.09C69.33,158.05,69.65,156.8,70.35,156.82Z"/><path class="cls-4" d="M67.84,158.25a.57.57,0,1,1,1.1.25c0,.44,0,.44.41,1.11L73,165.88c.31.56.65.46.65.46.66,0,.73,1.45-.36,1.21-.36,1-1.56.4-1.1-.47a.57.57,0,0,0-.09-.56l-3.93-6.83c-.1-.11-.1-.11-.43-.23C66.49,159.1,67.18,158,67.84,158.25Z"/><path class="cls-4" d="M24.79,143.89c-3.87.92-.55,6.27,2.49,3.81.75-.81,3.9-.14,3.9-.14l21.24,3.9c2.37.69,2.4,1.47,2.4,1.47,2.48,3.82,6.3,1.33,4.62-1.73,3-2.46-.26-7-3.29-4.57-.75.81-3.12.12-3.12.12L30.2,142.13c-1.59-.73-1.62-1.51-1.62-1.51C26.09,136.81,22.34,140.85,24.79,143.89Z"/><path class="cls-4" d="M79.82,164.84c-.79.11-.22,1.24.43.8.16-.15.78,0,.78,0l4.16,1.16c.46.18.45.34.45.34.42.8,1.23.38,1-.26.65-.44.07-1.41-.57-1-.17.15-.63,0-.63,0l-4.46-1.34c-.31-.17-.3-.32-.3-.32C80.21,163.45,79.39,164.19,79.82,164.84Z"/><path class="cls-4" d="M83.37,159.11c-.75.27,0,1.26.58.71.13-.18.77-.11.77-.11L89,160c.48.09.51.25.51.25.57.7,1.28.13.88-.45.55-.55-.2-1.39-.75-.83-.13.17-.62.08-.62.08l-4.64-.44c-.33-.11-.35-.26-.35-.26C83.49,157.68,82.82,158.56,83.37,159.11Z"/><path class="cls-4" d="M84.68,152.89c-.71.35.17,1.25.65.64.12-.19.76-.19.76-.19l4.32-.15c.49,0,.53.18.53.18.65.64,1.29,0,.83-.53.48-.61-.35-1.36-.84-.75-.11.19-.61.15-.61.15l-4.65.08c-.35-.08-.39-.23-.39-.23C84.64,151.45,84.07,152.41,84.68,152.89Z"/><path class="cls-4" d="M77.15,138.94c-.68.41.27,1.23.7.58.1-.2.74-.26.74-.26l4.28-.53c.5,0,.55.14.55.14.7.57,1.28-.13.78-.61.43-.65-.47-1.33-.9-.68-.1.2-.59.21-.59.21l-4.64.49c-.34,0-.39-.19-.39-.19C77,137.51,76.5,138.51,77.15,138.94Z"/><path class="cls-4" d="M74.88,168.06c-.78-.11-.55,1.13.19.89.2-.1.74.25.74.25l3.68,2.26c.4.3.35.45.35.45.18.89,1.08.7,1,0a.56.56,0,1,0-.28-1.09c-.2.1-.59-.2-.59-.2L76,168.12c-.24-.25-.19-.4-.19-.4C75.64,166.83,74.64,167.32,74.88,168.06Z"/><path class="cls-4" d="M62.56,151.08c-2.28,1.65-.6,4.71,2.49,3.82,1.65,2.28,3.24,3,5.43-1s.52-7.06-3.35-6.13C63.11,144.81,61.7,148.77,62.56,151.08Z"/></g></g></g></g></svg>