<svg xmlns="http://www.w3.org/2000/svg" viewBox="0 0 196.27 331.51"><defs><style>.cls-1{fill:#666269;}.cls-2{fill:#28262a;}.cls-11,.cls-3{fill:#2fa493;}.cls-4,.cls-9{fill:#fff6df;}.cls-5{fill:none;}.cls-6,.cls-8{fill:#ddc19a;}.cls-10,.cls-7{fill:#b21a40;}.cls-10,.cls-11,.cls-8,.cls-9{opacity:0.2;}.cls-12{fill:#f69220;}</style></defs><title>Skeleton 1</title><g id="Layer_2" data-name="Layer 2"><g id="Page_1" data-name="Page 1"><g id="Skeleton_1" data-name="Skeleton 1"><path class="cls-1" d="M98.6,8.83C93.84-2.75,89.83-.59,79.4,2.24,63.71,7.1,58.53,8.85,60.62,20S98.6,8.83,98.6,8.83Z"/><path class="cls-2" d="M147.41,40.62c7-5.9,12.09-19.39,2.56-26s-38.3-11.24-70.32-1.57S16.55,42.64,15,52s4,17.74,16.69,18.19,86.18-32,86.81-31.9Z"/><path class="cls-3" d="M31.72,70.21c-8.56-3.45-8.68-8.52-4.35-14.48C36.86,42.66,55.61,32.37,75.2,26.6s35-8.12,60.6-3.16c14.93,3.31,13.91,11.89,11.61,17.18S31.72,70.21,31.72,70.21Z"/><path class="cls-1" d="M79.3,30.16c40.44-11.41,76.34-1.67,66.68,13.28-4.43,6.57-23.9,11.08-23.9,11.08-15.52,3-43.35,8.6-73.81,15.24-13,3.22-29.36,1.67-15.06-15.38C48.72,38.07,79.3,30.16,79.3,30.16Z"/><path class="cls-4" d="M77.42,24.59a2.49,2.49,0,0,1-1.61-1,4.79,4.79,0,0,1,0-5.56,2.69,2.69,0,0,1,.16-.29A4,4,0,0,0,73.13,20c-.56.3-1.14.25-1-.55,1.36-2.56,3-3.21,4.59-2.82a2.54,2.54,0,0,1,2.89-.88.73.73,0,0,1-.47,1.06,1.41,1.41,0,0,0-1.3.37,5.47,5.47,0,0,1,1.62,4.29c0,2.17-.82,2.8-1.33,3A1.61,1.61,0,0,1,77.42,24.59Zm-.36-6.49c-.1.16-.2.33-.3.53a3.66,3.66,0,0,0-.05,4.25c.33.41.74.63,1,.53s.59-.65.57-1.88A4.32,4.32,0,0,0,77.06,18.1Z"/><path class="cls-4" d="M65.82,28.53a2.49,2.49,0,0,1-1.67-1A4.85,4.85,0,0,1,64,21.94l.15-.3A4.08,4.08,0,0,0,61.36,24c-.57.31-1.15.27-1-.54,1.33-2.62,2.93-3.32,4.59-3a2.53,2.53,0,0,1,2.91-.95.74.74,0,0,1-.45,1.08,1.4,1.4,0,0,0-1.31.4c1,.79,1.66,2.31,1.74,4.32.09,2.19-.77,2.86-1.28,3.06A1.63,1.63,0,0,1,65.82,28.53ZM65.31,22q-.15.24-.3.54a3.72,3.72,0,0,0,0,4.31c.35.41.77.62,1,.52s.58-.67.54-1.92C66.55,23.74,66.08,22.52,65.31,22Z"/><path class="cls-4" d="M54.61,33.09A2.38,2.38,0,0,1,53,32.27a4.63,4.63,0,0,1-.48-5.35c0-.1.08-.2.13-.3A3.92,3.92,0,0,0,50.11,29c-.52.34-1.08.33-1-.45,1.11-2.57,2.59-3.32,4.2-3.08A2.43,2.43,0,0,1,56,24.44a.7.7,0,0,1-.36,1.06,1.36,1.36,0,0,0-1.23.45,5.29,5.29,0,0,1,1.9,4c.21,2.09-.57,2.77-1.05,3A1.44,1.44,0,0,1,54.61,33.09Zm-.86-6.23-.25.53a3.58,3.58,0,0,0,.28,4.11c.35.36.77.54,1,.43s.51-.67.4-1.86A4.21,4.21,0,0,0,53.75,26.86Z"/><path class="cls-4" d="M45.43,38.21a2.47,2.47,0,0,1-1.78-.58,4.76,4.76,0,0,1-1.31-5.35l.09-.32a4,4,0,0,0-2.17,2.83c-.48.42-1,.5-1.11-.3.74-2.78,2.13-3.76,3.79-3.76a2.52,2.52,0,0,1,2.59-1.5.72.72,0,0,1-.21,1.13,1.38,1.38,0,0,0-1.17.65,5.43,5.43,0,0,1,2.53,3.77c.53,2.09-.16,2.89-.61,3.19A1.6,1.6,0,0,1,45.43,38.21ZM43.62,32a5.6,5.6,0,0,0-.17.57,3.63,3.63,0,0,0,.9,4.12c.41.32.86.44,1.09.29s.42-.77.13-1.95A4.31,4.31,0,0,0,43.62,32Z"/><path class="cls-4" d="M36.38,44a2.36,2.36,0,0,1-1.81-.38,4.68,4.68,0,0,1-1.84-5.11,3.06,3.06,0,0,1,.05-.32,4,4,0,0,0-1.83,3c-.43.46-1,.59-1.12-.18.43-2.8,1.68-3.92,3.32-4.09a2.47,2.47,0,0,1,2.38-1.75.71.71,0,0,1-.09,1.14,1.35,1.35,0,0,0-1.08.75,5.38,5.38,0,0,1,2.89,3.44c.74,2,.15,2.85-.26,3.19A1.4,1.4,0,0,1,36.38,44ZM34,38.17c0,.18-.08.37-.11.58a3.6,3.6,0,0,0,1.33,4c.44.27.89.34,1.1.16s.33-.79-.08-1.92A4.26,4.26,0,0,0,34,38.17Z"/><path class="cls-4" d="M29,50.78A2.59,2.59,0,0,1,27,51a5.11,5.11,0,0,1-3.61-4.68c0-.12,0-.24,0-.35a4.29,4.29,0,0,0-.9,3.73c-.28.62-.81.94-1.22.18-.49-3,.45-4.61,2.08-5.34a2.69,2.69,0,0,1,1.89-2.6.78.78,0,0,1,.28,1.21,1.46,1.46,0,0,0-.86,1.14c1.36,0,2.83.94,4.13,2.6s1.11,2.9.79,3.39A1.58,1.58,0,0,1,29,50.78Zm-4.48-5.27c0,.2.05.41.09.64a3.91,3.91,0,0,0,2.68,3.65c.54.13,1,.05,1.2-.2s.08-.93-.73-2C26.7,46.26,25.54,45.51,24.54,45.51Z"/><path class="cls-4" d="M23.77,58.42a2.36,2.36,0,0,1-1.67.65,4.54,4.54,0,0,1-4.2-3.17c0-.1-.09-.19-.13-.29A3.8,3.8,0,0,0,17.88,59c-.1.6-.48,1-1,.45-1.13-2.5-.7-4.07.53-5.07a2.38,2.38,0,0,1,1-2.68.69.69,0,0,1,.52,1,1.29,1.29,0,0,0-.47,1.18,5.18,5.18,0,0,1,4.16,1.26c1.65,1.22,1.63,2.23,1.48,2.72A1.64,1.64,0,0,1,23.77,58.42ZM18.69,55c.06.16.13.34.22.53A3.46,3.46,0,0,0,22.07,58c.5,0,.9-.2,1-.45S22.9,56.7,22,56A4.07,4.07,0,0,0,18.69,55Z"/><path class="cls-4" d="M88.6,21.48a2.6,2.6,0,0,1-1.51-1.33,5.06,5.06,0,0,1,1-5.8l.23-.28A4.31,4.31,0,0,0,85,15.94c-.64.21-1.23,0-1-.77,1.9-2.42,3.68-2.8,5.32-2.09a2.65,2.65,0,0,1,3.17-.38.77.77,0,0,1-.68,1,1.47,1.47,0,0,0-1.42.14c.89,1,1.22,2.71.89,4.78-.36,2.27-1.37,2.77-1.94,2.87A1.63,1.63,0,0,1,88.6,21.48Zm.82-6.84c-.13.14-.27.31-.41.49a3.9,3.9,0,0,0-.85,4.43c.27.49.67.79,1,.74s.73-.57.94-1.86C90.33,16.72,90.1,15.37,89.42,14.64Z"/><path class="cls-4" d="M100.46,18.82a2.59,2.59,0,0,1-1.4-1.39,5,5,0,0,1,1.31-5.61l.23-.26a4.17,4.17,0,0,0-3.36,1.62c-.65.17-1.22,0-.9-.8,2-2.25,3.76-2.52,5.32-1.73a2.63,2.63,0,0,1,3.13-.18.76.76,0,0,1-.73,1,1.44,1.44,0,0,0-1.4.05c.81,1,1,2.72.58,4.73-.49,2.19-1.51,2.62-2.07,2.69A1.71,1.71,0,0,1,100.46,18.82Zm1.22-6.63c-.14.13-.28.28-.43.45a3.81,3.81,0,0,0-1.1,4.28c.24.49.6.81.89.78s.75-.51,1-1.76C102.44,14.28,102.29,12.94,101.68,12.19Z"/><path class="cls-4" d="M112,18.63a2.47,2.47,0,0,1-1.25-1.46,4.84,4.84,0,0,1,1.71-5.36l.24-.24a4.11,4.11,0,0,0-3.4,1.32c-.64.12-1.18-.12-.81-.85,2.12-2,3.86-2.16,5.31-1.27a2.55,2.55,0,0,1,3.06.07.73.73,0,0,1-.78.87,1.43,1.43,0,0,0-1.37-.06,5.58,5.58,0,0,1,.21,4.65c-.65,2.1-1.68,2.45-2.23,2.46A1.49,1.49,0,0,1,112,18.63Zm1.7-6.37a5.63,5.63,0,0,0-.45.42,3.71,3.71,0,0,0-1.4,4.08c.19.5.52.84.8.83s.77-.44,1.14-1.64A4.39,4.39,0,0,0,113.69,12.26Z"/><path class="cls-4" d="M123.38,19.05a2.48,2.48,0,0,1-1.07-1.6,4.87,4.87,0,0,1,2.36-5.13l.28-.2a4.12,4.12,0,0,0-3.56.89c-.64,0-1.15-.27-.69-.95,2.35-1.76,4.1-1.67,5.44-.6a2.53,2.53,0,0,1,3,.44.73.73,0,0,1-.89.77,1.43,1.43,0,0,0-1.35-.22c.58,1.17.46,2.81-.37,4.65-.9,2-2,2.22-2.52,2.17A1.57,1.57,0,0,1,123.38,19.05Zm2.47-6.12c-.16.1-.32.22-.5.35a3.74,3.74,0,0,0-1.89,3.89c.12.52.41.9.69.93s.83-.35,1.34-1.49C126.18,15.09,126.3,13.77,125.85,12.93Z"/><path class="cls-4" d="M135.58,21.45a2.5,2.5,0,0,1-1-1.67,4.87,4.87,0,0,1,2.64-5l.29-.19a4.11,4.11,0,0,0-3.61.7c-.65,0-1.14-.33-.64-1,2.45-1.64,4.2-1.45,5.48-.31a2.57,2.57,0,0,1,3,.61.75.75,0,0,1-.94.73,1.41,1.41,0,0,0-1.34-.3,5.57,5.57,0,0,1-.62,4.63c-1,2-2.09,2.12-2.64,2A1.56,1.56,0,0,1,135.58,21.45Zm2.82-6a5.55,5.55,0,0,0-.53.33,3.74,3.74,0,0,0-2.11,3.79c.1.52.37.92.65,1s.84-.3,1.42-1.41A4.47,4.47,0,0,0,138.4,15.45Z"/><path class="cls-4" d="M145.39,26.19a2.5,2.5,0,0,1-.33-1.9,4.87,4.87,0,0,1,4.25-3.73l.33-.08a4.14,4.14,0,0,0-3.62-.62c-.6-.23-.94-.71-.25-1.15,2.88-.66,4.44.13,5.23,1.65A2.58,2.58,0,0,1,153.6,22a.74.74,0,0,1-1.13.35,1.43,1.43,0,0,0-1.15-.76,5.57,5.57,0,0,1-2.22,4.11c-1.65,1.47-2.71,1.24-3.19,1A1.5,1.5,0,0,1,145.39,26.19Zm4.75-4.59a3.54,3.54,0,0,0-.6.12,3.73,3.73,0,0,0-3.32,2.78c-.09.53,0,1,.26,1.13s.9,0,1.83-.81C149.56,23.7,150.2,22.55,150.14,21.6Z"/><path class="cls-4" d="M97.5,140.57l18.1,3.37a48.22,48.22,0,0,0-.08-5.55l-18.76-3.5A2,2,0,0,1,97.5,131l17.65,3.29c-.11-.92-.22-1.87-.36-2.89s-.28-1.79-.45-2.65L96,125.28a2,2,0,0,1,.73-3.94l16.56,3.08a30.52,30.52,0,0,0-2.44-5.69l-16.45-3.07a2,2,0,0,1,.73-3.94l12.3,2.3c-6.36-6.82-14.88-7.51-19-7.51s-12.69.69-19,7.51l12.31-2.3a2,2,0,0,1,.73,3.94l-16.45,3.07a29.87,29.87,0,0,0-2.44,5.69L80,121.34a2,2,0,1,1,.74,3.94L62.36,128.7c-.17.86-.32,1.73-.45,2.65s-.26,2-.36,2.89L79.2,131a2,2,0,1,1,.74,3.94l-18.76,3.5a48.22,48.22,0,0,0-.08,5.55l18.1-3.37a2,2,0,1,1,.74,3.93L61.6,147.92C63,154,66.8,153.5,69.92,153c4.81-.8,14.42-2.4,18.43-2.4s13.62,1.6,18.43,2.4c3.12.52,6.92,1,8.31-5.06L96.76,144.5a2,2,0,1,1,.74-3.93Z"/><path class="cls-4" d="M107.58,177c0-4,0-6.41-3.21-8.81s-12,4.8-16,4.8-12.82-7.21-16-4.8-3.2,4.8-3.2,8.81-9.61,7.21-6.41,12.82,8,6.41,11.22,5.61S83.54,193,88.35,193s11.22,1.61,14.42,2.41,8,0,11.22-5.61S107.58,181,107.58,177Z"/><path class="cls-4" d="M112.74,198.65c-3.2-2.4-7.21,2.41-3.2,4.81,1.6,1.6,1.6,1.6,2.4,5.61l8.82,36.05c.8,3.21-.81,4-.81,4-2.4,2.4,2.41,8,5.61,3.2,4.81,2.41,7.21-4,2.41-5.61a2.84,2.84,0,0,1-1.61-2.4l-9.61-39.26c0-.8,0-.8.8-2.4C120.76,197.05,114.35,195.45,112.74,198.65Z"/><path class="cls-4" d="M172.47,91.67a.58.58,0,1,1-.27-1.12c.41-.19.41-.19.84-.89l4.16-6.15c.37-.54.12-.8.12-.8a.65.65,0,1,1,1.28-.22c1.07-.11,1.07,1.26.06,1.22a.57.57,0,0,0-.47.34l-4.53,6.7c0,.15,0,.15,0,.5C173.86,92.53,172.54,92.38,172.47,91.67Z"/><path class="cls-4" d="M129.74,329.15a.58.58,0,1,0,.68.93c.41-.19.41-.19,1.22-.07l7.38.81c.66.07.7.42.7.42.28.62,1.67.1,1-.83.78-.74-.26-1.63-.89-.84a.56.56,0,0,1-.56.14l-8-.87c-.15-.06-.15-.06-.39-.32C130,327.54,129.24,328.63,129.74,329.15Z"/><path class="cls-4" d="M166.8,94.07a.58.58,0,1,1-1.09-.38c.06-.45.06-.45-.29-1.19l-2.93-6.81c-.26-.61-.61-.55-.61-.55-.68-.09-.58-1.57.51-1.18.47-1,1.63-.23,1.06.6a.58.58,0,0,0,0,.58l3.19,7.43c.1.12.1.12.42.28C168.27,93.36,167.44,94.39,166.8,94.07Z"/><path class="cls-4" d="M175.42,94a.58.58,0,1,1,0-1.15c.45-.09.45-.09,1-.66l5.49-5c.49-.44.31-.75.31-.75-.13-.67,1.3-1.06,1.29.1,1.07.13.75,1.47-.23,1.19a.58.58,0,0,0-.53.22l-6,5.44c-.09.13-.09.13-.14.49C176.57,95.15,175.32,94.7,175.42,94Z"/><path class="cls-4" d="M177.42,96.28a.59.59,0,1,1,.35-1.11c.45,0,.45,0,1.17-.33l6.71-3.18c.6-.28.52-.63.52-.63.07-.68,1.55-.64,1.2.47,1,.44.29,1.62-.56,1.08a.58.58,0,0,0-.58,0l-7.31,3.46c-.12.1-.12.1-.27.43C178.19,97.72,177.13,96.93,177.42,96.28Z"/><path class="cls-4" d="M177.79,99.21a.58.58,0,1,1,.67-.94c.41.18.41.18,1.22,0l7.36-1c.65-.08.69-.44.69-.44.27-.62,1.67-.13,1,.82.8.72-.23,1.63-.87.85a.59.59,0,0,0-.57-.13l-8,1c-.15,0-.15,0-.39.32C178.07,100.82,177.31,99.74,177.79,99.21Z"/><path class="cls-4" d="M126.51,257.32c-2.17-3.43-7.71-.32-4.78,3.41.94,2.09.94,2.09.26,6.18l-4.68,37.39c-.39,3.33-2.2,3.51-2.2,3.51-3.15,1.41-.62,8.47,4.16,5.07,3.69,4,8.29-1.2,4.31-4.46a2.86,2.86,0,0,1-.66-2.85L128,264.85c.29-.76.29-.76,1.63-2C134.69,258.7,129.19,254.86,126.51,257.32Z"/><path class="cls-4" d="M87,165h2.61a3.5,3.5,0,0,1,3.5,3.5v.71a1.4,1.4,0,0,1-1.4,1.4H84.94a1.4,1.4,0,0,1-1.4-1.4v-.71A3.5,3.5,0,0,1,87,165Z"/><path class="cls-4" d="M87.67,158.41H89a3.41,3.41,0,0,1,3.41,3.41v0a1.36,1.36,0,0,1-1.36,1.36H85.62a1.36,1.36,0,0,1-1.36-1.36v0a3.41,3.41,0,0,1,3.41-3.41Z"/><path class="cls-4" d="M87.67,100.73H89a3.41,3.41,0,0,1,3.41,3.41v0a1.36,1.36,0,0,1-1.36,1.36H85.62a1.36,1.36,0,0,1-1.36-1.36v0A3.41,3.41,0,0,1,87.67,100.73Z"/><path class="cls-4" d="M87.75,152.08h1.2a3,3,0,0,1,3,3v0a1.2,1.2,0,0,1-1.2,1.2H85.95a1.2,1.2,0,0,1-1.2-1.2v0a3,3,0,0,1,3-3Z"/><path class="cls-4" d="M87.75,94.4h1.2a3,3,0,0,1,3,3v0a1.2,1.2,0,0,1-1.2,1.2H85.95a1.2,1.2,0,0,1-1.2-1.2v0A3,3,0,0,1,87.75,94.4Z"/><path class="cls-4" d="M147.31,134.41c-.64,4,5.73,3,4.59-.86-.47-1,1.39-3.76,1.39-3.76l12-18.61c1.59-2,2.34-1.7,2.34-1.7,4.59-.87,3.73-5.46.17-5.07-1.14-3.84-6.76-2.5-5.62,1.34.47,1-1.12,3-1.12,3L147.76,128.6c-1.31,1.22-2.06.94-2.06.94C141.1,130.4,143.47,135.55,147.31,134.41Z"/><path class="cls-4" d="M188.74,90.43c-.2.79,1.08.7.93-.09-.08-.21.34-.72.34-.72l2.73-3.49c.35-.37.5-.3.5-.3.93-.09.84-1,.12-1a.58.58,0,1,0-1.14.17c.07.21-.28.58-.28.58l-3,3.71c-.28.22-.43.15-.43.15C187.57,89.52,188,90.59,188.74,90.43Z"/><path class="cls-4" d="M184.7,84.82c0,.81,1.2.47.9-.27-.12-.2.19-.78.19-.78l2-4c.27-.43.43-.39.43-.39.89-.26.62-1.16-.08-1a.58.58,0,1,0-1.09.39c.12.19-.16.62-.16.62l-2.23,4.22c-.24.27-.39.23-.39.23C183.38,84.15,184,85.12,184.7,84.82Z"/><path class="cls-4" d="M179.31,81.14c.05.81,1.25.33.86-.37-.13-.18.11-.79.11-.79l1.56-4.15c.22-.46.38-.44.38-.44.86-.36.49-1.22-.19-1a.58.58,0,1,0-1,.5c.14.18-.08.63-.08.63L179.15,80c-.2.3-.36.27-.36.27C177.93,80.62,178.61,81.52,179.31,81.14Z"/><path class="cls-4" d="M149.08,329.59c.76.29-.05,1.29-.61.71-.13-.18-.79-.13-.79-.13l-4.42.25c-.5.08-.53.24-.53.24-.6.71-1.31.11-.89-.47-.56-.58.23-1.43.78-.85.14.19.64.1.64.1l4.76-.35c.35-.11.37-.26.37-.26C149,328.11,149.66,329,149.08,329.59Z"/><path class="cls-4" d="M163.13,82.82c.12.81,1.27.22.82-.44-.15-.17,0-.8,0-.8l1.18-4.28c.18-.47.34-.46.34-.46.83-.44.39-1.26-.27-1-.45-.66-1.44-.07-1,.6.15.16,0,.64,0,.64l-1.35,4.58c-.18.31-.34.31-.34.31C161.7,82.43,162.46,83.27,163.13,82.82Z"/><path class="cls-4" d="M189.86,96.37c-.41.71.85,1,.92.17,0-.22.53-.6.53-.6l3.58-2.61c.44-.25.56-.14.56-.14.92.17,1.09-.75.4-.94a.58.58,0,1,0-1.15-.15c0,.22-.42.48-.42.48l-3.92,2.74c-.33.13-.45,0-.45,0C189,95.18,189.06,96.31,189.86,96.37Z"/><path class="cls-4" d="M110.24,107.59c-2.2-3.45,4.07-5,4.55-1,0,1.13,2.78,2.88,2.78,2.88L136,121.7c2.24,1.18,2.82.63,2.82.63,4.56-1,5.6,3.51,2.18,4.57.48,4-5.2,5-5.69,1,0-1.13-2.22-2.31-2.22-2.31L113,112.74c-1.69-.6-2.27,0-2.27,0C106.15,113.74,106.26,108.07,110.24,107.59Z"/><path class="cls-4" d="M168.93,101.41c.67,2.81,4.23,2.42,4.59-.87,2.81-.66,4.12-1.89,1.2-5.53s-6.49-3.26-7.13.78C163.2,98.43,166.4,101.32,168.93,101.41Z"/><path class="cls-4" d="M22.72,181a.58.58,0,1,1,.64,1c-.32.32-.32.32-.48,1.12l-1.77,7.21c-.16.64.16.8.16.8.48.48-.48,1.61-1.12.64-1,.48-1.44-.8-.48-1.12a.57.57,0,0,0,.32-.48l1.93-7.85c0-.16,0-.16-.17-.48C21.11,180.65,22.4,180.33,22.72,181Z"/><path class="cls-4" d="M27.19,176.75a.58.58,0,1,1,1.16,0c.1.44.1.44.68,1l5.12,5.38c.46.48.76.29.76.29a.65.65,0,1,1-.06,1.29c-.12,1.07-1.45.79-1.21-.2a.58.58,0,0,0-.23-.53l-5.57-5.85c-.13-.09-.13-.09-.49-.13C26.06,177.93,26.48,176.67,27.19,176.75Z"/><path class="cls-4" d="M19.15,179.82a.58.58,0,1,1,.39,1.09c-.39.24-.39.24-.73,1l-3.42,6.59c-.3.58,0,.81,0,.81a.65.65,0,1,1-1.24.36c-1,.24-1.21-1.12-.2-1.2a.56.56,0,0,0,.42-.39l3.72-7.18c0-.16,0-.16,0-.5C17.66,179.13,19,179.13,19.15,179.82Z"/><path class="cls-4" d="M16.47,178.37a.58.58,0,1,1,.06,1.16c-.44.11-.44.11-1,.72l-5.19,5.31c-.47.47-.27.77-.27.77.17.66-1.23,1.13-1.29,0-1.08-.08-.84-1.43.15-1.21a.58.58,0,0,0,.52-.25l5.66-5.78c.08-.14.08-.14.1-.5C15.25,177.28,16.52,177.66,16.47,178.37Z"/><path class="cls-4" d="M15.1,175.75a.58.58,0,1,1-.29,1.11c-.46,0-.46,0-1.16.39L7.08,180.7c-.59.31-.5.65-.5.65,0,.68-1.51.71-1.22-.41-1-.4-.35-1.61.52-1.1a.59.59,0,0,0,.58-.08L13.61,176c.12-.11.12-.11.26-.44C14.28,174.33,15.37,175.08,15.1,175.75Z"/><path class="cls-4" d="M31.46,132.15c-.8-4-6.41-.8-4,2.41.8.8,0,4,0,4l-4.81,21.63c-.8,2.41-1.6,2.41-1.6,2.41-4,2.4-1.6,6.41,1.6,4.81,2.4,3.2,7.21,0,4.81-3.21-.8-.8,0-3.2,0-3.2l5.61-23.24c.8-1.6,1.6-1.6,1.6-1.6C38.67,133.76,34.67,129.75,31.46,132.15Z"/><path class="cls-4" d="M7.89,187.78c-.09-.81-1.26-.27-.84.41.14.17-.07.8-.07.8l-1.35,4.22c-.2.46-.36.45-.36.45-.84.41-.44,1.25.23,1a.58.58,0,1,0,1-.56c-.15-.17.05-.63.05-.63l1.54-4.53c.19-.31.35-.29.35-.29C9.3,188.23,8.57,187.36,7.89,187.78Z"/><path class="cls-4" d="M13.62,191.65c-.24-.79-1.29,0-.74.56.17.14.08.79.08.79l-.5,4.41c-.11.49-.27.51-.27.51-.75.56-.19,1.31.42.92.54.59,1.43-.15.89-.74-.18-.14-.07-.63-.07-.63l.63-4.74c.13-.34.28-.36.28-.36C15.09,191.81,14.21,191.1,13.62,191.65Z"/><path class="cls-4" d="M20,193.23c-.32-.75-1.28.11-.68.64.19.12.18.78.18.78l0,4.43c-.05.5-.21.54-.21.54-.68.64,0,1.32.52.87.61.52,1.41-.31.8-.83-.19-.12-.13-.63-.13-.63l.1-4.78c.08-.35.24-.38.24-.38C21.43,193.23,20.48,192.62,20,193.23Z"/><path class="cls-4" d="M34.55,186c-.4-.72-1.27.23-.62.7.2.1.24.76.24.76l.38,4.42c0,.5-.16.55-.16.55-.62.7.07,1.32.59.82.65.47,1.38-.43.72-.9-.2-.1-.19-.61-.19-.61L35.19,187c.06-.35.21-.4.21-.4C36,185.9,35,185.38,34.55,186Z"/><path class="cls-4" d="M4.77,182.6c.14-.81-1.13-.61-.92.16.09.21-.29.75-.29.75L1.11,187.2c-.32.39-.47.33-.47.33-.92.16-.76,1.08-.05,1,.22.77,1.35.52,1.13-.25-.09-.21.23-.6.23-.6l2.72-3.93c.26-.24.41-.18.41-.18C6,183.42,5.54,182.38,4.77,182.6Z"/><path class="cls-4" d="M66.46,107.59c2.2-3.45-4.07-5-4.55-1,0,1.13-2.78,2.88-2.78,2.88L40.68,121.7c-2.25,1.18-2.82.63-2.82.63-4.56-1-5.6,3.51-2.18,4.57-.49,4,5.2,5,5.69,1,0-1.13,2.22-2.31,2.22-2.31l20.14-12.87c1.69-.6,2.27,0,2.27,0C70.55,113.74,70.44,108.07,66.46,107.59Z"/><path class="cls-4" d="M22.65,170.61c-1.6-2.4-4.81-.8-4,2.4-2.4,1.61-3.2,3.21.81,5.61s7.21.8,6.41-3.2C29.06,171.41,25.05,169.81,22.65,170.61Z"/><path class="cls-4" d="M118,317.23c1.61-1.6,6.41-1.6,5.61,3.21,7.21,5.6,6.41,12,1.6,10.41s-8-3.2-11.21-.8-6.41-.8-4-4a46.81,46.81,0,0,1,3.21-4C110,318,114.79,314.83,118,317.23Z"/><path class="cls-4" d="M64.38,198.65c3.21-2.4,7.22,2.41,3.21,4.81-1.6,1.6-1.6,1.6-2.4,5.61l-8.82,36.05c-.8,3.21.8,4,.8,4,2.41,2.4-2.4,8-5.6,3.2-4.81,2.41-7.22-4-2.41-5.61a2.84,2.84,0,0,0,1.6-2.4l9.62-39.26c0-.8,0-.8-.8-2.4C56.37,197.05,62.78,195.45,64.38,198.65Z"/><path class="cls-4" d="M47.39,329.15c.67.44,0,1.52-.68.93-.41-.19-.41-.19-1.22-.07l-7.38.81c-.66.07-.7.42-.7.42-.29.62-1.67.1-1-.83-.78-.74.26-1.63.89-.84a.56.56,0,0,0,.56.14l8-.87c.16-.06.16-.06.4-.32C47.15,327.54,47.89,328.63,47.39,329.15Z"/><path class="cls-4" d="M50.62,257.32c2.17-3.43,7.71-.32,4.78,3.41-.95,2.09-.95,2.09-.26,6.18l4.67,37.39c.4,3.33,2.21,3.51,2.21,3.51,3.15,1.41.62,8.47-4.16,5.07-3.69,4-8.29-1.2-4.31-4.46a2.87,2.87,0,0,0,.65-2.85l-5.07-40.72c-.28-.76-.28-.76-1.62-2C42.44,258.7,47.94,254.86,50.62,257.32Z"/><path class="cls-4" d="M28.05,329.59c-.76.29.05,1.29.6.71.14-.18.8-.13.8-.13l4.42.25c.5.08.53.24.53.24.6.71,1.31.11.89-.47.56-.58-.23-1.43-.78-.85-.14.19-.64.1-.64.1l-4.76-.35c-.35-.11-.37-.26-.37-.26C28.13,328.11,27.47,329,28.05,329.59Z"/><path class="cls-4" d="M59.14,317.23c-1.61-1.6-6.41-1.6-5.61,3.21-7.21,5.6-6.41,12-1.61,10.41s8-3.2,11.22-.8,6.41-.8,4-4a46.81,46.81,0,0,0-3.21-4C67.15,318,62.34,314.83,59.14,317.23Z"/><path class="cls-5" d="M89.22,68.64c-1.93,0-4,5.06-3.37,6.36s1.89,2,3.27-1.86c1.84,3.91,2.51,2.64,3.17,2S91.8,68.7,89.22,68.64Z"/><path class="cls-5" d="M104.78,48.89c-8-1.64-12.52,7-9.73,12.13s9.91,11.13,14.42,4.7S109.85,49.74,104.78,48.89Z"/><path class="cls-5" d="M76.17,48.06a9.27,9.27,0,0,0-1.46.12,5.29,5.29,0,0,0-1.87.62l-.45.26A9.09,9.09,0,0,0,70,51.44a12.75,12.75,0,0,0-1.24,2.17l-.25.6a13.21,13.21,0,0,0-.8,3.22,10.09,10.09,0,0,0-.09,1.35c0,.23,0,.45,0,.68a12.54,12.54,0,0,0,.14,1.36c0,.23.08.46.14.68a9.71,9.71,0,0,0,.67,2,9.85,9.85,0,0,0,.68,1.28c.14.2.27.4.41.58a7.46,7.46,0,0,0,.85,1,5.43,5.43,0,0,0,1.4,1,5,5,0,0,0,2,.5A6.19,6.19,0,0,0,76,67.51a11.74,11.74,0,0,0,4-2.27l.46-.4a18.13,18.13,0,0,0,2.1-2.2c.12-.16.25-.31.36-.47a14.78,14.78,0,0,0,1-1.42,6.89,6.89,0,0,0,.49-1,7.31,7.31,0,0,0,.42-1.59,8.47,8.47,0,0,0,0-2.25,9.43,9.43,0,0,0-1.06-3.31c-.1-.17-.19-.34-.3-.51a9.1,9.1,0,0,0-1.08-1.41,8.34,8.34,0,0,0-.87-.81,8.2,8.2,0,0,0-4.62-1.81C76.64,48.06,76.41,48.06,76.17,48.06Z"/><path class="cls-6" d="M96,80.91c-1.36,6.27-5.79,8.08-7.55.51-.14,8.17-5.78,7.44-6.92.51a13,13,0,0,1-.91,2.28c1,4.22,2.86,6.53,6.64,7.86l.38,0c7.54.12,11.77-2.65,11.93-5.63h0C98.12,87,96.58,85,96,80.91Z"/><path class="cls-4" d="M73.88,67.79a5,5,0,0,1-2-.5A5,5,0,0,0,73.88,67.79Z"/><path class="cls-4" d="M80.16,46.85h0Z"/><path class="cls-4" d="M69.31,68a8.29,8.29,0,0,1-1,.54q.21.42.45.81A6.77,6.77,0,0,1,69.34,68Z"/><path class="cls-4" d="M68.55,63.49a9.71,9.71,0,0,1-.67-2A9.71,9.71,0,0,0,68.55,63.49Z"/><path class="cls-4" d="M67.68,57.43a13.21,13.21,0,0,1,.8-3.22A13.21,13.21,0,0,0,67.68,57.43Z"/><path class="cls-4" d="M67.59,58.78a10.09,10.09,0,0,1,.09-1.35A10.09,10.09,0,0,0,67.59,58.78Z"/><path class="cls-4" d="M69.64,65.35a7.46,7.46,0,0,0,.85,1A7.46,7.46,0,0,1,69.64,65.35Z"/><path class="cls-4" d="M68.73,53.61A12.75,12.75,0,0,1,70,51.44,12.75,12.75,0,0,0,68.73,53.61Z"/><path class="cls-4" d="M72.39,49.06A9.09,9.09,0,0,0,70,51.44,9.09,9.09,0,0,1,72.39,49.06Z"/><path class="cls-4" d="M67.74,60.82a12.54,12.54,0,0,1-.14-1.36A12.54,12.54,0,0,0,67.74,60.82Z"/><path class="cls-4" d="M76.17,48.06a9.27,9.27,0,0,0-1.46.12,5.29,5.29,0,0,0-1.87.62,5.29,5.29,0,0,1,1.87-.62A9.27,9.27,0,0,1,76.17,48.06Z"/><path class="cls-4" d="M119,55.53c-3.55-13.26-11-17.15-17.27-19.77a4.7,4.7,0,0,0-.45-.17h0l0,0c2.08,2.19.12,4.38-2.35,1.43L99,37l-.15.09c1.38,2.53-.42,4.38-2.5,1.13h0c1,2.53-1.24,4.34-2.52.73h0c.75,2.76-1.83,4.23-2.59.28h0c0,2.81-2.93,3.66-2.57-.28h-.06c-.74,2.7-3.55,3-2.31-.82l0,0c-1.43,2.3-4.25,1.81-2.06-1.31h0a2.9,2.9,0,0,1-2.45,1,46.9,46.9,0,0,0-8.76,7.07A8,8,0,0,1,74,46.17c-.29-3.58,2.6-5.15,3-.06h0c.53-3.5,4.23-4.32,3.13.73,1.59-3.11,5.35-2.66,2.76,1.8h0c2.44-2.54,5.85-.92,2.07,2.56l0,0c2.64-1.17,5.14,1.29,1.2,2.92,0,0,0,0,0,.06,3-.29,4.68,3.2.3,3.39,0,0,0,0,0,.07,2.84.65,3.35,4.17-.82,3l0,0c3.19,1.94,2.66,5.52-1.86,2.79l0,0c3.06,2.29,1.8,5.85-2.29,2.45l0,0c2.55,2.92.69,6.39-2.76,2.09l0,0c1.42,4.43-1.31,5.26-3.13,1.35l-.08,0c-.52,4.31-3.25,4-3.26,0l0,0a5.48,5.48,0,0,1-2,1.81,20.22,20.22,0,0,0,9.52,6.34c0,.43.07.85.1,1.26,6.73-4.14,19.94-1.25,19.72,7.48,1.23-.5,2.38-3,2.75-7.95C110.49,76.76,122.56,68.78,119,55.53ZM78.89,77.11a.68.68,0,1,1,.69-.66A.68.68,0,0,1,78.89,77.11Zm2.57-1.38a.51.51,0,0,1-.5-.52.5.5,0,0,1,.52-.49.52.52,0,0,1,.5.52A.5.5,0,0,1,81.46,75.73Zm10.83-.58c-.66.63-1.33,1.9-3.17-2C87.74,77,86.46,76.3,85.85,75s1.44-6.41,3.37-6.36C91.8,68.7,93,74.52,92.29,75.15Zm2.79-.36a.5.5,0,0,1-.49-.52.51.51,0,1,1,1,0A.52.52,0,0,1,95.08,74.79Zm2.5,1.49a.68.68,0,1,1,.69-.66A.68.68,0,0,1,97.58,76.28Zm2.92,1.51a.85.85,0,1,1,.87-.83A.85.85,0,0,1,100.5,77.79Zm9-12.07c-4.51,6.43-11.63.45-14.42-4.7s1.78-13.77,9.73-12.13C109.85,49.74,114,59.28,109.47,65.72Z"/><path class="cls-4" d="M71,47.17a1.34,1.34,0,0,0-.11.14l.28.26C71.1,47.43,71,47.3,71,47.17Z"/><path class="cls-4" d="M67.36,65.31l-.21.07a.94.94,0,0,0,0,.16l.2-.17Z"/><path class="cls-4" d="M79.82,79a38.05,38.05,0,0,0,.77,5.23,13,13,0,0,0,.91-2.28c1.14,6.93,6.78,7.66,6.92-.51,1.76,7.57,6.19,5.76,7.55-.51.61,4,2.15,6.13,3.57,5.55C99.76,77.73,86.55,74.84,79.82,79Z"/><path class="cls-7" d="M80.18,46.86v0c1.1-5.05-2.6-4.23-3.13-.73h0a9.86,9.86,0,0,1,3.08.73Z"/><path class="cls-7" d="M71.16,47.57l0,0A7.12,7.12,0,0,1,74,46.29a.49.49,0,0,1,0-.12,8,8,0,0,0-1.09-1.34A25.07,25.07,0,0,0,71,47.17C71,47.3,71.1,47.43,71.16,47.57Z"/><path class="cls-7" d="M71.17,47.6v0l-.28-.26c-.31.43-.6.86-.88,1.31A10.94,10.94,0,0,1,71.17,47.6Z"/><path class="cls-7" d="M71.18,47.59l0,0v0Z"/><path class="cls-7" d="M66.9,64.33c.07.36.15.71.25,1l.21-.07C67.19,65,67,64.66,66.9,64.33Z"/><path class="cls-7" d="M67.84,66.13c-.16-.25-.31-.51-.45-.76l-.2.17a16.41,16.41,0,0,0,1.13,2.95,8.29,8.29,0,0,0,1-.54A9.25,9.25,0,0,1,67.84,66.13Z"/><path class="cls-7" d="M68.77,69.3a15.58,15.58,0,0,0,1.43,2.08,5.48,5.48,0,0,0,2-1.81A6.38,6.38,0,0,1,69.34,68,6.77,6.77,0,0,0,68.77,69.3Z"/><path class="cls-7" d="M72.2,69.59c0,4,2.74,4.26,3.26,0A6.92,6.92,0,0,1,72.2,69.59Z"/><path class="cls-7" d="M78.67,68.17a12,12,0,0,1-3.13,1.35C77.36,73.43,80.09,72.6,78.67,68.17Z"/><path class="cls-7" d="M74.41,46.23a11.43,11.43,0,0,1,2.65-.12c-.44-5.09-3.33-3.52-3,.06l.07.11Z"/><path class="cls-7" d="M74.09,46.28,74,46.17a.49.49,0,0,0,0,.12Z"/><path class="cls-7" d="M85,51.23a11.75,11.75,0,0,1,1.2,2.92C90.18,52.52,87.68,50.06,85,51.23Z"/><path class="cls-7" d="M86.54,57.67a8.52,8.52,0,0,1-.82,3C89.89,61.84,89.38,58.32,86.54,57.67Z"/><path class="cls-7" d="M86.55,57.6c4.38-.19,2.65-3.68-.3-3.39A10.59,10.59,0,0,1,86.55,57.6Z"/><path class="cls-7" d="M80.18,46.86h0A9.93,9.93,0,0,1,83,48.64c2.59-4.46-1.17-4.91-2.76-1.8v0Z"/><path class="cls-7" d="M80.18,46.86v0Z"/><path class="cls-7" d="M85,51.2c3.78-3.48.37-5.1-2.07-2.56A10.78,10.78,0,0,1,85,51.2Z"/><path class="cls-7" d="M83.84,63.53c4.52,2.73,5-.85,1.86-2.79a5.18,5.18,0,0,1-.31.57A20.29,20.29,0,0,1,83.84,63.53Z"/><path class="cls-7" d="M81.52,66c4.09,3.4,5.35-.16,2.29-2.45A22,22,0,0,1,81.52,66Z"/><path class="cls-7" d="M81.48,66.05a18.73,18.73,0,0,1-2.76,2.09C82.17,72.44,84,69,81.48,66.05Z"/><circle class="cls-3" cx="81.47" cy="75.23" r="0.51"/><path class="cls-3" d="M78.92,75.76a.68.68,0,1,0,.66.69A.67.67,0,0,0,78.92,75.76Z"/><circle class="cls-3" cx="100.52" cy="76.94" r="0.84"/><circle class="cls-3" cx="95.09" cy="74.28" r="0.51"/><path class="cls-3" d="M97.61,74.93a.68.68,0,1,0,.66.69A.68.68,0,0,0,97.61,74.93Z"/><path class="cls-3" d="M81.69,37.76a2.9,2.9,0,0,0,2.45-1l-.39-.33C83.05,36.88,82.36,37.32,81.69,37.76Z"/><path class="cls-3" d="M86.21,38.09a11,11,0,0,1-2.06-1.31C82,39.9,84.78,40.39,86.21,38.09Z"/><path class="cls-3" d="M88.55,38.93a10.52,10.52,0,0,1-2.31-.82C85,41.93,87.81,41.63,88.55,38.93Z"/><path class="cls-3" d="M88.61,38.94c-.36,3.94,2.54,3.09,2.57.28A11.7,11.7,0,0,1,88.61,38.94Z"/><path class="cls-3" d="M93.8,38.94a14.21,14.21,0,0,1-2.59.28C92,43.17,94.55,41.7,93.8,38.94Z"/><path class="cls-3" d="M96.32,38.21a16.76,16.76,0,0,1-2.52.73C95.08,42.55,97.33,40.74,96.32,38.21Z"/><path class="cls-3" d="M98.84,37.07a21.62,21.62,0,0,1-2.5,1.13C98.42,41.45,100.22,39.6,98.84,37.07Z"/><path class="cls-3" d="M98.87,37.06c2.47,2.95,4.43.76,2.35-1.43-.76.51-1.51,1-2.23,1.35Z"/><path class="cls-6" d="M80.59,84.21c-1.39,2.63-3.16,2.85-4.61,1.65h0c.36,3.47,4,6,11.25,6.21C83.45,90.74,81.58,88.43,80.59,84.21Z"/><path class="cls-8" d="M80.59,84.21c-1.39,2.63-3.16,2.85-4.61,1.65h0c.36,3.47,4,6,11.25,6.21C83.45,90.74,81.58,88.43,80.59,84.21Z"/><path class="cls-4" d="M82.52,35.18l0,0A31.34,31.34,0,0,0,65.12,46.47c-11.56,14.89-4.91,30.71,8.26,32.19,0,3.17,1.09,6,2.6,7.2A7.61,7.61,0,0,1,79.82,79c0-.41-.07-.83-.1-1.26a20.22,20.22,0,0,1-9.52-6.34c-1.23.57-2-.35-1.43-2.08q-.24-.39-.45-.81c-2.75,1.23-3.55-.78-1.13-2.95a.94.94,0,0,1,0-.16c-3.66,1.12-4.23-1.48-.92-3.08,0,0,0,0,0-.08-4.07.25-4-2.53-.35-3.2v-.08c-4.16-.53-3.5-3.27.38-3.2h0c-4.1-1.79-2.81-4.22,1-3v0c-3.77-2.47-2-4.69,1.64-2.77h0c-2.67-3.27-.76-4.93,2-2.56a1.34,1.34,0,0,1,.11-.14c-1.23-3,.15-4.05,1.94-2.34a46.9,46.9,0,0,1,8.76-7.07C81,37.53,81,36.53,82.52,35.18ZM75.94,76.79a.84.84,0,1,1-.86.82A.84.84,0,0,1,75.94,76.79Z"/><path class="cls-9" d="M82.52,35.18l0,0A31.34,31.34,0,0,0,65.12,46.47c-11.56,14.89-4.91,30.71,8.26,32.19,0,3.17,1.09,6,2.6,7.2A7.61,7.61,0,0,1,79.82,79c0-.41-.07-.83-.1-1.26a20.22,20.22,0,0,1-9.52-6.34c-1.23.57-2-.35-1.43-2.08q-.24-.39-.45-.81c-2.75,1.23-3.55-.78-1.13-2.95a.94.94,0,0,1,0-.16c-3.66,1.12-4.23-1.48-.92-3.08,0,0,0,0,0-.08-4.07.25-4-2.53-.35-3.2v-.08c-4.16-.53-3.5-3.27.38-3.2h0c-4.1-1.79-2.81-4.22,1-3v0c-3.77-2.47-2-4.69,1.64-2.77h0c-2.67-3.27-.76-4.93,2-2.56a1.34,1.34,0,0,1,.11-.14c-1.23-3,.15-4.05,1.94-2.34a46.9,46.9,0,0,1,8.76-7.07C81,37.53,81,36.53,82.52,35.18ZM75.94,76.79a.84.84,0,1,1-.86.82A.84.84,0,0,1,75.94,76.79Z"/><path class="cls-4" d="M76,85.86c1.45,1.2,3.22,1,4.61-1.65A38.05,38.05,0,0,1,79.82,79,7.61,7.61,0,0,0,76,85.86Z"/><path class="cls-9" d="M76,85.86c1.45,1.2,3.22,1,4.61-1.65A38.05,38.05,0,0,1,79.82,79,7.61,7.61,0,0,0,76,85.86Z"/><path class="cls-7" d="M71,47.17a25.07,25.07,0,0,1,1.94-2.34C71.14,43.12,69.76,44.18,71,47.17Z"/><path class="cls-10" d="M71,47.17a25.07,25.07,0,0,1,1.94-2.34C71.14,43.12,69.76,44.18,71,47.17Z"/><path class="cls-7" d="M70.88,47.31c-2.72-2.37-4.63-.71-2,2.56A12,12,0,0,1,70,48.62C70.28,48.17,70.57,47.74,70.88,47.31Z"/><path class="cls-10" d="M70.88,47.31c-2.72-2.37-4.63-.71-2,2.56A12,12,0,0,1,70,48.62C70.28,48.17,70.57,47.74,70.88,47.31Z"/><path class="cls-7" d="M67.28,52.65a14.56,14.56,0,0,1,1.64-2.77C65.28,48,63.51,50.18,67.28,52.65Z"/><path class="cls-10" d="M67.28,52.65a14.56,14.56,0,0,1,1.64-2.77C65.28,48,63.51,50.18,67.28,52.65Z"/><path class="cls-7" d="M66.25,55.73a15.39,15.39,0,0,1,1-3C63.44,51.51,62.15,53.94,66.25,55.73Z"/><path class="cls-10" d="M66.25,55.73a15.39,15.39,0,0,1,1-3C63.44,51.51,62.15,53.94,66.25,55.73Z"/><path class="cls-7" d="M65.86,58.94a15.55,15.55,0,0,1,.38-3.2C62.36,55.67,61.7,58.41,65.86,58.94Z"/><path class="cls-10" d="M65.86,58.94a15.55,15.55,0,0,1,.38-3.2C62.36,55.67,61.7,58.41,65.86,58.94Z"/><path class="cls-7" d="M66.21,62.22a13.89,13.89,0,0,1-.35-3.2C62.19,59.69,62.14,62.47,66.21,62.22Z"/><path class="cls-10" d="M66.21,62.22a13.89,13.89,0,0,1-.35-3.2C62.19,59.69,62.14,62.47,66.21,62.22Z"/><path class="cls-7" d="M66.23,62.3c-3.31,1.6-2.74,4.2.92,3.08-.1-.34-.18-.69-.25-1A12.37,12.37,0,0,1,66.23,62.3Z"/><path class="cls-10" d="M66.23,62.3c-3.31,1.6-2.74,4.2.92,3.08-.1-.34-.18-.69-.25-1A12.37,12.37,0,0,1,66.23,62.3Z"/><path class="cls-7" d="M68.32,68.49a16.41,16.41,0,0,1-1.13-2.95C64.77,67.71,65.57,69.72,68.32,68.49Z"/><path class="cls-10" d="M68.32,68.49a16.41,16.41,0,0,1-1.13-2.95C64.77,67.71,65.57,69.72,68.32,68.49Z"/><path class="cls-7" d="M70.2,71.38a15.58,15.58,0,0,1-1.43-2.08C68.24,71,69,72,70.2,71.38Z"/><path class="cls-10" d="M70.2,71.38a15.58,15.58,0,0,1-1.43-2.08C68.24,71,69,72,70.2,71.38Z"/><circle class="cls-3" cx="75.92" cy="77.63" r="0.84"/><circle class="cls-11" cx="75.92" cy="77.63" r="0.84"/><path class="cls-3" d="M82.52,35.18c-1.5,1.35-1.52,2.35-.83,2.58.67-.44,1.36-.88,2.06-1.32A12.15,12.15,0,0,1,82.52,35.18Z"/><path class="cls-11" d="M82.52,35.18c-1.5,1.35-1.52,2.35-.83,2.58.67-.44,1.36-.88,2.06-1.32A12.15,12.15,0,0,1,82.52,35.18Z"/><g id="Right_Eye" data-name="Right Eye"><g id="Red"><path class="cls-7" d="M102.42,46.79c-.39-3.6-4.06-4.6-3.16.6Z"/><path class="cls-7" d="M108,48.92c2.49-4.27,0-5.59-2.64-1.85Z"/><path class="cls-7" d="M110.25,51c3.12-3.37.94-5.21-2.17-2.4Z"/><path class="cls-7" d="M111.85,53.71c3.91-2.31,2.21-4.63-1.55-2.84Z"/><path class="cls-7" d="M112.72,56.84c4.28-1.63,3-4.2-1.08-3.05Z"/><path class="cls-7" d="M112.91,60.06c4.27-.31,3.74-3.12-.2-3.22Z"/><path class="cls-7" d="M112.4,63.3c4.15.49,4.24-2.35.52-3.18Z"/><path class="cls-7" d="M111.08,66.31c3.9,1.57,4.71-1.16,1.29-3Z"/><path class="cls-7" d="M109.08,68.87c3.54,2.49,4.93.11,2-2.52Z"/><path class="cls-7" d="M106.17,70.33c2.44,3.74,4.72,2.16,2.88-1.45Z"/><path class="cls-7" d="M102.88,70c.27,4.49,3.08,4.37,3.27.32Z"/><path class="cls-7" d="M99.8,68.52c-1.75,4.5,1,5.51,3,1.61Z"/><path class="cls-7" d="M105.39,47.19c.67-3.82-2.41-5.75-3-.19Z"/><path class="cls-7" d="M94.41,51.58c-2.73-1.52-5.52.92-1.39,2.82Z"/><path class="cls-7" d="M92.51,57.78c-3,.44-3.62,3.92.71,2.94Z"/><path class="cls-7" d="M93,54.38c-3.08-.5-5,3-.5,3.37Z"/><path class="cls-7" d="M99.31,47.42c-1.48-3.32-5.32-3.06-2.86,1.63Z"/><path class="cls-7" d="M96.48,49.08c-2.4-2.78-5.91-1.32-2.17,2.48Z"/><path class="cls-7" d="M93.26,60.82c-3.52,1.76-3.18,5.62,1.71,2.88Z"/><path class="cls-7" d="M94.93,63.74c-3.29,2.22-2.16,5.92,2.29,2.48Z"/><path class="cls-7" d="M97.14,66.32c-2.81,2.87-1.09,6.49,2.66,2.21Z"/></g><path class="cls-12" d="M86.24,54.15A11.75,11.75,0,0,0,85,51.23l0,0A10.78,10.78,0,0,0,83,48.64h0a9.93,9.93,0,0,0-2.78-1.78h0a9.86,9.86,0,0,0-3.08-.73h0a11.43,11.43,0,0,0-2.65.12l-.32.05H74a7.12,7.12,0,0,0-2.85,1.3h0a10.94,10.94,0,0,0-1.17,1,12,12,0,0,0-1.08,1.25h0a14.56,14.56,0,0,0-1.64,2.77v0a15.39,15.39,0,0,0-1,3h0a15.55,15.55,0,0,0-.38,3.2V59a13.89,13.89,0,0,0,.35,3.2s0,.06,0,.08a12.37,12.37,0,0,0,.67,2c.14.33.29.66.46,1l0,.06c.14.25.29.51.45.76A9.25,9.25,0,0,0,69.31,68l0,0a6.38,6.38,0,0,0,2.81,1.58l0,0a6.92,6.92,0,0,0,3.26,0l.08,0a12,12,0,0,0,3.13-1.35l0,0a18.73,18.73,0,0,0,2.76-2.09l0,0a22,22,0,0,0,2.29-2.45l0,0a20.29,20.29,0,0,0,1.55-2.22,5.18,5.18,0,0,0,.31-.57l0,0a8.52,8.52,0,0,0,.82-3s0,0,0-.07a10.59,10.59,0,0,0-.3-3.39S86.24,54.17,86.24,54.15ZM76,67.51a6.19,6.19,0,0,1-2.07.28,5,5,0,0,1-2-.5,5.43,5.43,0,0,1-1.4-1,7.46,7.46,0,0,1-.85-1c-.14-.18-.27-.38-.41-.58a9.85,9.85,0,0,1-.68-1.28,9.71,9.71,0,0,1-.67-2c-.06-.22-.1-.45-.14-.68a12.54,12.54,0,0,1-.14-1.36c0-.23,0-.45,0-.68a10.09,10.09,0,0,1,.09-1.35,13.21,13.21,0,0,1,.8-3.22l.25-.6A12.75,12.75,0,0,1,70,51.44a9.09,9.09,0,0,1,2.42-2.38l.45-.26a5.29,5.29,0,0,1,1.87-.62,9.27,9.27,0,0,1,1.46-.12c.24,0,.47,0,.69,0a8.2,8.2,0,0,1,4.62,1.81,8.34,8.34,0,0,1,.87.81,9.1,9.1,0,0,1,1.08,1.41c.11.17.2.34.3.51a9.43,9.43,0,0,1,1.06,3.31,8.47,8.47,0,0,1,0,2.25,7.31,7.31,0,0,1-.42,1.59,6.89,6.89,0,0,1-.49,1,14.78,14.78,0,0,1-1,1.42c-.11.16-.24.31-.36.47a18.13,18.13,0,0,1-2.1,2.2l-.46.4A11.74,11.74,0,0,1,76,67.51Z"/><path class="cls-12" d="M93.8,38.94a16.76,16.76,0,0,0,2.52-.73h0a21.62,21.62,0,0,0,2.5-1.13L99,37c.72-.39,1.47-.84,2.23-1.35l0,0h0a32.34,32.34,0,0,0-14.21-1.27,37,37,0,0,0-4.58.84l0,0a12.15,12.15,0,0,0,1.23,1.26l.39.33h0a11,11,0,0,0,2.06,1.31l0,0a10.52,10.52,0,0,0,2.31.82h.06a11.7,11.7,0,0,0,2.57.28h0a14.21,14.21,0,0,0,2.59-.28Z"/><path class="cls-12" d="M105.18,47c-9.55-2-15,8.37-11.68,14.55s11.89,13.37,17.3,5.64S111.26,48,105.18,47Zm4.29,18.77c-4.51,6.43-11.63.45-14.42-4.7s1.78-13.77,9.73-12.13C109.85,49.74,114,59.28,109.47,65.72Z"/></g></g></g></g></svg>