<svg xmlns="http://www.w3.org/2000/svg" viewBox="0 0 175.27 298.75"><defs><style>.cls-1,.cls-7{fill:#fff6df;}.cls-2{fill:none;}.cls-3,.cls-6{fill:#ddc19a;}.cls-4,.cls-8{fill:#ad1ca3;}.cls-5,.cls-9{fill:#1b7aaf;}.cls-6,.cls-7,.cls-8,.cls-9{opacity:0.2;}.cls-10{fill:#f69220;}.cls-11{fill:#b40110;}.cls-12{fill:#670a16;}.cls-13{fill:#c22e39;}</style></defs><title>Skeleton 2</title><g id="Layer_2" data-name="Layer 2"><g id="Page_1" data-name="Page 1"><g id="Skeleton_2" data-name="Skeleton 2"><path class="cls-1" d="M97,108.76l18,3.35a47.48,47.48,0,0,0-.07-5.52l-18.67-3.48A2,2,0,0,1,97,99.19l17.57,3.27c-.11-.92-.22-1.86-.36-2.87s-.28-1.79-.45-2.64L95.48,93.54a2,2,0,0,1,.74-3.92l16.47,3.07A30.2,30.2,0,0,0,110.26,87L93.89,84a2,2,0,1,1,.73-3.91l12.24,2.28c-6.33-6.78-14.81-7.47-19-7.47s-12.62.69-19,7.47L81.2,80.06A2,2,0,1,1,81.93,84L65.56,87a30.2,30.2,0,0,0-2.43,5.66l16.48-3.07a2,2,0,0,1,.73,3.92L62.05,97c-.17.85-.32,1.72-.45,2.64s-.25,2-.35,2.87l17.56-3.27a2,2,0,0,1,.73,3.92l-18.67,3.48a49.82,49.82,0,0,0-.07,5.52l18-3.35a2,2,0,1,1,.73,3.91L61.3,116.08c1.39,6,5.17,5.55,8.27,5,4.79-.79,14.35-2.39,18.34-2.39s13.55,1.6,18.34,2.39c3.11.52,6.88,1,8.27-5l-18.24-3.41a2,2,0,0,1,.73-3.91Z"/><path class="cls-1" d="M107,145c0-4,0-6.38-3.18-8.77s-12,4.78-16,4.78S75.16,133.87,72,136.26,68.78,141,68.78,145s-9.57,7.17-6.38,12.76,8,6.37,11.16,5.58,9.57-2.4,14.35-2.4,11.16,1.6,14.35,2.4,8,0,11.16-5.58S107,149,107,145Z"/><path class="cls-1" d="M112.19,166.55C109,164.16,105,169,109,171.34c1.59,1.59,1.59,1.59,2.39,5.58l8.77,35.87c.79,3.19-.8,4-.8,4-2.39,2.39,2.39,8,5.58,3.19,4.78,2.39,7.18-4,2.39-5.58a2.83,2.83,0,0,1-1.59-2.39l-9.57-39.07c0-.79,0-.79.8-2.39C120.16,165,113.78,163.37,112.19,166.55Z"/><path class="cls-1" d="M129.09,296.41c-.66.43,0,1.51.68.92.41-.19.41-.19,1.22-.06l7.34.8c.65.06.69.42.69.42.29.61,1.67.09,1-.83.78-.74-.25-1.62-.88-.83a.57.57,0,0,1-.56.13l-8-.87c-.15,0-.15,0-.39-.31C129.34,294.8,128.6,295.89,129.09,296.41Z"/><path class="cls-1" d="M125.88,224.93c-2.16-3.42-7.67-.32-4.75,3.39.94,2.09.94,2.09.25,6.16l-4.65,37.2c-.39,3.31-2.19,3.49-2.19,3.49-3.14,1.4-.62,8.43,4.14,5,3.67,4,8.24-1.19,4.28-4.43a2.88,2.88,0,0,1-.65-2.84l5-40.51c.29-.76.29-.76,1.62-2C134,226.3,128.55,222.49,125.88,224.93Z"/><path class="cls-1" d="M86.63,133.07h2.57a3.5,3.5,0,0,1,3.5,3.5v.68a1.4,1.4,0,0,1-1.4,1.4H84.53a1.4,1.4,0,0,1-1.4-1.4v-.68A3.5,3.5,0,0,1,86.63,133.07Z"/><path class="cls-1" d="M87.23,126.51h1.36A3.39,3.39,0,0,1,92,129.9v0a1.36,1.36,0,0,1-1.36,1.36H85.2a1.36,1.36,0,0,1-1.36-1.36v0a3.39,3.39,0,0,1,3.39-3.39Z"/><path class="cls-1" d="M87.23,69.11h1.36A3.39,3.39,0,0,1,92,72.5v0a1.36,1.36,0,0,1-1.36,1.36H85.2a1.36,1.36,0,0,1-1.36-1.36v0A3.39,3.39,0,0,1,87.23,69.11Z"/><path class="cls-1" d="M87.31,120.22h1.2a3,3,0,0,1,3,3v0a1.2,1.2,0,0,1-1.2,1.2H85.52a1.2,1.2,0,0,1-1.2-1.2v0a3,3,0,0,1,3-3Z"/><path class="cls-1" d="M87.31,62.81h1.2a3,3,0,0,1,3,3v0A1.2,1.2,0,0,1,90.3,67H85.52a1.2,1.2,0,0,1-1.2-1.2v0A3,3,0,0,1,87.31,62.81Z"/><path class="cls-1" d="M148.34,296.84c.76.29-.05,1.29-.6.71-.13-.18-.79-.13-.79-.13l-4.4.25c-.5.08-.53.24-.53.24-.6.71-1.31.1-.89-.47-.55-.58.23-1.42.79-.84.13.18.63.1.63.1l4.74-.35c.34-.11.37-.27.37-.27C148.26,295.37,148.91,296.29,148.34,296.84Z"/><path class="cls-1" d="M22.6,149c.64-.48,1.44.48.64.95-.32.32-.32.32-.48,1.12L21,158.21c-.16.63.16.79.16.79.48.48-.48,1.6-1.12.64a.63.63,0,1,1-.48-1.12.56.56,0,0,0,.32-.47l1.92-7.82c0-.16,0-.16-.16-.48C21,148.64,22.28,148.32,22.6,149Z"/><path class="cls-1" d="M27.06,144.76a.58.58,0,1,1,1.15,0c.09.44.09.44.68,1L34,151.09c.45.48.76.3.76.3a.64.64,0,1,1-.06,1.28c-.12,1.07-1.45.78-1.2-.19a.56.56,0,0,0-.23-.53l-5.55-5.83c-.13-.08-.13-.08-.49-.12C25.93,145.93,26.35,144.69,27.06,144.76Z"/><path class="cls-1" d="M19.05,147.82a.58.58,0,1,1,.4,1.08c-.39.23-.39.23-.73,1l-3.4,6.56c-.31.58,0,.81,0,.81.36.58-.84,1.44-1.23.36a.63.63,0,1,1-.2-1.2.56.56,0,0,0,.42-.39L18,148.87c0-.15,0-.15-.05-.5C17.58,147.13,18.89,147.12,19.05,147.82Z"/><path class="cls-1" d="M16.39,146.37a.58.58,0,1,1,.06,1.15c-.44.11-.44.11-1,.72l-5.16,5.28c-.47.47-.27.77-.27.77.17.66-1.23,1.13-1.29,0a.62.62,0,1,1,.16-1.2.59.59,0,0,0,.52-.25l5.62-5.75c.08-.14.08-.14.11-.5C15.18,145.29,16.44,145.66,16.39,146.37Z"/><path class="cls-1" d="M15,143.76a.58.58,0,1,1-.3,1.11c-.45,0-.45,0-1.15.38L7,148.69c-.58.31-.49.65-.49.65,0,.68-1.51.7-1.22-.41-1-.4-.35-1.6.52-1.1a.57.57,0,0,0,.57-.08L13.54,144c.12-.11.12-.11.26-.44C14.21,142.36,15.29,143.1,15,143.76Z"/><path class="cls-1" d="M31.31,100.38c-.8-4-6.38-.79-4,2.4.8.79,0,4,0,4l-4.78,21.53c-.8,2.39-1.6,2.39-1.6,2.39-4,2.39-1.59,6.38,1.6,4.78,2.39,3.19,7.17,0,4.78-3.19-.8-.79,0-3.19,0-3.19L32.9,106c.8-1.6,1.6-1.6,1.6-1.6C38.48,102,34.5,98,31.31,100.38Z"/><path class="cls-1" d="M7.85,155.74c-.09-.81-1.26-.28-.84.4.15.18-.07.8-.07.8l-1.34,4.2c-.2.46-.36.45-.36.45-.84.4-.43,1.24.23,1,.42.68,1.43.13,1-.55-.14-.17.06-.64.06-.64l1.53-4.5c.19-.3.34-.29.34-.29C9.25,156.18,8.53,155.32,7.85,155.74Z"/><path class="cls-1" d="M13.56,159.58c-.25-.77-1.29,0-.75.56.18.14.09.79.09.79l-.51,4.39c-.1.49-.26.5-.26.5-.75.56-.19,1.31.41.92.55.59,1.43-.15.89-.73-.18-.14-.07-.64-.07-.64l.63-4.71c.13-.34.28-.35.28-.35C15,159.75,14.14,159,13.56,159.58Z"/><path class="cls-1" d="M19.85,161.15c-.32-.74-1.28.12-.67.64.19.12.17.78.17.78V167c-.06.5-.21.54-.21.54-.68.63,0,1.31.51.86.61.52,1.41-.3.8-.83-.19-.12-.13-.62-.13-.62l.1-4.75c.08-.35.24-.38.24-.38C21.32,161.16,20.38,160.55,19.85,161.15Z"/><path class="cls-1" d="M34.38,154c-.4-.71-1.27.23-.62.7.2.1.24.76.24.76l.38,4.39c0,.51-.17.55-.17.55-.61.7.08,1.32.6.82.64.47,1.36-.43.72-.89-.2-.11-.19-.61-.19-.61L35,155c.06-.35.21-.4.21-.4C35.84,153.87,34.84,153.35,34.38,154Z"/><path class="cls-1" d="M4.75,150.58c.14-.8-1.13-.61-.92.16.09.21-.28.74-.28.74L1.1,155.16c-.32.38-.47.33-.47.33-.91.16-.75,1.07,0,1a.57.57,0,1,0,1.12-.25c-.09-.2.23-.59.23-.59l2.71-3.91c.26-.24.41-.19.41-.19C6,151.39,5.52,150.36,4.75,150.58Z"/><path class="cls-1" d="M66.13,75.94c2.19-3.43-4-5-4.53-1,0,1.13-2.76,2.88-2.76,2.88L40.48,90c-2.24,1.17-2.81.62-2.81.62-4.53-1-5.57,3.49-2.17,4.55-.48,4,5.18,5,5.66,1,0-1.13,2.21-2.3,2.21-2.3l20-12.81c1.68-.6,2.26,0,2.26,0C70.2,82.06,70.09,76.42,66.13,75.94Z"/><path class="cls-1" d="M22.54,138.65c-1.6-2.39-4.79-.8-4,2.39-2.39,1.6-3.19,3.19.8,5.58s7.17.8,6.38-3.19C28.92,139.45,24.93,137.85,22.54,138.65Z"/><path class="cls-1" d="M152.67,149c-.64-.48-1.44.48-.64.95.32.32.32.32.48,1.12l1.75,7.18c.16.63-.16.79-.16.79-.48.48.48,1.6,1.12.64a.63.63,0,1,0,.48-1.12.56.56,0,0,1-.32-.47l-1.92-7.82c0-.16,0-.16.16-.48C154.26,148.64,153,148.32,152.67,149Z"/><path class="cls-1" d="M148.21,144.76a.58.58,0,1,0-1.15,0c-.09.44-.09.44-.68,1l-5.09,5.34c-.45.48-.76.3-.76.3a.64.64,0,1,0,.06,1.28c.12,1.07,1.45.78,1.2-.19A.56.56,0,0,1,142,152l5.55-5.83c.13-.08.13-.08.49-.12C149.34,145.93,148.92,144.69,148.21,144.76Z"/><path class="cls-1" d="M156.22,147.82a.58.58,0,1,0-.39,1.08c.38.23.38.23.72,1l3.4,6.56c.31.58,0,.81,0,.81-.36.58.84,1.44,1.23.36a.63.63,0,1,0,.2-1.2A.56.56,0,0,1,161,156l-3.71-7.14c0-.15,0-.15.05-.5C157.69,147.13,156.38,147.12,156.22,147.82Z"/><path class="cls-1" d="M158.88,146.37a.58.58,0,1,0-.06,1.15c.44.11.44.11,1,.72l5.16,5.28c.47.47.27.77.27.77-.17.66,1.23,1.13,1.29,0a.62.62,0,1,0-.16-1.2.59.59,0,0,1-.52-.25l-5.62-5.75c-.08-.14-.08-.14-.11-.5C160.09,145.29,158.83,145.66,158.88,146.37Z"/><path class="cls-1" d="M160.24,143.76a.58.58,0,1,0,.3,1.11c.45,0,.45,0,1.15.38l6.54,3.44c.58.31.49.65.49.65,0,.68,1.51.7,1.22-.41,1-.4.35-1.6-.52-1.1a.57.57,0,0,1-.57-.08L161.73,144c-.12-.11-.12-.11-.26-.44C161.06,142.36,160,143.1,160.24,143.76Z"/><path class="cls-1" d="M144,100.38c.8-4,6.38-.79,4,2.4-.8.79,0,4,0,4l4.78,21.53c.8,2.39,1.6,2.39,1.6,2.39,4,2.39,1.59,6.38-1.6,4.78-2.39,3.19-7.17,0-4.78-3.19.8-.79,0-3.19,0-3.19L142.37,106c-.8-1.6-1.6-1.6-1.6-1.6C136.79,102,140.77,98,144,100.38Z"/><path class="cls-1" d="M167.42,155.74c.09-.81,1.26-.28.84.4-.15.18.07.8.07.8l1.34,4.2c.2.46.36.45.36.45.84.4.43,1.24-.23,1-.42.68-1.43.13-1-.55.14-.17-.06-.64-.06-.64l-1.53-4.5c-.18-.3-.34-.29-.34-.29C166,156.18,166.74,155.32,167.42,155.74Z"/><path class="cls-1" d="M161.71,159.58c.25-.77,1.29,0,.75.56-.18.14-.09.79-.09.79l.51,4.39c.1.49.26.5.26.5.75.56.19,1.31-.41.92-.55.59-1.43-.15-.89-.73.18-.14.07-.64.07-.64l-.63-4.71c-.12-.34-.28-.35-.28-.35C160.25,159.75,161.13,159,161.71,159.58Z"/><path class="cls-1" d="M155.42,161.15c.32-.74,1.28.12.67.64-.19.12-.17.78-.17.78V167c.06.5.21.54.21.54.68.63,0,1.31-.51.86-.61.52-1.41-.3-.8-.83.19-.12.13-.62.13-.62l-.09-4.75c-.09-.35-.25-.38-.25-.38C154,161.16,154.9,160.55,155.42,161.15Z"/><path class="cls-1" d="M140.89,154c.4-.71,1.27.23.62.7-.2.1-.24.76-.24.76l-.38,4.39c0,.51.17.55.17.55.61.7-.08,1.32-.6.82-.64.47-1.36-.43-.72-.89.2-.11.19-.61.19-.61l.33-4.75c-.06-.35-.21-.4-.21-.4C139.43,153.87,140.43,153.35,140.89,154Z"/><path class="cls-1" d="M170.52,150.58c-.14-.8,1.13-.61.92.16-.09.21.28.74.28.74l2.45,3.68c.32.38.47.33.47.33.91.16.75,1.07,0,1a.57.57,0,1,1-1.12-.25c.09-.2-.23-.59-.23-.59l-2.7-3.91c-.27-.24-.42-.19-.42-.19C169.3,151.39,169.75,150.36,170.52,150.58Z"/><path class="cls-1" d="M109.14,75.94c-2.19-3.43,4-5,4.53-1,0,1.13,2.76,2.88,2.76,2.88L134.8,90c2.23,1.17,2.8.62,2.8.62,4.53-1,5.57,3.49,2.17,4.55.48,4-5.18,5-5.66,1,0-1.13-2.21-2.3-2.21-2.3l-20-12.81c-1.68-.6-2.26,0-2.26,0C105.07,82.06,105.18,76.42,109.14,75.94Z"/><path class="cls-1" d="M152.73,138.65c1.6-2.39,4.79-.8,4,2.39,2.39,1.6,3.19,3.19-.8,5.58s-7.17.8-6.38-3.19C146.35,139.45,150.34,137.85,152.73,138.65Z"/><path class="cls-1" d="M117.41,284.55c1.59-1.6,6.38-1.6,5.58,3.18,7.17,5.58,6.38,12,1.59,10.37s-8-3.19-11.16-.8-6.38-.8-4-4a46.11,46.11,0,0,1,3.19-4C109.44,285.34,114.22,282.15,117.41,284.55Z"/><path class="cls-1" d="M64.07,166.55c3.18-2.39,7.17,2.4,3.18,4.79-1.59,1.59-1.59,1.59-2.39,5.58l-8.77,35.87c-.79,3.19.8,4,.8,4,2.39,2.39-2.39,8-5.58,3.19-4.78,2.39-7.18-4-2.39-5.58A2.83,2.83,0,0,0,50.51,212l9.57-39.07c0-.79,0-.79-.8-2.39C56.09,165,62.47,163.37,64.07,166.55Z"/><path class="cls-1" d="M47.16,296.41a.58.58,0,1,1-.68.92c-.41-.19-.41-.19-1.22-.06l-7.34.8c-.65.06-.69.42-.69.42-.29.61-1.67.09-1-.83-.78-.74.26-1.62.88-.83a.57.57,0,0,0,.56.13l8-.87c.15,0,.15,0,.39-.31C46.91,294.8,47.65,295.89,47.16,296.41Z"/><path class="cls-1" d="M50.37,224.93c2.16-3.42,7.67-.32,4.75,3.39-.94,2.09-.94,2.09-.25,6.16l4.65,37.2c.39,3.31,2.19,3.49,2.19,3.49,3.14,1.4.62,8.43-4.14,5-3.67,4-8.24-1.19-4.28-4.43a2.88,2.88,0,0,0,.65-2.84l-5-40.51c-.29-.76-.29-.76-1.62-2C42.23,226.3,47.7,222.49,50.37,224.93Z"/><path class="cls-1" d="M27.91,296.84c-.76.29.05,1.29.6.71.13-.18.79-.13.79-.13l4.4.25c.5.08.53.24.53.24.6.71,1.31.1.89-.47.55-.58-.23-1.42-.79-.84-.13.18-.63.1-.63.1L29,296.35c-.34-.11-.36-.27-.36-.27C28,295.37,27.34,296.29,27.91,296.84Z"/><path class="cls-1" d="M58.84,284.55c-1.59-1.6-6.38-1.6-5.58,3.18-7.17,5.58-6.38,12-1.59,10.37s8-3.19,11.16-.8,6.38-.8,4-4a48.31,48.31,0,0,0-3.18-4C66.81,285.34,62,282.15,58.84,284.55Z"/><path class="cls-2" d="M88.78,37.18c-1.92,0-4,5-3.36,6.34s1.88,2,3.25-1.85c1.84,3.89,2.51,2.62,3.16,2S91.34,37.24,88.78,37.18Z"/><path class="cls-2" d="M104.26,17.53c-7.91-1.63-12.45,6.94-9.68,12.07s9.86,11.08,14.35,4.68S109.31,18.38,104.26,17.53Z"/><path class="cls-2" d="M75.79,16.71a9.24,9.24,0,0,0-1.45.12,5.22,5.22,0,0,0-1.86.61q-.23.12-.45.27a9.27,9.27,0,0,0-2.41,2.36,12.9,12.9,0,0,0-1.23,2.16l-.25.6a13.64,13.64,0,0,0-.8,3.2c0,.44-.08.89-.09,1.34,0,.23,0,.46,0,.68a10.47,10.47,0,0,0,.15,1.36c0,.22.08.45.13.67a9.92,9.92,0,0,0,.67,2,9.62,9.62,0,0,0,.68,1.26c.13.21.27.4.4.59a8.12,8.12,0,0,0,.86,1,5.88,5.88,0,0,0,1.38,1,5,5,0,0,0,2,.49,6.19,6.19,0,0,0,2.07-.28,11.56,11.56,0,0,0,4-2.25l.46-.4a18,18,0,0,0,2.09-2.2l.36-.46a14.67,14.67,0,0,0,1-1.41,5.93,5.93,0,0,0,.48-1,7.16,7.16,0,0,0,.42-1.59,8.32,8.32,0,0,0,0-2.23,9.33,9.33,0,0,0-1.06-3.29c-.09-.17-.19-.34-.29-.51A9.1,9.1,0,0,0,82,19.34a8.34,8.34,0,0,0-.87-.81,8.05,8.05,0,0,0-1.52-1,8.3,8.3,0,0,0-3.08-.82C76.26,16.71,76,16.71,75.79,16.71Z"/><path class="cls-3" d="M95.49,49.4c-1.35,6.23-5.76,8-7.51.5-.13,8.13-5.75,7.41-6.89.51a13.23,13.23,0,0,1-.9,2.27c1,4.2,2.85,6.5,6.61,7.82l.38,0c7.5.12,11.71-2.64,11.87-5.6h0C97.63,55.5,96.1,53.43,95.49,49.4Z"/><path class="cls-1" d="M73.51,36.34a5,5,0,0,1-2-.49A5,5,0,0,0,73.51,36.34Z"/><path class="cls-1" d="M79.76,15.51h0Z"/><path class="cls-1" d="M69,36.5A6.87,6.87,0,0,1,68,37q.21.42.45.81a6.37,6.37,0,0,1,.57-1.3S69,36.51,69,36.5Z"/><path class="cls-1" d="M68.21,32.07a9.92,9.92,0,0,1-.67-2A9.92,9.92,0,0,0,68.21,32.07Z"/><path class="cls-1" d="M67.34,26a13.64,13.64,0,0,1,.8-3.2A13.64,13.64,0,0,0,67.34,26Z"/><path class="cls-1" d="M67.25,27.37c0-.45,0-.9.09-1.34C67.29,26.47,67.26,26.92,67.25,27.37Z"/><path class="cls-1" d="M69.29,33.92a8.12,8.12,0,0,0,.86,1A8.12,8.12,0,0,1,69.29,33.92Z"/><path class="cls-1" d="M68.39,22.23a12.9,12.9,0,0,1,1.23-2.16A12.9,12.9,0,0,0,68.39,22.23Z"/><path class="cls-1" d="M72,17.71a9.27,9.27,0,0,0-2.41,2.36A9.27,9.27,0,0,1,72,17.71Z"/><path class="cls-1" d="M67.41,29.41a10.47,10.47,0,0,1-.15-1.36A10.47,10.47,0,0,0,67.41,29.41Z"/><path class="cls-1" d="M75.79,16.71a9.24,9.24,0,0,0-1.45.12,5.22,5.22,0,0,0-1.86.61,5.22,5.22,0,0,1,1.86-.61A9.24,9.24,0,0,1,75.79,16.71Z"/><path class="cls-1" d="M118.42,24.14c-3.53-13.19-11-17.07-17.18-19.67l-.45-.17h0l0,0c2.07,2.18.11,4.36-2.34,1.42l.12-.07-.15.08c1.38,2.52-.42,4.36-2.48,1.13h0c1,2.53-1.23,4.33-2.51.73h0c.75,2.75-1.81,4.21-2.58.28h0c0,2.8-2.92,3.65-2.56-.27l-.06,0c-.73,2.69-3.53,3-2.3-.81l0,0c-1.42,2.29-4.22,1.8-2-1.31h0a2.86,2.86,0,0,1-2.43,1,47.17,47.17,0,0,0-8.72,7,8.35,8.35,0,0,1,1.08,1.33c-.29-3.55,2.59-5.12,3-.05h0c.53-3.48,4.21-4.3,3.11.73,1.58-3.1,5.33-2.65,2.75,1.78h0c2.43-2.53,5.82-.92,2.06,2.55l0,0c2.62-1.16,5.11,1.29,1.19,2.9a.64.64,0,0,0,0,.07c2.93-.29,4.65,3.19.29,3.38,0,0,0,0,0,.06,2.82.65,3.33,4.15-.82,3v0c3.17,1.92,2.64,5.49-1.86,2.77l0,0c3,2.28,1.79,5.83-2.29,2.44l0,0c2.55,2.9.7,6.35-2.74,2.08l0,0c1.41,4.41-1.3,5.24-3.12,1.34l-.07,0c-.53,4.29-3.24,4-3.25.05l0,0a5.34,5.34,0,0,1-1.94,1.8,20,20,0,0,0,9.48,6.31c0,.43.06.85.1,1.25,6.69-4.11,19.84-1.24,19.62,7.45,1.22-.5,2.36-3,2.74-7.92C109.94,45.26,122,37.33,118.42,24.14ZM78.5,45.61a.67.67,0,1,1,0-1.34.68.68,0,0,1,.66.69A.67.67,0,0,1,78.5,45.61Zm2.55-1.37a.5.5,0,0,1-.49-.51.5.5,0,0,1,.52-.49.49.49,0,0,1,.49.51A.5.5,0,0,1,81.05,44.24Zm10.78-.57c-.65.62-1.32,1.89-3.16-2-1.37,3.81-2.64,3.14-3.25,1.85s1.44-6.38,3.36-6.34C91.34,37.24,92.49,43,91.83,43.67Zm2.78-.37a.49.49,0,0,1-.49-.51.5.5,0,0,1,.51-.49.5.5,0,1,1,0,1Zm2.49,1.49a.68.68,0,0,1-.66-.69.67.67,0,0,1,.69-.65.67.67,0,0,1,0,1.34Zm2.9,1.5a.84.84,0,0,1,0-1.68.84.84,0,1,1,0,1.68Zm8.93-12c-4.49,6.4-11.58.45-14.35-4.68s1.77-13.7,9.68-12.07C109.31,18.38,113.42,27.87,108.93,34.28Z"/><path class="cls-1" d="M70.63,15.82l-.1.14.28.26Z"/><path class="cls-1" d="M67,33.87l-.22.07a1.24,1.24,0,0,1,0,.16l.21-.17Z"/><path class="cls-1" d="M79.43,47.47a36.59,36.59,0,0,0,.76,5.21,13.23,13.23,0,0,0,.9-2.27c1.14,6.9,6.76,7.62,6.89-.51,1.75,7.53,6.16,5.73,7.51-.5.61,4,2.14,6.1,3.56,5.52C99.27,46.23,86.12,43.36,79.43,47.47Z"/><path class="cls-4" d="M79.78,15.51h0c1.1-5-2.58-4.21-3.11-.73h0a10.09,10.09,0,0,1,3.06.74Z"/><path class="cls-4" d="M70.81,16.22l0,0A7.08,7.08,0,0,1,73.66,15s0-.08,0-.13a8.35,8.35,0,0,0-1.08-1.33,26.61,26.61,0,0,0-1.94,2.33Z"/><path class="cls-4" d="M70.82,16.25v0L70.53,16c-.31.43-.6.86-.88,1.3A12.07,12.07,0,0,1,70.82,16.25Z"/><path class="cls-4" d="M70.83,16.24l0,0v0Z"/><path class="cls-4" d="M66.57,32.9c.07.36.15.7.24,1l.22-.07C66.86,33.55,66.71,33.23,66.57,32.9Z"/><path class="cls-4" d="M67.5,34.69a8.31,8.31,0,0,1-.44-.76l-.21.17A16.67,16.67,0,0,0,68,37a6.87,6.87,0,0,0,1-.53A9.85,9.85,0,0,1,67.5,34.69Z"/><path class="cls-4" d="M68.43,37.84a15.71,15.71,0,0,0,1.42,2.07,5.34,5.34,0,0,0,1.94-1.8A6.3,6.3,0,0,1,69,36.54,6.37,6.37,0,0,0,68.43,37.84Z"/><path class="cls-4" d="M71.84,38.13c0,4,2.72,4.24,3.25-.05A6.88,6.88,0,0,1,71.84,38.13Z"/><path class="cls-4" d="M78.28,36.72a11.58,11.58,0,0,1-3.12,1.34C77,42,79.69,41.13,78.28,36.72Z"/><path class="cls-4" d="M74,14.89a11.26,11.26,0,0,1,2.63-.12c-.43-5.07-3.31-3.5-3,.05l.08.12Z"/><path class="cls-4" d="M73.73,14.94l-.08-.12s0,.09,0,.13Z"/><path class="cls-4" d="M84.62,19.86a11.74,11.74,0,0,1,1.19,2.9C89.73,21.15,87.24,18.7,84.62,19.86Z"/><path class="cls-4" d="M86.11,26.27a8.53,8.53,0,0,1-.82,3C89.44,30.42,88.93,26.92,86.11,26.27Z"/><path class="cls-4" d="M86.12,26.21c4.36-.19,2.64-3.67-.29-3.38A10.47,10.47,0,0,1,86.12,26.21Z"/><path class="cls-4" d="M79.78,15.51h0a10,10,0,0,1,2.76,1.76c2.58-4.43-1.17-4.88-2.75-1.78v0Z"/><path class="cls-4" d="M79.78,15.52v0h0Z"/><path class="cls-4" d="M84.6,19.84c3.76-3.47.37-5.08-2.06-2.55A10.54,10.54,0,0,1,84.6,19.84Z"/><path class="cls-4" d="M83.42,32.1c4.5,2.72,5-.85,1.86-2.77-.1.19-.2.38-.31.56A20.19,20.19,0,0,1,83.42,32.1Z"/><path class="cls-4" d="M81.11,34.57c4.08,3.39,5.33-.16,2.29-2.44A21.92,21.92,0,0,1,81.11,34.57Z"/><path class="cls-4" d="M81.07,34.61a18.66,18.66,0,0,1-2.74,2.08C81.77,41,83.62,37.51,81.07,34.61Z"/><circle class="cls-5" cx="81.07" cy="43.74" r="0.5"/><path class="cls-5" d="M78.53,44.27a.67.67,0,1,0,.66.69A.67.67,0,0,0,78.53,44.27Z"/><circle class="cls-5" cx="100.02" cy="45.45" r="0.84"/><circle class="cls-5" cx="94.62" cy="42.8" r="0.5"/><path class="cls-5" d="M97.13,43.45a.67.67,0,0,0-.69.65.68.68,0,0,0,.66.69.67.67,0,0,0,0-1.34Z"/><path class="cls-5" d="M81.29,6.46a2.86,2.86,0,0,0,2.43-1l-.39-.32C82.64,5.58,82,6,81.29,6.46Z"/><path class="cls-5" d="M85.78,6.79a10.7,10.7,0,0,1-2-1.31C81.56,8.59,84.36,9.08,85.78,6.79Z"/><path class="cls-5" d="M88.11,7.62a11,11,0,0,1-2.3-.81C84.58,10.61,87.38,10.31,88.11,7.62Z"/><path class="cls-5" d="M88.17,7.64c-.36,3.92,2.52,3.07,2.56.27A11.62,11.62,0,0,1,88.17,7.64Z"/><path class="cls-5" d="M93.33,7.63a13.2,13.2,0,0,1-2.58.28C91.52,11.84,94.08,10.38,93.33,7.63Z"/><path class="cls-5" d="M95.84,6.9a15.56,15.56,0,0,1-2.51.73C94.61,11.23,96.85,9.43,95.84,6.9Z"/><path class="cls-5" d="M98.35,5.77A23,23,0,0,1,95.87,6.9C97.93,10.13,99.73,8.29,98.35,5.77Z"/><path class="cls-5" d="M98.38,5.76c2.45,2.94,4.41.76,2.34-1.42q-1.14.76-2.22,1.35Z"/><path class="cls-3" d="M80.19,52.68c-1.38,2.62-3.15,2.83-4.58,1.65h0c.35,3.44,4,6,11.19,6.17C83,59.18,81.18,56.88,80.19,52.68Z"/><path class="cls-6" d="M80.19,52.68c-1.38,2.62-3.15,2.83-4.58,1.65h0c.35,3.44,4,6,11.19,6.17C83,59.18,81.18,56.88,80.19,52.68Z"/><path class="cls-1" d="M82.11,3.9l0,0a31.21,31.21,0,0,0-17.3,11.26c-11.5,14.81-4.88,30.56,8.23,32,0,3.16,1.09,5.93,2.59,7.18a7.56,7.56,0,0,1,3.82-6.86c0-.4-.07-.82-.1-1.25a20,20,0,0,1-9.48-6.31c-1.22.57-1.95-.35-1.42-2.07q-.24-.39-.45-.81c-2.73,1.24-3.53-.77-1.13-2.93a1.24,1.24,0,0,0,0-.16c-3.64,1.12-4.2-1.47-.91-3.06a.24.24,0,0,0,0-.08c-4,.25-4-2.52-.34-3.19,0,0,0-.05,0-.07-4.14-.53-3.49-3.26.37-3.19h0c-4.07-1.78-2.79-4.2,1-3l0,0c-3.75-2.47-2-4.68,1.63-2.76h0c-2.66-3.25-.76-4.91,2-2.55l.1-.14c-1.22-3,.15-4,1.94-2.33a47.17,47.17,0,0,1,8.72-7C80.6,6.23,80.62,5.23,82.11,3.9ZM75.56,45.29a.84.84,0,1,1-.86.82A.85.85,0,0,1,75.56,45.29Z"/><path class="cls-7" d="M82.11,3.9l0,0a31.21,31.21,0,0,0-17.3,11.26c-11.5,14.81-4.88,30.56,8.23,32,0,3.16,1.09,5.93,2.59,7.18a7.56,7.56,0,0,1,3.82-6.86c0-.4-.07-.82-.1-1.25a20,20,0,0,1-9.48-6.31c-1.22.57-1.95-.35-1.42-2.07q-.24-.39-.45-.81c-2.73,1.24-3.53-.77-1.13-2.93a1.24,1.24,0,0,0,0-.16c-3.64,1.12-4.2-1.47-.91-3.06a.24.24,0,0,0,0-.08c-4,.25-4-2.52-.34-3.19,0,0,0-.05,0-.07-4.14-.53-3.49-3.26.37-3.19h0c-4.07-1.78-2.79-4.2,1-3l0,0c-3.75-2.47-2-4.68,1.63-2.76h0c-2.66-3.25-.76-4.91,2-2.55l.1-.14c-1.22-3,.15-4,1.94-2.33a47.17,47.17,0,0,1,8.72-7C80.6,6.23,80.62,5.23,82.11,3.9ZM75.56,45.29a.84.84,0,1,1-.86.82A.85.85,0,0,1,75.56,45.29Z"/><path class="cls-1" d="M75.61,54.33c1.43,1.18,3.2,1,4.58-1.65a36.59,36.59,0,0,1-.76-5.21A7.56,7.56,0,0,0,75.61,54.33Z"/><path class="cls-7" d="M75.61,54.33c1.43,1.18,3.2,1,4.58-1.65a36.59,36.59,0,0,1-.76-5.21A7.56,7.56,0,0,0,75.61,54.33Z"/><path class="cls-4" d="M70.63,15.82a26.61,26.61,0,0,1,1.94-2.33C70.78,11.79,69.41,12.85,70.63,15.82Z"/><path class="cls-8" d="M70.63,15.82a26.61,26.61,0,0,1,1.94-2.33C70.78,11.79,69.41,12.85,70.63,15.82Z"/><path class="cls-4" d="M70.53,16c-2.71-2.36-4.61-.7-2,2.55a13.22,13.22,0,0,1,1.07-1.25C69.93,16.82,70.22,16.39,70.53,16Z"/><path class="cls-8" d="M70.53,16c-2.71-2.36-4.61-.7-2,2.55a13.22,13.22,0,0,1,1.07-1.25C69.93,16.82,70.22,16.39,70.53,16Z"/><path class="cls-4" d="M67,21.28a14.14,14.14,0,0,1,1.63-2.76C65,16.6,63.2,18.81,67,21.28Z"/><path class="cls-8" d="M67,21.28a14.14,14.14,0,0,1,1.63-2.76C65,16.6,63.2,18.81,67,21.28Z"/><path class="cls-4" d="M65.92,24.34a15.85,15.85,0,0,1,1-3C63.13,20.14,61.85,22.56,65.92,24.34Z"/><path class="cls-8" d="M65.92,24.34a15.85,15.85,0,0,1,1-3C63.13,20.14,61.85,22.56,65.92,24.34Z"/><path class="cls-4" d="M65.54,27.54a15.45,15.45,0,0,1,.37-3.19C62.05,24.28,61.4,27,65.54,27.54Z"/><path class="cls-8" d="M65.54,27.54a15.45,15.45,0,0,1,.37-3.19C62.05,24.28,61.4,27,65.54,27.54Z"/><path class="cls-4" d="M65.88,30.8a13.85,13.85,0,0,1-.34-3.19C61.88,28.28,61.84,31.05,65.88,30.8Z"/><path class="cls-8" d="M65.88,30.8a13.85,13.85,0,0,1-.34-3.19C61.88,28.28,61.84,31.05,65.88,30.8Z"/><path class="cls-4" d="M65.9,30.88c-3.29,1.59-2.73,4.18.91,3.06-.09-.34-.17-.68-.24-1A13.66,13.66,0,0,1,65.9,30.88Z"/><path class="cls-8" d="M65.9,30.88c-3.29,1.59-2.73,4.18.91,3.06-.09-.34-.17-.68-.24-1A13.66,13.66,0,0,1,65.9,30.88Z"/><path class="cls-4" d="M68,37a16.67,16.67,0,0,1-1.13-2.93C64.45,36.26,65.25,38.27,68,37Z"/><path class="cls-8" d="M68,37a16.67,16.67,0,0,1-1.13-2.93C64.45,36.26,65.25,38.27,68,37Z"/><path class="cls-4" d="M69.85,39.91a15.71,15.71,0,0,1-1.42-2.07C67.9,39.56,68.63,40.48,69.85,39.91Z"/><path class="cls-8" d="M69.85,39.91a15.71,15.71,0,0,1-1.42-2.07C67.9,39.56,68.63,40.48,69.85,39.91Z"/><circle class="cls-5" cx="75.55" cy="46.13" r="0.84"/><circle class="cls-9" cx="75.55" cy="46.13" r="0.84"/><path class="cls-5" d="M82.11,3.9c-1.49,1.33-1.51,2.33-.82,2.56.67-.44,1.35-.88,2-1.31A14.32,14.32,0,0,1,82.11,3.9Z"/><path class="cls-9" d="M82.11,3.9c-1.49,1.33-1.51,2.33-.82,2.56.67-.44,1.35-.88,2-1.31A14.32,14.32,0,0,1,82.11,3.9Z"/><g id="Right_Eye" data-name="Right Eye"><g id="Red"><path class="cls-4" d="M101.91,15.45c-.38-3.59-4-4.59-3.14.59Z"/><path class="cls-4" d="M107.42,17.57c2.48-4.25,0-5.57-2.62-1.85Z"/><path class="cls-4" d="M109.7,19.59c3.1-3.35.94-5.18-2.15-2.38Z"/><path class="cls-4" d="M111.3,22.33c3.88-2.3,2.2-4.6-1.54-2.82Z"/><path class="cls-4" d="M112.16,25.44c4.27-1.61,3-4.17-1.07-3Z"/><path class="cls-4" d="M112.35,28.65c4.25-.31,3.72-3.11-.19-3.21Z"/><path class="cls-4" d="M111.84,31.87c4.13.49,4.22-2.34.52-3.17Z"/><path class="cls-4" d="M110.53,34.86c3.88,1.57,4.68-1.15,1.29-2.94Z"/><path class="cls-4" d="M108.54,37.42c3.52,2.47,4.9.1,2-2.52Z"/><path class="cls-4" d="M105.65,38.87c2.42,3.72,4.69,2.15,2.86-1.44Z"/><path class="cls-4" d="M102.37,38.58c.27,4.47,3.07,4.35,3.26.31Z"/><path class="cls-4" d="M99.31,37.07c-1.74,4.48,1,5.48,3,1.6Z"/><path class="cls-4" d="M104.87,15.85c.66-3.8-2.4-5.73-3-.2Z"/><path class="cls-4" d="M94,20.21c-2.72-1.51-5.5.91-1.39,2.81Z"/><path class="cls-4" d="M92.05,26.39c-3,.43-3.6,3.89.7,2.92Z"/><path class="cls-4" d="M92.55,23c-3.07-.5-5,2.95-.5,3.35Z"/><path class="cls-4" d="M98.81,16.07c-1.46-3.3-5.28-3-2.84,1.62Z"/><path class="cls-4" d="M96,17.72c-2.39-2.77-5.88-1.31-2.16,2.47Z"/><path class="cls-4" d="M92.8,29.4c-3.5,1.76-3.16,5.6,1.7,2.87Z"/><path class="cls-4" d="M94.46,32.31c-3.28,2.21-2.15,5.9,2.27,2.47Z"/><path class="cls-4" d="M96.66,34.88c-2.8,2.86-1.09,6.45,2.65,2.2Z"/></g><path class="cls-10" d="M85.81,22.76a11.74,11.74,0,0,0-1.19-2.9l0,0a10.54,10.54,0,0,0-2.06-2.55h0a10,10,0,0,0-2.76-1.76h0a10.09,10.09,0,0,0-3.06-.74h0a11.26,11.26,0,0,0-2.63.12l-.31,0h-.07a7.08,7.08,0,0,0-2.83,1.29h0a12.07,12.07,0,0,0-1.17,1,13.22,13.22,0,0,0-1.07,1.25h0A14.14,14.14,0,0,0,67,21.28l0,0a15.85,15.85,0,0,0-1,3h0a15.45,15.45,0,0,0-.37,3.19s0,.05,0,.07a13.85,13.85,0,0,0,.34,3.19.24.24,0,0,1,0,.08,13.66,13.66,0,0,0,.67,2c.14.33.29.65.46,1l0,.06a8.31,8.31,0,0,0,.44.76A9.85,9.85,0,0,0,69,36.5s0,0,0,0a6.3,6.3,0,0,0,2.79,1.57l0,0a6.88,6.88,0,0,0,3.25-.05l.07,0a11.58,11.58,0,0,0,3.12-1.34l0,0a18.66,18.66,0,0,0,2.74-2.08l0,0a21.92,21.92,0,0,0,2.29-2.44l0,0A20.19,20.19,0,0,0,85,29.89c.11-.18.21-.37.31-.56v0a8.53,8.53,0,0,0,.82-3s0,0,0-.06a10.47,10.47,0,0,0-.29-3.38A.64.64,0,0,1,85.81,22.76ZM75.58,36.06a6.19,6.19,0,0,1-2.07.28,5,5,0,0,1-2-.49,5.88,5.88,0,0,1-1.38-1,8.12,8.12,0,0,1-.86-1c-.13-.19-.27-.38-.4-.59a9.62,9.62,0,0,1-.68-1.26,9.92,9.92,0,0,1-.67-2c-.05-.22-.1-.45-.13-.67a10.47,10.47,0,0,1-.15-1.36c0-.22,0-.45,0-.68,0-.45,0-.9.09-1.34a13.64,13.64,0,0,1,.8-3.2l.25-.6a12.9,12.9,0,0,1,1.23-2.16A9.27,9.27,0,0,1,72,17.71q.23-.15.45-.27a5.22,5.22,0,0,1,1.86-.61,9.24,9.24,0,0,1,1.45-.12c.24,0,.47,0,.69,0a8.3,8.3,0,0,1,3.08.82,8.05,8.05,0,0,1,1.52,1,8.34,8.34,0,0,1,.87.81A9.1,9.1,0,0,1,83,20.74c.1.17.2.34.29.51a9.33,9.33,0,0,1,1.06,3.29,8.32,8.32,0,0,1,0,2.23,7.16,7.16,0,0,1-.42,1.59,5.93,5.93,0,0,1-.48,1,14.67,14.67,0,0,1-1,1.41l-.36.46A18,18,0,0,1,80,33.41l-.46.4A11.56,11.56,0,0,1,75.58,36.06Z"/><path class="cls-10" d="M93.33,7.63a15.56,15.56,0,0,0,2.51-.73h0a22.18,22.18,0,0,0,2.48-1.13l.15-.08q1.08-.59,2.22-1.35l0,0h0A32.07,32.07,0,0,0,86.65,3a36.59,36.59,0,0,0-4.56.83l0,0a14.32,14.32,0,0,0,1.22,1.25l.39.32h0a10.7,10.7,0,0,0,2,1.31l0,0a11,11,0,0,0,2.3.81l.06,0a11.62,11.62,0,0,0,2.56.27h0a13.2,13.2,0,0,0,2.58-.28Z"/><path class="cls-10" d="M104.66,15.61c-9.5-2-15,8.32-11.63,14.48s11.84,13.29,17.23,5.61S110.71,16.62,104.66,15.61Zm4.27,18.67c-4.49,6.4-11.58.45-14.35-4.68s1.77-13.7,9.68-12.07C109.31,18.38,113.42,27.87,108.93,34.28Z"/></g><path class="cls-1" d="M124.9,9c9.13,3.57,22.93,4.4,29.75,11,10.56,10.28-.73,21.2,7.79,28.82,2.72,2.65,7.78,3.6,8.73-.79s1.36,1.33,1.36,1.33c-1.61,5.06-10.32,7.87-13.1,1.18-3.47-8-1-21.51-8.44-27.46s-20.94-6.45-23.67-9.1S121.52,7.67,124.9,9Z"/><path class="cls-1" d="M125.3,14c7.81,5.61,15.19,3.49,22.35,11.13,8.86,8.63-1.4,20.54,7.46,29.16,3.07,3,4.42,3.64,5.08,2.29s2.34-1,.36,1.67S151.44,56.71,150,50s.77-17.17-6.38-24.13-12.5-3.53-18.3-9.84C123.28,14,123.27,12.69,125.3,14Z"/><path class="cls-1" d="M124.33,17.05c5.8,5.64,10.82,3.89,16.27,9.2,4.44,4.31,6.57,13,4,18.44-1.63,3.72-1.35-.65-.7-2.68A13.44,13.44,0,0,0,140,28.94c-5.11-5-11.83-4.21-14.91-7.87S123,15.72,124.33,17.05Z"/><path class="cls-1" d="M122,19.43c1,3,5.79,5,8.83,5.94s11.17,5.57,8.28,15.36-10.68,6.2-10.09.14c0-2.69,1.7,1,1.7,1,2.05,2.66,4.42,3.64,6.71-.76s-3.16-9.71-7.89-11.67-8.47-4.26-8.53-9S122,19.43,122,19.43Z"/><path class="cls-11" d="M111.35.65c-2.75-1.57-4.32,0-5.5,1.57a7.94,7.94,0,0,1,2,.39C108.6,1.83,110.17.65,111.35.65Z"/><path class="cls-11" d="M114.49,14a4.28,4.28,0,0,1-1.57.79c-3.93,1.18-5.11,0-6.28-1.57a3.24,3.24,0,0,1-2.75-.39c-1.18,4.31,2.75,5.88,3.53,5.49s2,0,2.36,0c0,0,2,0,2.74-.78a.62.62,0,0,1,.22-.15h0S114.49,15.56,114.49,14Z"/><path class="cls-11" d="M119.59,5c-.4-1.57-2.75-2.36-3.93-2.36a4.66,4.66,0,0,1,.39,5.1,3.91,3.91,0,0,1-.39,1.18c.79.79,2,1.57.79,3.93,2-.79,2,0,3.92-2.36.12-.14.23-.29.33-.43C121.74,8.32,120.67,5.33,119.59,5Z"/><path class="cls-12" d="M112.74,17.38c.77-.38,1.85.86,2.92.15a4.91,4.91,0,0,1,2.36-.4c.78,0,2-3.53,2.35-6.67-2,2.36-2,1.57-3.92,2.36,0,0-1.57.39-2,1.17,0,1.57-1.75,3.38-1.75,3.38Z"/><path class="cls-12" d="M106.24,10.46c-.39-2-.39-1.18-1.17-2A2.39,2.39,0,0,1,106.24,5a11.64,11.64,0,0,1,1.57-2.36,7.94,7.94,0,0,0-2-.39c-1.18,0-2.75,1.57-3.92,2-2.36,1.18-.79,3.53-1.18,4.32s-.39,3.14,3.14,4.32a3.24,3.24,0,0,0,2.75.39C105.85,12,106.64,12.42,106.24,10.46Z"/><path class="cls-13" d="M106.64,13.21c1.17,1.57,2.35,2.75,6.28,1.57a4.28,4.28,0,0,0,1.57-.79c.39-.78,2-1.17,2-1.17,1.17-2.36,0-3.14-.79-3.93a5.86,5.86,0,0,1-2.35,2.36c-.79,1.17-5.68,1.77-7-.1h0C106.45,12.34,106,12.2,106.64,13.21Z"/><path class="cls-13" d="M115.66,2.61c-.78-1.57-2.35-2-4.31-2-1.18,0-2.75,1.18-3.54,2A11.64,11.64,0,0,0,106.24,5a4.53,4.53,0,0,1,6.68,0c2.74-.79,3.13,1.57,3.13,2.74A4.66,4.66,0,0,0,115.66,2.61Z"/><path class="cls-11" d="M105.07,8.5c.78.78.78,0,1.17,2a4.39,4.39,0,0,1,.1.69h0c1.28,1.87,6.17,1.27,7,.1-6.67,2-7.85-5.5-7.07-6.28A2.39,2.39,0,0,0,105.07,8.5Z"/><path class="cls-12" d="M113.31,11.25a5.86,5.86,0,0,0,2.35-2.36,3.91,3.91,0,0,0,.39-1.18c0-1.17-.39-3.53-3.13-2.74,1.17,1.17,2.35,5.71-2.14,6.58A7,7,0,0,0,113.31,11.25Z"/><path class="cls-13" d="M113.67,6.27c0,1.45-2.72,4.19-5.46,4.19h-.12a4.53,4.53,0,0,0,2.69,1.09C114.21,10.88,114.33,8.08,113.67,6.27Z"/><path class="cls-12" d="M112.18,4.35a4.48,4.48,0,0,0-5.94.62c-.41.41-.27,2.69.93,4.45C106.53,5.26,110.17,4.58,112.18,4.35Z"/><path class="cls-11" d="M109.24,5.09a3.69,3.69,0,0,0-2.07,4.33,5,5,0,0,0,.92,1h.12a6,6,0,0,0,3.59-1.41C107.56,10,108.21,6.54,109.24,5.09Z"/><path class="cls-11" d="M113.67,6.27a3.65,3.65,0,0,0-.75-1.3,5.93,5.93,0,0,0-.74-.62,9.2,9.2,0,0,0-2.94.74,3.81,3.81,0,0,0-.67,3c-.36-3.47,6-2.63,3.61.68A4,4,0,0,0,113.67,6.27Z"/><path class="cls-12" d="M112.27,6.35c-.26,1.77-2.48,1-3.49,2.14.43.61,1.34.93,3,.56l.38-.32C113,7.65,112.81,6.84,112.27,6.35Z"/><path class="cls-13" d="M112.27,6.35c-1.12-1-3.94-.64-3.7,1.7a1.63,1.63,0,0,0,.21.44C109.79,7.33,112,8.12,112.27,6.35Z"/></g></g></g></svg>