<svg xmlns="http://www.w3.org/2000/svg" viewBox="0 0 135.53 130.03"><defs><style>.cls-1{fill:none;}.cls-2{fill:#ddc19a;}.cls-3{fill:#fff6df;}.cls-4{fill:#b21a40;}.cls-5{fill:#f69220;}.cls-6{fill:#2fa493;}.cls-7{opacity:0.2;}</style></defs><title>Skull 2</title><g id="Layer_2" data-name="Layer 2"><g id="Page_4" data-name="Page 4"><g id="Items"><g id="Skull_2" data-name="Skull 2"><path class="cls-1" d="M67.35,77.46c-4.33-.1-8.93,11.34-7.56,14.26s4.23,4.44,7.32-4.15c4.12,8.76,5.64,5.9,7.11,4.5S73.12,77.6,67.35,77.46Z"/><path class="cls-1" d="M102.22,33.22c-17.83-3.68-28,15.62-21.81,27.17s22.21,25,32.32,10.53S113.57,35.11,102.22,33.22Z"/><path class="cls-1" d="M38.1,31.35a22.11,22.11,0,0,0-3.27.28A11.79,11.79,0,0,0,30.64,33c-.34.19-.68.39-1,.6a20.42,20.42,0,0,0-5.42,5.33,27.74,27.74,0,0,0-2.77,4.87c-.2.44-.39.89-.56,1.34a29.78,29.78,0,0,0-1.81,7.21,27.67,27.67,0,0,0-.2,3c0,.51,0,1,0,1.53A28.86,28.86,0,0,0,19.21,60c.09.5.19,1,.3,1.51A23.77,23.77,0,0,0,21,65.94a23.2,23.2,0,0,0,1.54,2.85q.44.7.9,1.32a18,18,0,0,0,1.92,2.17,12.65,12.65,0,0,0,3.12,2.17A11.12,11.12,0,0,0,33,75.56a14.16,14.16,0,0,0,4.65-.62,26.16,26.16,0,0,0,9-5.08l1-.89a41.34,41.34,0,0,0,4.7-5c.28-.35.56-.7.82-1a37,37,0,0,0,2.15-3.17,14.51,14.51,0,0,0,1.09-2.2A16.28,16.28,0,0,0,57.37,54a18.88,18.88,0,0,0,0-5A21.3,21.3,0,0,0,55,41.58c-.21-.39-.43-.77-.67-1.15A20.38,20.38,0,0,0,52,37.28a20,20,0,0,0-2-1.83,18.66,18.66,0,0,0-3.42-2.2,18.45,18.45,0,0,0-6.92-1.85C39.15,31.37,38.63,31.35,38.1,31.35Z"/><path class="cls-2" d="M82.47,105c-3,14-13,18.09-16.92,1.13-.3,18.3-12.95,16.68-15.51,1.15a29,29,0,0,1-2,5.1C50.22,121.82,54.42,127,62.88,130l.87,0c16.89.28,26.36-6,26.72-12.61h0C87.28,118.71,83.83,114.05,82.47,105Z"/><path class="cls-3" d="M33,75.56a11.12,11.12,0,0,1-4.47-1.11A11.12,11.12,0,0,0,33,75.56Z"/><path class="cls-3" d="M47,28.65l0,0h0Z"/><path class="cls-3" d="M22.72,75.93a18.31,18.31,0,0,1-2.2,1.2c.31.62.65,1.23,1,1.82A15.54,15.54,0,0,1,22.8,76Z"/><path class="cls-3" d="M21,65.94a23.77,23.77,0,0,1-1.51-4.47A23.77,23.77,0,0,0,21,65.94Z"/><path class="cls-3" d="M19.07,52.35a29.78,29.78,0,0,1,1.81-7.21A29.78,29.78,0,0,0,19.07,52.35Z"/><path class="cls-3" d="M18.87,55.37a27.67,27.67,0,0,1,.2-3A27.67,27.67,0,0,0,18.87,55.37Z"/><path class="cls-3" d="M23.46,70.11a18,18,0,0,0,1.92,2.17A18,18,0,0,1,23.46,70.11Z"/><path class="cls-3" d="M21.44,43.8a27.74,27.74,0,0,1,2.77-4.87A27.74,27.74,0,0,0,21.44,43.8Z"/><path class="cls-3" d="M29.63,33.6a20.42,20.42,0,0,0-5.42,5.33A20.42,20.42,0,0,1,29.63,33.6Z"/><path class="cls-3" d="M19.21,60a28.86,28.86,0,0,1-.32-3.06A28.86,28.86,0,0,0,19.21,60Z"/><path class="cls-3" d="M38.1,31.35a22.11,22.11,0,0,0-3.27.28A11.79,11.79,0,0,0,30.64,33a11.79,11.79,0,0,1,4.19-1.37A22.11,22.11,0,0,1,38.1,31.35Z"/><path class="cls-3" d="M134.1,48.09c-8-29.7-24.71-38.43-38.7-44.29-.31-.14-.66-.27-1-.4l0,0-.11.06c4.66,4.91.26,9.82-5.27,3.2l.26-.17-.34.19C92,12.39,88,16.53,83.31,9.26l0,0C85.51,15,80.48,19,77.6,10.92h0c1.68,6.18-4.08,9.47-5.8.62h-.06c-.08,6.31-6.58,8.21-5.77-.62l-.14,0c-1.64,6-7.94,6.72-5.16-1.84l-.08,0c-3.2,5.15-9.51,4-4.61-2.95l0,0c-2.23,2-4.3,2.61-5.47,2.22-7.51,4.94-14.21,10-19.64,15.84a17.38,17.38,0,0,1,2.43,3c-.64-8,5.84-11.53,6.82-.12h0c1.19-7.84,9.48-9.69,7,1.64,3.57-7,12-6,6.19,4h0c5.46-5.68,13.1-2.06,4.64,5.75l0,.06c5.91-2.62,11.51,2.9,2.68,6.53a.83.83,0,0,1,0,.15c6.6-.66,10.47,7.17.65,7.6,0,0,0,.1,0,.15,6.35,1.46,7.5,9.33-1.84,6.82a.16.16,0,0,0,0,.07c7.15,4.33,5.95,12.36-4.18,6.24l-.05.07c6.84,5.12,4,13.11-5.15,5.49l-.08.08c5.72,6.55,1.56,14.32-6.19,4.68l-.11.07c3.19,9.94-2.94,11.8-7,3l-.17,0c-1.17,9.66-7.28,9-7.32.11l-.1,0a12.38,12.38,0,0,1-4.37,4.06,45.26,45.26,0,0,0,21.34,14.2c.07,1,.14,1.9.22,2.82C61.37,91.37,91,97.83,90.47,117.41c2.76-1.13,5.33-6.73,6.17-17.83C115,95.66,142.06,77.8,134.1,48.09ZM44.2,96.45A1.52,1.52,0,1,1,45.75,95,1.51,1.51,0,0,1,44.2,96.45ZM50,93.37a1.14,1.14,0,0,1,0-2.27,1.14,1.14,0,1,1,0,2.27Zm24.27-1.3c-1.47,1.4-3,4.26-7.11-4.5-3.09,8.59-5.94,7.07-7.32,4.15S63,77.36,67.35,77.46C73.12,77.6,75.7,90.66,74.22,92.07Zm6.26-.82a1.14,1.14,0,0,1-1.11-1.16,1.14,1.14,0,1,1,1.11,1.16Zm5.6,3.35a1.52,1.52,0,1,1,1.55-1.48A1.52,1.52,0,0,1,86.08,94.6ZM92.62,98a1.89,1.89,0,1,1,1.94-1.85A1.88,1.88,0,0,1,92.62,98Zm20.11-27c-10.11,14.42-26.08,1-32.32-10.53s4-30.85,21.81-27.17C113.57,35.11,122.84,56.5,112.73,70.92Z"/><path class="cls-3" d="M26.48,29.36l-.24.32c.21.18.43.38.64.58C26.74,30,26.6,29.65,26.48,29.36Z"/><path class="cls-3" d="M18.37,70l-.49.16.09.36.46-.39A.75.75,0,0,1,18.37,70Z"/><path class="cls-3" d="M46.28,100.64A85.61,85.61,0,0,0,48,112.36a29,29,0,0,0,2-5.1c2.56,15.53,15.21,17.15,15.51-1.15,3.94,17,13.87,12.9,16.92-1.13,1.36,9.07,4.81,13.73,8,12.43C91,97.83,61.37,91.37,46.28,100.64Z"/><path class="cls-4" d="M47.08,28.67l0,0c2.48-11.33-5.81-9.48-7-1.64h0A22.09,22.09,0,0,1,47,28.65Z"/><path class="cls-4" d="M26.88,30.26l.05,0A15.72,15.72,0,0,1,33.3,27.4l0-.29a17.38,17.38,0,0,0-2.43-3,60.06,60.06,0,0,0-4.36,5.25C26.6,29.65,26.74,30,26.88,30.26Z"/><path class="cls-4" d="M26.91,30.32l0-.06c-.21-.2-.43-.4-.64-.58-.68.95-1.34,1.93-2,2.93A22.34,22.34,0,0,1,26.91,30.32Z"/><path class="cls-4" d="M26.93,30.31l-.05,0,0,.06Z"/><path class="cls-4" d="M17.33,67.82c.16.8.34,1.59.55,2.35l.49-.16C18,69.29,17.64,68.56,17.33,67.82Z"/><path class="cls-4" d="M19.43,71.85c-.36-.56-.69-1.14-1-1.71l-.46.39a35.76,35.76,0,0,0,2.55,6.6,18.31,18.31,0,0,0,2.2-1.2A21.45,21.45,0,0,1,19.43,71.85Z"/><path class="cls-4" d="M21.51,79a36.64,36.64,0,0,0,3.21,4.67,12.38,12.38,0,0,0,4.37-4.06A14.16,14.16,0,0,1,22.8,76,15.54,15.54,0,0,0,21.51,79Z"/><path class="cls-4" d="M29.19,79.59c0,8.93,6.15,9.55,7.32-.11A15.38,15.38,0,0,1,29.19,79.59Z"/><path class="cls-4" d="M43.7,76.41a25.87,25.87,0,0,1-7,3C40.76,88.21,46.89,86.35,43.7,76.41Z"/><path class="cls-4" d="M34.16,27.25A25.53,25.53,0,0,1,40.09,27c-1-11.41-7.46-7.89-6.82.12l.18.26C33.68,27.33,33.92,27.28,34.16,27.25Z"/><path class="cls-4" d="M33.45,27.37l-.18-.26,0,.29Z"/><path class="cls-4" d="M58,38.46A25.33,25.33,0,0,1,60.66,45C69.49,41.36,63.89,35.84,58,38.46Z"/><path class="cls-4" d="M61.34,52.89a19.46,19.46,0,0,1-1.84,6.82C68.84,62.22,67.69,54.35,61.34,52.89Z"/><path class="cls-4" d="M61.35,52.74c9.82-.43,5.95-8.26-.65-7.6A23.37,23.37,0,0,1,61.35,52.74Z"/><path class="cls-4" d="M47.08,28.67h0a22.28,22.28,0,0,1,6.21,4c5.82-10-2.62-11-6.19-4v0Z"/><path class="cls-4" d="M47.09,28.67v0l0,0Z"/><path class="cls-4" d="M57.94,38.4c8.46-7.81.82-11.43-4.64-5.75A24.42,24.42,0,0,1,57.94,38.4Z"/><path class="cls-4" d="M55.28,66c10.13,6.12,11.33-1.91,4.18-6.24-.21.43-.44.86-.69,1.27A47.41,47.41,0,0,1,55.28,66Z"/><path class="cls-4" d="M50.08,71.58c9.18,7.62,12-.37,5.15-5.49A50.16,50.16,0,0,1,50.08,71.58Z"/><path class="cls-4" d="M50,71.66a40.76,40.76,0,0,1-6.19,4.68C51.56,86,55.72,78.21,50,71.66Z"/><path class="cls-5" d="M46.58,33.25A18.66,18.66,0,0,1,50,35.45,18.66,18.66,0,0,0,46.58,33.25Z"/><path class="cls-5" d="M55.34,59.8A37,37,0,0,1,53.19,63,37,37,0,0,0,55.34,59.8Z"/><path class="cls-5" d="M37.62,74.94a14.16,14.16,0,0,1-4.65.62A14.16,14.16,0,0,0,37.62,74.94Z"/><path class="cls-5" d="M57.37,54a16.28,16.28,0,0,1-.94,3.58A16.28,16.28,0,0,0,57.37,54Z"/><path class="cls-5" d="M46.63,69.86a26.16,26.16,0,0,1-9,5.08A26.16,26.16,0,0,0,46.63,69.86Z"/><path class="cls-5" d="M50,35.45a20,20,0,0,1,2,1.83A20,20,0,0,0,50,35.45Z"/><path class="cls-5" d="M55,41.58A21.3,21.3,0,0,1,57.41,49,21.3,21.3,0,0,0,55,41.58Z"/><path class="cls-5" d="M52,37.28a20.38,20.38,0,0,1,2.41,3.15A20.38,20.38,0,0,0,52,37.28Z"/><path class="cls-5" d="M46.58,33.25a18.45,18.45,0,0,0-6.92-1.85A18.45,18.45,0,0,1,46.58,33.25Z"/><path class="cls-5" d="M47.67,69a41.34,41.34,0,0,0,4.7-5A41.34,41.34,0,0,1,47.67,69Z"/><path class="cls-5" d="M33.34,27.76c0-.05,0-.11,0-.16l-5.9,3.76c-.13-.24-.24-.48-.36-.71L23,34.7a51.32,51.32,0,0,0-6.27,20.78A43.6,43.6,0,0,0,17,65.7l1.63,4.24-.23.07a.75.75,0,0,0,.06.13l.12-.11,4.24,5.86-.07,0,.08.08.05-.09,6.3,3.55-.06.09.1,0v-.07l7.36-.35c0,.1,0,.2,0,.31l.17,0,0-.08,7-3.28a3.18,3.18,0,0,0,.1.33l.11-.07-.08-.09,6.2-4.67a.27.27,0,0,0,.07.08l.08-.08-.27-.21,5.37-5.32,0,0,.05-.07-.35-.21,4.13-6.27.4.24a.16.16,0,0,1,0-.07l-.1,0,1.66-6.85.28.06s0-.1,0-.15h0l-.77-7.59h.15a.83.83,0,0,0,0-.15l-.17.08L57.67,38.6l.31-.14,0-.06-.07.06-4.6-5.78L47,28.73l0-.06,0,0L40.14,27h0c0,.21,0,.42,0,.64ZM50,35.45a20,20,0,0,1,2,1.83,20.38,20.38,0,0,1,2.41,3.15c.24.38.46.76.67,1.15A21.3,21.3,0,0,1,57.41,49a18.88,18.88,0,0,1,0,5,16.28,16.28,0,0,1-.94,3.58,14.51,14.51,0,0,1-1.09,2.2A37,37,0,0,1,53.19,63c-.26.35-.54.7-.82,1a41.34,41.34,0,0,1-4.7,5l-1,.89a26.16,26.16,0,0,1-9,5.08,14.16,14.16,0,0,1-4.65.62,11.12,11.12,0,0,1-4.47-1.11,12.65,12.65,0,0,1-3.12-2.17,18,18,0,0,1-1.92-2.17q-.47-.61-.9-1.32A23.2,23.2,0,0,1,21,65.94a23.77,23.77,0,0,1-1.51-4.47c-.11-.5-.21-1-.3-1.51a28.86,28.86,0,0,1-.32-3.06c0-.51,0-1,0-1.53a27.67,27.67,0,0,1,.2-3,29.78,29.78,0,0,1,1.81-7.21c.17-.45.36-.9.56-1.34a27.74,27.74,0,0,1,2.77-4.87,20.42,20.42,0,0,1,5.42-5.33c.33-.21.67-.41,1-.6a11.79,11.79,0,0,1,4.19-1.37,22.11,22.11,0,0,1,3.27-.28c.53,0,1,0,1.56,0a18.45,18.45,0,0,1,6.92,1.85A18.66,18.66,0,0,1,50,35.45Z"/><path class="cls-5" d="M53.3,32.65h0l0,0Z"/><path class="cls-5" d="M40.14,27,47,28.65A22.09,22.09,0,0,0,40.14,27Z"/><path class="cls-5" d="M27.06,30.65c.12.23.23.47.36.71l5.9-3.76a1.36,1.36,0,0,0,0-.2,15.72,15.72,0,0,0-6.37,2.91l.24.23Z"/><path class="cls-5" d="M24.28,32.61c-.43.68-.84,1.38-1.24,2.09l4-4.05-.15-.33A22.34,22.34,0,0,0,24.28,32.61Z"/><path class="cls-5" d="M27.06,30.65l.11-.11-.24-.23h0Z"/><path class="cls-5" d="M18.37,70l.23-.07L17,65.7c.1.72.22,1.43.36,2.12C17.64,68.56,18,69.29,18.37,70Z"/><path class="cls-5" d="M22.72,75.93l.07,0L18.55,70l-.12.11c.31.57.64,1.15,1,1.71A21.45,21.45,0,0,0,22.72,75.93Z"/><path class="cls-5" d="M22.85,75.92,22.8,76a14.16,14.16,0,0,0,6.29,3.55l.06-.09Z"/><path class="cls-5" d="M29.19,79.52v.07a15.38,15.38,0,0,0,7.32-.11c0-.11,0-.21,0-.31Z"/><path class="cls-5" d="M36.65,79.36l0,.08a25.87,25.87,0,0,0,7-3,3.18,3.18,0,0,1-.1-.33Z"/><path class="cls-5" d="M34.16,27.25c-.24,0-.48.08-.71.12l.07.11-.2.12s0,.11,0,.16l6.8-.13c0-.22,0-.43,0-.64A25.53,25.53,0,0,0,34.16,27.25Z"/><path class="cls-5" d="M33.52,27.48l-.07-.11-.15,0a1.36,1.36,0,0,1,0,.2Z"/><path class="cls-5" d="M60.49,45.07l.17-.08A25.33,25.33,0,0,0,58,38.46l-.31.14Z"/><path class="cls-5" d="M59.4,59.68l.1,0a19.46,19.46,0,0,0,1.84-6.82l-.28-.06Z"/><path class="cls-5" d="M61.32,52.74h0a23.37,23.37,0,0,0-.65-7.6h-.15Z"/><path class="cls-5" d="M47,28.73l6.23,3.95,0,0a22.28,22.28,0,0,0-6.21-4Z"/><path class="cls-5" d="M57.87,38.46l.07-.06a24.42,24.42,0,0,0-4.64-5.75l0,0Z"/><path class="cls-5" d="M54.93,65.81l.35.21a47.41,47.41,0,0,0,3.49-5c.25-.41.48-.84.69-1.27l-.4-.24Z"/><path class="cls-5" d="M49.81,71.37l.27.21a50.16,50.16,0,0,0,5.15-5.49l0,0Z"/><path class="cls-5" d="M43.73,76.25l.08.09A40.76,40.76,0,0,0,50,71.66a.27.27,0,0,1-.07-.08Z"/><circle class="cls-6" cx="49.98" cy="92.23" r="1.14"/><path class="cls-6" d="M44.27,93.42A1.52,1.52,0,1,0,45.75,95,1.51,1.51,0,0,0,44.27,93.42Z"/><circle class="cls-6" cx="92.67" cy="96.08" r="1.89"/><circle class="cls-6" cx="80.5" cy="90.11" r="1.14"/><path class="cls-6" d="M86.15,91.57a1.52,1.52,0,1,0,1.48,1.55A1.51,1.51,0,0,0,86.15,91.57Z"/><path class="cls-6" d="M50.48,8.27c1.17.39,3.24-.22,5.47-2.22-.3-.24-.59-.49-.87-.74C53.52,6.3,52,7.28,50.48,8.27Z"/><path class="cls-6" d="M60.59,9A24.35,24.35,0,0,1,56,6.07C51.08,13.06,57.39,14.17,60.59,9Z"/><path class="cls-6" d="M65.83,10.9a24.61,24.61,0,0,1-5.16-1.84C57.89,17.62,64.19,16.94,65.83,10.9Z"/><path class="cls-6" d="M66,10.92c-.81,8.83,5.69,6.93,5.77.62A25.39,25.39,0,0,1,66,10.92Z"/><path class="cls-6" d="M77.6,10.92a30.17,30.17,0,0,1-5.8.62C73.52,20.39,79.28,17.1,77.6,10.92Z"/><path class="cls-6" d="M83.26,9.28a37.75,37.75,0,0,1-5.66,1.64C80.48,19,85.51,15,83.26,9.28Z"/><path class="cls-6" d="M88.89,6.72a48.24,48.24,0,0,1-5.58,2.54C88,16.53,92,12.39,88.89,6.72Z"/><path class="cls-6" d="M89,6.7c5.53,6.62,9.93,1.71,5.27-3.2-1.71,1.15-3.38,2.15-5,3Z"/><path class="cls-5" d="M77.6,10.92h0v0Z"/><path class="cls-5" d="M56,6.05l0,0L56.06,6Z"/><path class="cls-5" d="M83.26,9.28l0,0c0-.07-.1-.14-.14-.21Z"/><path class="cls-5" d="M55.49,5.06l.82.67-.14.12L60.61,9l0,0,.08,0a.14.14,0,0,1,0-.07l5.2,1.7c0,.07,0,.13-.06.21l.14,0v-.1l5.78.65a.17.17,0,0,1,0,.07h.06s0,0,0-.06l5.76-.8s0,.07,0,.1L83.15,9V9l5.09-3.35c.24.35.45.7.64,1l.34-.19,4.85-3.2.16.17.11-.06,0,0C87.73.89,75.88-1,62.55.58V.71Q58.94,2.9,55.49,5.06Z"/><path class="cls-5" d="M56.14,5.83l0,0,.14-.12-.82-.67-.41.25c.28.25.57.5.87.74l.11-.1Z"/><path class="cls-5" d="M56.17,5.85l-.11.1L56,6.07A24.35,24.35,0,0,0,60.59,9l0,0Z"/><path class="cls-5" d="M56.06,6l.11-.1,0,0Z"/><path class="cls-5" d="M60.69,9a.14.14,0,0,0,0,.07,24.61,24.61,0,0,0,5.16,1.84c0-.08,0-.14.06-.21Z"/><path class="cls-5" d="M66,10.82v.1a25.39,25.39,0,0,0,5.77.62.17.17,0,0,0,0-.07Z"/><path class="cls-5" d="M77.56,10.79h0s0-.06,0-.1l-5.76.8s0,0,0,.06a30.17,30.17,0,0,0,5.8-.62v-.06Z"/><path class="cls-5" d="M83.16,9h0V9l-5.59,1.78,0,.08v.06a37.75,37.75,0,0,0,5.66-1.64l-.09-.23Z"/><path class="cls-5" d="M77.59,10.86l0-.08h0Z"/><path class="cls-5" d="M83.16,9v0c0,.07.09.14.14.21a48.24,48.24,0,0,0,5.58-2.54c-.19-.34-.4-.69-.64-1Z"/><path class="cls-5" d="M83.17,9.05V9h0Z"/><path class="cls-5" d="M89.23,6.53c1.63-.88,3.3-1.88,5-3l-.16-.17Z"/><path class="cls-2" d="M48,112.36c-3.11,5.9-7.08,6.39-10.32,3.71h0c.8,7.76,8.9,13.45,25.2,13.91C54.42,127,50.22,121.82,48,112.36Z"/><path class="cls-7" d="M48,112.36c-3.11,5.9-7.08,6.39-10.32,3.71h0c.8,7.76,8.9,13.45,25.2,13.91C54.42,127,50.22,121.82,48,112.36Z"/><path class="cls-3" d="M52.34,2.5l-.05,0a70.21,70.21,0,0,0-39,25.34c-25.9,33.37-11,68.82,18.52,72.13-.11,7.1,2.45,13.35,5.83,16.15a17.06,17.06,0,0,1,8.6-15.43c-.08-.92-.15-1.85-.22-2.82a45.26,45.26,0,0,1-21.34-14.2c-2.76,1.27-4.39-.8-3.21-4.67-.34-.59-.68-1.2-1-1.82-6.16,2.77-8-1.75-2.55-6.6l-.09-.36c-8.2,2.51-9.46-3.32-2-6.9a1.05,1.05,0,0,1-.05-.19c-9.11.56-9-5.66-.78-7.16v-.18c-9.32-1.19-7.84-7.32.85-7.17v0c-9.16-4-6.28-9.46,2.29-6.83l0-.07c-8.44-5.54-4.48-10.52,3.67-6.22h0c-6-7.32-1.72-11.06,4.38-5.73l.24-.32c-2.75-6.7.34-9.08,4.36-5.25C36.27,18.27,43,13.21,50.48,8.27,48.93,7.76,49,5.52,52.34,2.5ZM37.59,95.73a1.89,1.89,0,1,1-1.94,1.84A1.9,1.9,0,0,1,37.59,95.73Z"/><path class="cls-7" d="M52.34,2.5l-.05,0a70.21,70.21,0,0,0-39,25.34c-25.9,33.37-11,68.82,18.52,72.13-.11,7.1,2.45,13.35,5.83,16.15a17.06,17.06,0,0,1,8.6-15.43c-.08-.92-.15-1.85-.22-2.82a45.26,45.26,0,0,1-21.34-14.2c-2.76,1.27-4.39-.8-3.21-4.67-.34-.59-.68-1.2-1-1.82-6.16,2.77-8-1.75-2.55-6.6l-.09-.36c-8.2,2.51-9.46-3.32-2-6.9a1.05,1.05,0,0,1-.05-.19c-9.11.56-9-5.66-.78-7.16v-.18c-9.32-1.19-7.84-7.32.85-7.17v0c-9.16-4-6.28-9.46,2.29-6.83l0-.07c-8.44-5.54-4.48-10.52,3.67-6.22h0c-6-7.32-1.72-11.06,4.38-5.73l.24-.32c-2.75-6.7.34-9.08,4.36-5.25C36.27,18.27,43,13.21,50.48,8.27,48.93,7.76,49,5.52,52.34,2.5ZM37.59,95.73a1.89,1.89,0,1,1-1.94,1.84A1.9,1.9,0,0,1,37.59,95.73Z"/><path class="cls-3" d="M37.68,116.07c3.24,2.68,7.21,2.19,10.32-3.71a85.61,85.61,0,0,1-1.72-11.72A17.06,17.06,0,0,0,37.68,116.07Z"/><path class="cls-7" d="M37.68,116.07c3.24,2.68,7.21,2.19,10.32-3.71a85.61,85.61,0,0,1-1.72-11.72A17.06,17.06,0,0,0,37.68,116.07Z"/><path class="cls-4" d="M26.48,29.36a60.06,60.06,0,0,1,4.36-5.25C26.82,20.28,23.73,22.66,26.48,29.36Z"/><path class="cls-7" d="M26.48,29.36a60.06,60.06,0,0,1,4.36-5.25C26.82,20.28,23.73,22.66,26.48,29.36Z"/><path class="cls-4" d="M26.24,29.68c-6.1-5.33-10.37-1.59-4.38,5.73a27.67,27.67,0,0,1,2.42-2.8C24.9,31.61,25.56,30.63,26.24,29.68Z"/><path class="cls-7" d="M26.24,29.68c-6.1-5.33-10.37-1.59-4.38,5.73a27.67,27.67,0,0,1,2.42-2.8C24.9,31.61,25.56,30.63,26.24,29.68Z"/><path class="cls-4" d="M18.18,41.64a33.4,33.4,0,0,1,3.67-6.22C13.7,31.12,9.74,36.1,18.18,41.64Z"/><path class="cls-7" d="M18.18,41.64a33.4,33.4,0,0,1,3.67-6.22C13.7,31.12,9.74,36.1,18.18,41.64Z"/><path class="cls-4" d="M15.86,48.54a36.06,36.06,0,0,1,2.29-6.83C9.58,39.08,6.7,44.53,15.86,48.54Z"/><path class="cls-7" d="M15.86,48.54a36.06,36.06,0,0,1,2.29-6.83C9.58,39.08,6.7,44.53,15.86,48.54Z"/><path class="cls-4" d="M15,55.74a35,35,0,0,1,.85-7.17C7.16,48.42,5.68,54.55,15,55.74Z"/><path class="cls-7" d="M15,55.74a35,35,0,0,1,.85-7.17C7.16,48.42,5.68,54.55,15,55.74Z"/><path class="cls-4" d="M15.78,63.08A31.1,31.1,0,0,1,15,55.92C6.78,57.42,6.67,63.64,15.78,63.08Z"/><path class="cls-7" d="M15.78,63.08A31.1,31.1,0,0,1,15,55.92C6.78,57.42,6.67,63.64,15.78,63.08Z"/><path class="cls-4" d="M15.83,63.27c-7.41,3.58-6.15,9.41,2,6.9-.21-.76-.39-1.55-.55-2.35A29.19,29.19,0,0,1,15.83,63.27Z"/><path class="cls-7" d="M15.83,63.27c-7.41,3.58-6.15,9.41,2,6.9-.21-.76-.39-1.55-.55-2.35A29.19,29.19,0,0,1,15.83,63.27Z"/><path class="cls-4" d="M20.52,77.13A35.76,35.76,0,0,1,18,70.53C12.55,75.38,14.36,79.9,20.52,77.13Z"/><path class="cls-7" d="M20.52,77.13A35.76,35.76,0,0,1,18,70.53C12.55,75.38,14.36,79.9,20.52,77.13Z"/><path class="cls-4" d="M24.72,83.62A36.64,36.64,0,0,1,21.51,79C20.33,82.82,22,84.89,24.72,83.62Z"/><path class="cls-7" d="M24.72,83.62A36.64,36.64,0,0,1,21.51,79C20.33,82.82,22,84.89,24.72,83.62Z"/><path class="cls-5" d="M21.86,35.41h0l0,0Z"/><path class="cls-7" d="M21.86,35.41h0l0,0Z"/><path class="cls-5" d="M17,65.7a43.6,43.6,0,0,1-.2-10.22A51.32,51.32,0,0,1,23,34.7l-1,1-.13-.17-3.75,6.15h0l0,.07.5.16-2.73,6.7-.06,0v0h.08l-.77,7.19-.16,0v.18l.14,0L16,63.07h-.18a1.05,1.05,0,0,0,.05.19l.18-.08Z"/><path class="cls-7" d="M17,65.7a43.6,43.6,0,0,1-.2-10.22A51.32,51.32,0,0,1,23,34.7l-1,1-.13-.17-3.75,6.15h0l0,.07.5.16-2.73,6.7-.06,0v0h.08l-.77,7.19-.16,0v.18l.14,0L16,63.07h-.18a1.05,1.05,0,0,0,.05.19l.18-.08Z"/><path class="cls-5" d="M22,35.48l0,0,.13.17,1-1c.4-.71.81-1.41,1.24-2.09a27.67,27.67,0,0,0-2.42,2.8l0,0Z"/><path class="cls-7" d="M22,35.48l0,0,.13.17,1-1c.4-.71.81-1.41,1.24-2.09a27.67,27.67,0,0,0-2.42,2.8l0,0Z"/><path class="cls-5" d="M21.94,35.5l-.05,0,0,0a33.4,33.4,0,0,0-3.67,6.22h0Z"/><path class="cls-7" d="M21.94,35.5l-.05,0,0,0a33.4,33.4,0,0,0-3.67,6.22h0Z"/><path class="cls-5" d="M21.89,35.45l.05,0,0,0Z"/><path class="cls-7" d="M21.89,35.45l.05,0,0,0Z"/><path class="cls-5" d="M18.65,41.87l-.5-.16a36.06,36.06,0,0,0-2.29,6.83l.06,0Z"/><path class="cls-7" d="M18.65,41.87l-.5-.16a36.06,36.06,0,0,0-2.29,6.83l.06,0Z"/><path class="cls-5" d="M15.93,48.57h-.08A35,35,0,0,0,15,55.74l.16,0Z"/><path class="cls-7" d="M15.93,48.57h-.08A35,35,0,0,0,15,55.74l.16,0Z"/><path class="cls-5" d="M15.14,55.89l-.14,0a31.1,31.1,0,0,0,.78,7.16H16Z"/><path class="cls-7" d="M15.14,55.89l-.14,0a31.1,31.1,0,0,0,.78,7.16H16Z"/><path class="cls-5" d="M17,65.7l-1-2.51-.18.08a29.19,29.19,0,0,0,1.5,4.55C17.19,67.13,17.07,66.42,17,65.7Z"/><path class="cls-7" d="M17,65.7l-1-2.51-.18.08a29.19,29.19,0,0,0,1.5,4.55C17.19,67.13,17.07,66.42,17,65.7Z"/><circle class="cls-6" cx="37.54" cy="97.62" r="1.89"/><circle class="cls-7" cx="37.54" cy="97.62" r="1.89"/><path class="cls-6" d="M52.34,2.5c-3.38,3-3.41,5.26-1.86,5.77,1.5-1,3-2,4.6-3A25,25,0,0,1,52.34,2.5Z"/><path class="cls-7" d="M52.34,2.5c-3.38,3-3.41,5.26-1.86,5.77,1.5-1,3-2,4.6-3A25,25,0,0,1,52.34,2.5Z"/><path class="cls-5" d="M52.34,2.5h0l3.14,2.57Q58.94,2.9,62.55.71V.58A79.1,79.1,0,0,0,52.29,2.45Z"/><path class="cls-7" d="M52.34,2.5h0l3.14,2.57Q58.94,2.9,62.55.71V.58A79.1,79.1,0,0,0,52.29,2.45Z"/><path class="cls-5" d="M55.08,5.31l.41-.25L52.35,2.49h0A25,25,0,0,0,55.08,5.31Z"/><path class="cls-7" d="M55.08,5.31l.41-.25L52.35,2.49h0A25,25,0,0,0,55.08,5.31Z"/><g id="Right_Eye" data-name="Right Eye"><g id="Red"><path class="cls-4" d="M96.91,28.51c-.86-8.08-9.08-10.32-7.06,1.35Z"/><path class="cls-4" d="M109.33,33.29c5.58-9.57,0-12.54-5.91-4.16Z"/><path class="cls-4" d="M114.46,37.85c7-7.55,2.11-11.68-4.85-5.37Z"/><path class="cls-4" d="M118.06,44c8.75-5.17,5-10.36-3.47-6.35Z"/><path class="cls-4" d="M120,51c9.61-3.64,6.71-9.4-2.41-6.82Z"/><path class="cls-4" d="M120.42,58.25c9.58-.7,8.39-7-.43-7.22Z"/><path class="cls-4" d="M119.28,65.51c9.31,1.1,9.5-5.27,1.16-7.14Z"/><path class="cls-4" d="M116.32,72.24c8.76,3.52,10.56-2.59,2.91-6.62Z"/><path class="cls-4" d="M111.86,78c7.91,5.58,11,.24,4.5-5.66Z"/><path class="cls-4" d="M105.33,81.26c5.47,8.39,10.56,4.84,6.46-3.24Z"/><path class="cls-4" d="M98,80.61c.61,10.07,6.91,9.79,7.34.71Z"/><path class="cls-4" d="M91.06,77.2c-3.92,10.09,2.25,12.36,6.79,3.6Z"/><path class="cls-4" d="M103.59,29.42c1.48-8.56-5.4-12.91-6.79-.45Z"/><path class="cls-4" d="M79,39.23c-6.12-3.39-12.38,2.07-3.12,6.33Z"/><path class="cls-4" d="M74.71,53.15c-6.68,1-8.11,8.76,1.59,6.57Z"/><path class="cls-4" d="M75.85,45.52c-6.92-1.12-11.3,6.65-1.13,7.54Z"/><path class="cls-4" d="M90,29.92c-3.3-7.44-11.91-6.85-6.41,3.65Z"/><path class="cls-4" d="M83.61,33.63c-5.38-6.23-13.25-2.94-4.86,5.57Z"/><path class="cls-4" d="M76.39,60c-7.87,3.94-7.11,12.6,3.83,6.46Z"/><path class="cls-4" d="M80.15,66.5c-7.39,5-4.86,13.27,5.11,5.55Z"/><path class="cls-4" d="M85.09,72.28c-6.3,6.43-2.45,14.53,6,5Z"/></g><path id="Right_Eye-2" data-name="Right Eye" class="cls-5" d="M103.1,28.87C81.71,24.46,69.44,47.62,76.93,61.48s26.65,29.94,38.78,12.64S116.73,31.15,103.1,28.87Zm9.63,42.05c-10.11,14.42-26.08,1-32.32-10.53s4-30.85,21.81-27.17C113.57,35.11,122.84,56.5,112.73,70.92Z"/></g></g></g></g></g></svg>