<svg xmlns="http://www.w3.org/2000/svg" viewBox="0 0 142.96 265"><defs><style>.cls-1{fill:#724a99;}.cls-2{fill:#9374b1;}.cls-3{fill:#848484;}.cls-4{fill:#4c4c4c;}</style></defs><title>Smoke</title><g id="Layer_2" data-name="Layer 2"><g id="Page_4" data-name="Page 4"><g id="Items"><g id="Smoke"><rect class="cls-1" y="218.14" width="119.14" height="46.86" rx="12" ry="12"/><path class="cls-2" d="M119.5,225.77c0,17.25-26.67,18.89-59.57,18.89S.36,243,.36,225.77,27,194.53,59.93,194.53,119.5,208.52,119.5,225.77Z"/><circle cx="59.93" cy="205.43" r="2.91"/><circle cx="68.65" cy="206.88" r="2.91"/><circle cx="51.21" cy="206.88" r="2.91"/><path class="cls-3" d="M132.79,26.37A18.3,18.3,0,0,0,134,20.56a18.49,18.49,0,0,0-30.46-14.9,23.49,23.49,0,0,0-33.84,20,24.24,24.24,0,0,0,.34,5.14A31.36,31.36,0,0,0,64.48,38,15.48,15.48,0,0,0,53.2,63.57a19.47,19.47,0,0,0-13,33.58,17.36,17.36,0,0,0-1.9,16.39A17,17,0,0,0,36,131.82a10.49,10.49,0,0,0,1.17,19.76,19.36,19.36,0,0,0,2.56,9.33,5.9,5.9,0,0,0-.06.59A9.49,9.49,0,0,0,46.28,171a8,8,0,0,0,3.38,13.24,2.11,2.11,0,0,0,0,.26,6,6,0,0,0,5.72,6.26,6.84,6.84,0,0,0,1,0,.29.29,0,0,0,0,.09,5,5,0,1,0,7.77-3.92,4,4,0,0,0,.49-1.72A4,4,0,0,0,60.8,181a2.69,2.69,0,0,0-.49,0,6.26,6.26,0,0,0-1.07-1.05.61.61,0,0,0,0-.12,6.5,6.5,0,0,0,5.8-5.7,6.51,6.51,0,0,0,6.31-6.2,6.41,6.41,0,0,0-.7-3.21,19.45,19.45,0,0,0,3.53-21.83,10,10,0,0,0-.1-13.5,7,7,0,0,0,.28-9.91l.64.06a18.5,18.5,0,0,0,19.31-17.65,18.74,18.74,0,0,0-.44-4.82A24.51,24.51,0,0,0,105,81.12a31,31,0,0,0,15.41-16.68c.38,0,.75.09,1.14.11a20.5,20.5,0,0,0,11.24-38.18Z"/><path class="cls-4" d="M122.54,24.36A18.48,18.48,0,0,0,105,0,18.4,18.4,0,0,0,92.41,5,23.48,23.48,0,0,0,60.07,31.62a30.93,30.93,0,0,0-5.26,7.44,15.48,15.48,0,0,0-10.13,26A19.47,19.47,0,0,0,33.2,99.19,17.39,17.39,0,0,0,32,115.65,16.94,16.94,0,0,0,30.51,134a10.48,10.48,0,0,0,2.05,19.68,19.38,19.38,0,0,0,3,9.21c0,.19,0,.39,0,.59a9.49,9.49,0,0,0,7,9.17,8,8,0,0,0,4,13.07c0,.09,0,.17,0,.26a6,6,0,0,0,6,6,6.77,6.77,0,0,0,1-.09s0,.06,0,.09a5,5,0,1,0,7.59-4.26A4,4,0,0,0,61.5,186a4,4,0,0,0-4-4,3.87,3.87,0,0,0-.49.05,5.94,5.94,0,0,0-1.12-1s0-.08,0-.13A6.49,6.49,0,0,0,61.48,175a6.5,6.5,0,0,0,6-6.48,6.44,6.44,0,0,0-.83-3.18,19.44,19.44,0,0,0,2.55-22,10,10,0,0,0-.7-13.48,7,7,0,0,0-.16-9.91c.21,0,.42,0,.64,0A18.44,18.44,0,0,0,86.85,96.71,24.52,24.52,0,0,0,97.21,80.29a31.06,31.06,0,0,0,14.65-17.35c.38,0,.76.06,1.14.06a20.5,20.5,0,0,0,9.54-38.64Z"/></g></g></g></g></svg>