<svg xmlns="http://www.w3.org/2000/svg" viewBox="0 0 298.12 194.94"><defs><style>.cls-1{fill:#9476b2;}.cls-2{fill:#724a99;}.cls-3{fill:#28262a;}.cls-4{fill:#fff6df;}.cls-5{fill:#666269;}.cls-6{fill:#1b7aaf;}.cls-7{fill:#f69220;}.cls-8{fill:#2fa493;}</style></defs><title>Sombrero</title><g id="Layer_2" data-name="Layer 2"><g id="Page_4" data-name="Page 4"><g id="Items"><g id="Sombrero"><path class="cls-1" d="M156.08,153.26c-40,5-132,6-156-36,3.72,50.88,24,73,86,77s165-10,191-31,21-54,20-64C267.08,141.26,196.08,148.26,156.08,153.26Z"/><path class="cls-2" d="M223.08,59.26c-51-6-134,1-140,2s-86,15-83,56a47,47,0,0,0,7.39,9.65C4.89,112.58,40.1,97.26,80,90.33c0,0,129.08-13.07,147-12.82s51-1.25,64,29.22a75.44,75.44,0,0,0,6.09-7.47C296.08,89.26,274.08,65.26,223.08,59.26Z"/><path class="cls-3" d="M227,77.51c-18-.25-147,12.82-147,12.82C40.1,97.26,4.89,112.58,7.47,126.91c31.64,32.15,112,30.93,148.61,26.35,37.5-4.69,102.25-11.13,134.91-46.53C278.08,76.26,245,77.75,227,77.51Z"/><path class="cls-4" d="M175.15,185.93a7.2,7.2,0,0,1-4.63-3.09c-2.75-3.72-3.63-10.21.59-16.34.17-.29.34-.58.51-.85-2.88.07-6.1,2.56-8.5,6.35-1.69.81-3.39.57-2.92-1.76,4.34-7.34,9.11-9,13.87-7.68,4.33-4.23,8.5-2.4,8.61-2.19a2.14,2.14,0,0,1-1.52,3c-.08,0-1.69-.7-3.87.9,2.84,2.49,4.37,7,4.2,12.84-.18,6.38-2.78,8.13-4.31,8.61A4.51,4.51,0,0,1,175.15,185.93Zm-.2-19.12c-.31.45-.63.95-.95,1.51-3.34,4.86-2.76,9.75-.74,12.49.93,1.25,2.12,2,2.9,1.71s1.81-1.84,1.92-5.46C178.22,172.22,177.07,168.58,175,166.81Z"/><path class="cls-4" d="M140.79,189.4a7.2,7.2,0,0,1-4.06-3.82c-2.1-4.12-1.9-10.66,3.27-16,.22-.27.43-.52.65-.76-2.86-.4-6.45,1.52-9.43,4.87-1.81.52-3.44,0-2.59-2.22,5.48-6.52,10.47-7.42,14.94-5.3,5-3.45,8.78-1,8.85-.74a2.13,2.13,0,0,1-2,2.76c-.07,0-1.55-1-4,.26,2.39,2.92,3.15,7.64,2,13.35-1.23,6.26-4.09,7.56-5.68,7.79A4.62,4.62,0,0,1,140.79,189.4Zm3-18.89c-.38.39-.78.83-1.19,1.32-4.09,4.25-4.32,9.17-2.78,12.21.71,1.38,1.77,2.27,2.57,2.15s2.1-1.51,2.8-5.06C146.07,176.38,145.54,172.6,143.74,170.51Z"/><path class="cls-4" d="M107.45,189.43a7.26,7.26,0,0,1-4-3.9c-2-4.17-1.64-10.71,3.65-15.94.22-.26.44-.51.66-.74-2.85-.47-6.48,1.37-9.54,4.65-1.82.47-3.44-.08-2.54-2.29,5.64-6.39,10.64-7.17,15.06-4.94,5-3.34,8.8-.76,8.87-.54a2.15,2.15,0,0,1-2.07,2.72c-.06,0-1.53-1-4,.16,2.32,3,3,7.71,1.72,13.39-1.38,6.23-4.26,7.47-5.86,7.66A4.5,4.5,0,0,1,107.45,189.43Zm3.39-18.81c-.39.37-.8.81-1.22,1.29-4.19,4.15-4.53,9.07-3.06,12.14.67,1.4,1.71,2.31,2.52,2.21s2.13-1.46,2.91-5C113,176.54,112.6,172.74,110.84,170.62Z"/><path class="cls-4" d="M66.43,184.39a7.25,7.25,0,0,1-3.08-4.65c-1.09-4.49.6-10.81,6.86-14.84.27-.2.53-.4.8-.58-2.69-1-6.62,0-10.3,2.57-1.87.09-3.34-.78-2-2.75,6.83-5.09,11.89-4.82,15.76-1.73,5.63-2.23,8.76,1.07,8.79,1.3a2.14,2.14,0,0,1-2.59,2.23c-.06-.05-1.29-1.29-3.91-.66,1.66,3.39,1.32,8.16-1.08,13.46C73,184.56,70,185.17,68.36,185A4.54,4.54,0,0,1,66.43,184.39Zm7.2-17.71a16.92,16.92,0,0,0-1.46,1c-5,3.2-6.31,7.93-5.5,11.25.37,1.5,1.2,2.61,2,2.68s2.38-1,3.88-4.29C74.55,172.93,74.91,169.12,73.63,166.68Z"/><path class="cls-4" d="M28.29,173a7.23,7.23,0,0,1-2.35-5.05c-.41-4.61,2.21-10.61,9-13.65l.88-.47c-2.5-1.43-6.55-1-10.56,1-1.87-.19-3.19-1.27-1.58-3,7.51-4,12.47-3,15.84.64,5.9-1.36,8.51,2.37,8.49,2.6a2.14,2.14,0,0,1-2.88,1.82c0-.06-1.08-1.47-3.77-1.23,1.13,3.59.08,8.26-3.08,13.14-3.47,5.36-6.61,5.51-8.16,5.13A4.68,4.68,0,0,1,28.29,173Zm9.76-16.44a16.7,16.7,0,0,0-1.59.79c-5.38,2.42-7.42,6.9-7.12,10.29.14,1.55.79,2.77,1.59,3s2.5-.63,4.47-3.66C38,162.85,39,159.14,38.05,156.53Z"/><path class="cls-4" d="M207.15,179.93a7.2,7.2,0,0,1-4.63-3.09c-2.75-3.72-3.63-10.21.59-16.34.17-.29.34-.58.51-.85-2.88.07-6.1,2.56-8.5,6.35-1.69.81-3.39.57-2.92-1.76,4.34-7.34,9.11-9,13.87-7.68,4.33-4.23,8.5-2.4,8.61-2.19a2.14,2.14,0,0,1-1.52,3c-.08,0-1.69-.7-3.87.9,2.84,2.49,4.37,7,4.2,12.84-.18,6.38-2.78,8.13-4.31,8.61A4.51,4.51,0,0,1,207.15,179.93Zm-.2-19.12c-.31.45-.63.95-.95,1.51-3.34,4.86-2.76,9.75-.74,12.49.93,1.25,2.12,2,2.9,1.71s1.81-1.84,1.92-5.46C210.22,166.22,209.07,162.58,207,160.81Z"/><path class="cls-4" d="M243.12,171.22a7.27,7.27,0,0,1-5-2.4c-3.25-3.29-5.05-9.59-1.76-16.26.13-.31.26-.62.39-.91-2.85.48-5.68,3.41-7.5,7.5-1.57,1-3.27,1-3.15-1.33,3.24-7.87,7.72-10.24,12.62-9.58,3.68-4.81,8.07-3.6,8.21-3.41a2.14,2.14,0,0,1-1.06,3.25c-.08,0-1.78-.45-3.7,1.44,3.16,2.06,5.32,6.32,6,12.1.74,6.34-1.58,8.45-3,9.15A4.66,4.66,0,0,1,243.12,171.22Zm-2.94-18.9c-.25.49-.49,1-.73,1.63-2.61,5.29-1.33,10,1.07,12.47,1.09,1.1,2.37,1.63,3.1,1.27s1.54-2.08,1.12-5.68C244.19,157.21,242.53,153.76,240.18,152.32Z"/><path class="cls-4" d="M275.9,156.27a7.24,7.24,0,0,1-5.31-1.69c-3.68-2.8-6.33-8.79-4-15.85.08-.33.17-.65.25-1-2.75.87-5.14,4.16-6.39,8.47-1.4,1.25-3.09,1.49-3.29-.88,2.12-8.25,6.22-11.22,11.17-11.24,3-5.27,7.5-4.68,7.66-4.51a2.14,2.14,0,0,1-.61,3.36c-.08,0-1.82-.2-3.46,1.94,3.42,1.6,6.15,5.53,7.61,11.16,1.6,6.18-.4,8.59-1.74,9.48A4.69,4.69,0,0,1,275.9,156.27ZM270.38,138a16.91,16.91,0,0,0-.5,1.71c-1.85,5.6.07,10.13,2.78,12.2,1.23.94,2.58,1.29,3.25.83s1.23-2.27.33-5.77C275,142.24,272.91,139.06,270.38,138Z"/><path class="cls-4" d="M54.86,90.56a4.55,4.55,0,0,1-3.25-1.34c-2.16-2-3.52-5.85-1.68-10.17l.21-.59c-1.77.41-3.45,2.35-4.45,5-.95.71-2,.78-2-.73,1.76-5.07,4.5-6.72,7.61-6.47,2.15-3.16,4.95-2.55,5-2.43a1.35,1.35,0,0,1-.56,2.07,2.6,2.6,0,0,0-2.28,1c2.07,1.19,3.58,3.8,4.2,7.41.68,4-.7,5.38-1.59,5.86A3,3,0,0,1,54.86,90.56ZM52.35,78.77a9.44,9.44,0,0,0-.4,1c-1.46,3.42-.49,6.37,1.1,7.82.73.65,1.56.94,2,.69s.9-1.37.51-3.61C55,81.7,53.88,79.59,52.35,78.77Z"/><path class="cls-4" d="M74.86,85.56a4.55,4.55,0,0,1-3.25-1.34c-2.16-2-3.52-5.85-1.68-10.17l.21-.59c-1.77.41-3.45,2.35-4.45,5-1,.71-2,.78-2-.73,1.76-5.07,4.5-6.72,7.61-6.47,2.15-3.16,5-2.55,5-2.43a1.35,1.35,0,0,1-.56,2.07,2.6,2.6,0,0,0-2.28,1c2.07,1.19,3.58,3.8,4.2,7.41.68,4-.7,5.38-1.59,5.86A3,3,0,0,1,74.86,85.56ZM72.35,73.77a9.44,9.44,0,0,0-.4,1c-1.46,3.42-.49,6.37,1.1,7.82.73.65,1.56.94,2,.69s.9-1.37.51-3.61C75,76.7,73.88,74.59,72.35,73.77Z"/><path class="cls-4" d="M33.86,98.56a4.55,4.55,0,0,1-3.25-1.34c-2.16-2-3.52-5.85-1.68-10.17l.21-.59c-1.77.41-3.45,2.35-4.45,5-1,.71-2,.78-2-.73,1.76-5.07,4.5-6.72,7.61-6.47,2.15-3.16,4.95-2.55,5.05-2.43a1.35,1.35,0,0,1-.56,2.07,2.6,2.6,0,0,0-2.28,1c2.07,1.19,3.58,3.8,4.2,7.41.68,4-.7,5.38-1.59,5.86A3,3,0,0,1,33.86,98.56ZM31.35,86.77a9.44,9.44,0,0,0-.4,1c-1.46,3.42-.49,6.37,1.1,7.82.73.65,1.56.94,2,.69s.9-1.37.51-3.61C34,89.7,32.88,87.59,31.35,86.77Z"/><path class="cls-4" d="M235.54,75.36a3.16,3.16,0,0,1-1.23-2.11,6.21,6.21,0,0,1,3.39-6.33l.37-.23c-1.15-.53-2.9-.17-4.58.86-.82,0-1.44-.43-.81-1.26,3.13-2.06,5.34-1.8,6.95-.35,2.53-.83,3.82.7,3.82.8a.93.93,0,0,1-1.19.91,1.8,1.8,0,0,0-1.7-.39c.64,1.53.36,3.61-.83,5.87-1.3,2.48-2.67,2.67-3.36,2.56A1.82,1.82,0,0,1,235.54,75.36Zm3.62-7.57a7.61,7.61,0,0,0-.67.41,4.74,4.74,0,0,0-2.7,4.78c.12.67.45,1.18.81,1.23s1.07-.37,1.81-1.78C239.4,70.55,239.65,68.9,239.16,67.79Z"/><path class="cls-4" d="M251.76,77.51a2.76,2.76,0,0,1-1.08-1.86,5.46,5.46,0,0,1,3-5.58l.32-.21c-1-.47-2.56-.15-4,.76-.72,0-1.27-.38-.71-1.12,2.76-1.81,4.71-1.59,6.13-.3,2.23-.73,3.37.62,3.37.71a.82.82,0,0,1-1.05.8,1.59,1.59,0,0,0-1.5-.35c.57,1.35.32,3.19-.73,5.18-1.15,2.19-2.35,2.36-3,2.27A1.8,1.8,0,0,1,251.76,77.51ZM255,70.83a6.62,6.62,0,0,0-.58.36A4.16,4.16,0,0,0,252,75.41c.11.59.4,1,.71,1.09s.95-.33,1.6-1.57C255.17,73.27,255.39,71.81,255,70.83Z"/><path class="cls-4" d="M288.35,97.58a1.84,1.84,0,0,1-.12-1.39,3.52,3.52,0,0,1,3.28-2.42l.25,0a3,3,0,0,0-2.56-.67c-.42-.21-.64-.58-.11-.85,2.11-.29,3.18.38,3.65,1.52a1.85,1.85,0,0,1,1.77,1.34.55.55,0,0,1-.84.18s-.12-.44-.77-.62a4,4,0,0,1-1.85,2.81c-1.28,1-2,.72-2.36.5A1.09,1.09,0,0,1,288.35,97.58Zm3.7-3a3.71,3.71,0,0,0-.44.05,2.7,2.7,0,0,0-2.56,1.79c-.1.38-.05.72.12.83s.64.07,1.36-.47A3.19,3.19,0,0,0,292.05,94.57Z"/><path class="cls-4" d="M281.27,90.44a2,2,0,0,1-.13-1.55,4,4,0,0,1,3.67-2.71l.28,0a3.31,3.31,0,0,0-2.87-.75c-.47-.24-.71-.65-.12-1,2.36-.33,3.56.42,4.09,1.7,1.68.21,2,1.44,2,1.5a.59.59,0,0,1-.93.19,1.13,1.13,0,0,0-.87-.68,4.48,4.48,0,0,1-2.07,3.14c-1.43,1.07-2.26.81-2.63.56A1.31,1.31,0,0,1,281.27,90.44Zm4.14-3.36a4.79,4.79,0,0,0-.49,0,3,3,0,0,0-2.86,2c-.11.42-.06.8.13.93s.72.08,1.53-.53A3.54,3.54,0,0,0,285.41,87.08Z"/><path class="cls-4" d="M272.53,83.89a2.22,2.22,0,0,1-.14-1.67,4.25,4.25,0,0,1,4-2.93l.3,0a3.58,3.58,0,0,0-3.1-.81c-.51-.25-.77-.7-.13-1,2.55-.36,3.85.45,4.42,1.83,1.81.23,2.16,1.55,2.13,1.62a.63.63,0,0,1-1,.21,1.25,1.25,0,0,0-.94-.74,4.88,4.88,0,0,1-2.24,3.4c-1.54,1.16-2.45.87-2.85.6A1.51,1.51,0,0,1,272.53,83.89ZM277,80.26a3.49,3.49,0,0,0-.53,0,3.26,3.26,0,0,0-3.09,2.18c-.12.45-.07.86.14,1s.78.08,1.65-.57A3.86,3.86,0,0,0,277,80.26Z"/><path class="cls-4" d="M263,80.46a2.53,2.53,0,0,1-.5-1.87,4.91,4.91,0,0,1,3.9-4.12l.33-.1a4.14,4.14,0,0,0-3.67-.29c-.63-.18-1-.63-.36-1.13,2.81-.92,4.44-.27,5.37,1.17a2.58,2.58,0,0,1,2.75,1.4.75.75,0,0,1-1.1.45,1.41,1.41,0,0,0-1.21-.65,5.56,5.56,0,0,1-1.85,4.3c-1.51,1.62-2.58,1.49-3.09,1.26A1.69,1.69,0,0,1,263,80.46Zm4.33-5c-.19,0-.38.1-.6.18a3.74,3.74,0,0,0-3.05,3.08c0,.54.11,1,.37,1.11s.89-.06,1.75-1C266.9,77.59,267.44,76.38,267.29,75.43Z"/><path class="cls-4" d="M14.61,107.75a3.16,3.16,0,0,1-2.26-.93,6.18,6.18,0,0,1-1.17-7.08l.15-.41c-1.24.28-2.41,1.63-3.11,3.47-.66.5-1.4.54-1.41-.5C8,98.76,10,97.62,12.11,97.79c1.5-2.2,3.45-1.78,3.52-1.7a.94.94,0,0,1-.39,1.45,1.81,1.81,0,0,0-1.59.73c1.44.82,2.49,2.64,2.93,5.15.47,2.76-.49,3.75-1.11,4.09A2.08,2.08,0,0,1,14.61,107.75Zm-1.75-8.21c-.09.22-.19.46-.28.73a4.74,4.74,0,0,0,.78,5.44c.5.46,1.08.66,1.39.48s.62-1,.35-2.51C14.74,101.58,13.93,100.11,12.86,99.54Z"/><path class="cls-5" d="M80.94,107.76c.5,5.25,1.2,10.75,2.14,16.5,43,20,106,14,146-15,0-7.7-.31-14.85-.89-21.53C180.3,126.19,111.09,116.26,80.94,107.76Z"/><path class="cls-6" d="M80.25,98.56c.15,3,.39,6,.69,9.2,30.15,8.5,99.36,18.43,147.25-20q-.41-4.64-1-9C189.08,98.26,142.41,111.86,80.25,98.56Z"/><path class="cls-5" d="M80.8,73a163,163,0,0,0-.55,25.55c62.16,13.3,108.83-.3,147-19.79a152.18,152.18,0,0,0-4.75-22.9C177.08,75.26,137.51,85.75,80.8,73Z"/><path class="cls-7" d="M222.47,55.87a109.79,109.79,0,0,0-4-11.32c-45.58,29.28-96.41,26.71-135.94,16.8Q81.44,66.85,80.8,73C137.51,85.75,177.08,75.26,222.47,55.87Z"/><path class="cls-5" d="M193.19,11.71C176.67.33,157.93-.66,145.08.26a65.83,65.83,0,0,0-41.56,19.18C143.94,30.6,164.08,23.26,193.19,11.71Z"/><path class="cls-5" d="M95.47,29.24C89.8,37.58,85.22,48.12,82.55,61.35c39.53,9.91,90.36,12.48,135.94-16.8a79.13,79.13,0,0,0-14.87-23.81C160.16,42.22,122.09,38.26,95.47,29.24Z"/><path class="cls-8" d="M193.19,11.71c-29.11,11.55-49.25,18.89-89.67,7.73a67.24,67.24,0,0,0-8,9.8c26.62,9,64.69,13,108.15-8.5A62.32,62.32,0,0,0,193.19,11.71Z"/></g></g></g></g></svg>